<?xml version="1.0" encoding="UTF-8" standalone="no"?>
<!-- Created with Inkscape (http://www.inkscape.org/) -->

<svg
   width="210mm"
   height="297mm"
   viewBox="0 0 210 297"
   version="1.1"
   id="svg1"
   xml:space="preserve"
   inkscape:version="1.3.2 (091e20e, 2023-11-25, custom)"
   sodipodi:docname="drawing-1.svg"
   xmlns:inkscape="http://www.inkscape.org/namespaces/inkscape"
   xmlns:sodipodi="http://sodipodi.sourceforge.net/DTD/sodipodi-0.dtd"
   xmlns="http://www.w3.org/2000/svg"
   xmlns:svg="http://www.w3.org/2000/svg"><sodipodi:namedview
     id="namedview1"
     pagecolor="#ffffff"
     bordercolor="#000000"
     borderopacity="0.25"
     inkscape:showpageshadow="2"
     inkscape:pageopacity="0.0"
     inkscape:pagecheckerboard="0"
     inkscape:deskcolor="#d1d1d1"
     inkscape:document-units="mm"
     inkscape:zoom="2.0456748"
     inkscape:cx="370.53787"
     inkscape:cy="187.4687"
     inkscape:window-width="1440"
     inkscape:window-height="829"
     inkscape:window-x="-8"
     inkscape:window-y="-8"
     inkscape:window-maximized="1"
     inkscape:current-layer="layer1"
     showgrid="false" /><defs
     id="defs1" /><g
     inkscape:label="Layer 1"
     inkscape:groupmode="layer"
     id="layer1"><path
       id="path146"
       style="fill:#ffffff;stroke:#000000;stroke-width:0.215;stroke-miterlimit:4.4;paint-order:fill markers stroke"
       d="m 103.23938,24.782537 a 3.1199298,2.2704358 0 0 1 -3.11993,2.270436 3.1199298,2.2704358 0 0 1 -3.119926,-2.270436 3.1199298,2.2704358 0 0 1 3.119926,-2.270435 3.1199298,2.2704358 0 0 1 3.11993,2.270435 z" /><g
       id="g1"
       transform="matrix(0.8893184,0.0386688,-0.00783383,0.57426689,-66.489483,-12.712769)"
       inkscape:transform-center-x="1.999886"
       inkscape:transform-center-y="0.09096202"><path
         style="fill:#e5c0a3;stroke:none"
         d="m 97.469529,193.77877 0.264584,0.26458 -0.264584,-0.26458 m -3.439583,0.26458 v 0.26459 h 2.38125 z"
         id="path395" /><path
         style="fill:#949fbf;stroke:none"
         d="m 92.883418,193.86697 0.176389,0.0882 -0.176389,-0.0882 m 4.233334,0 0.176388,0.0882 z"
         id="path394" /><path
         style="fill:#e5c0a3;stroke:none"
         d="m 114.13828,193.2496 0.26458,0.26459 -0.26458,-0.26459 m -22.489584,0.26459 0.264583,0.26458 -0.264583,-0.26458 m 21.695834,0 0.26458,0.26458 -0.26458,-0.26458 m -20.902084,0.26458 0.264583,0.26458 z"
         id="path393" /><path
         style="fill:#949fbf;stroke:none"
         d="m 112.81536,193.2496 0.52917,0.52917 -0.52917,-0.52917 m 1.05834,0 0.26458,0.26459 z"
         id="path392" /><path
         style="fill:#e5c0a3;stroke:none"
         d="m 114.93203,192.98502 0.26458,0.26458 z"
         id="path391" /><path
         style="fill:#949fbf;stroke:none"
         d="m 114.66745,192.98502 0.26458,0.26458 z"
         id="path390" /><path
         style="fill:#e5c0a3;stroke:none"
         d="m 97.822307,193.16141 0.08819,0.17639 -0.08819,-0.17639 m 14.728473,-0.17639 0.26458,0.26458 z"
         id="path389" /><path
         style="fill:#949fbf;stroke:none"
         d="m 115.4612,192.72044 0.26458,0.26458 z"
         id="path388" /><path
         style="fill:#e5c0a3;stroke:none"
         d="m 116.25495,192.45585 0.26458,0.26459 z"
         id="path387" /><path
         style="fill:#949fbf;stroke:none"
         d="m 116.78411,192.19127 0.26459,0.26458 -0.26459,-0.26458 m -25.929164,0.26458 0.264583,0.26459 -0.264583,-0.26459 m 21.431254,0 0.26458,0.26459 z"
         id="path386" /><path
         style="fill:#e5c0a3;stroke:none"
         d="m 112.02161,192.19127 0.26459,0.26458 z"
         id="path385" /><path
         style="fill:#949fbf;stroke:none"
         d="m 97.204946,192.19127 0.529167,0.52917 z"
         id="path384" /><path
         style="fill:#e5c0a3;stroke:none"
         d="m 117.57786,191.92669 0.26459,0.26458 -0.26459,-0.26458 m -26.987498,0.26458 0.264584,0.26458 z"
         id="path383" /><path
         style="fill:#949fbf;stroke:none"
         d="m 96.675779,191.92669 0.264584,0.26458 -0.264584,-0.26458 m 15.345831,0 0.26459,0.26458 -0.26459,-0.26458 m 5.29167,0 0.26458,0.26458 z"
         id="path382" /><path
         style="fill:#e5c0a3;stroke:none"
         d="m 96.146613,191.66211 0.264583,0.26458 -0.264583,-0.26458 m 15.610417,0 0.26458,0.26458 -0.26458,-0.26458 m 6.35,0 0.26458,0.26458 z"
         id="path381" /><path
         style="fill:#949fbf;stroke:none"
         d="m 111.75703,191.39752 0.26458,0.26459 -0.26458,-0.26459 m 6.87917,0 0.26458,0.26459 -0.26458,-0.26459 m -28.310421,0.26459 0.264583,0.26458 -0.264583,-0.26458 m 5.027084,0 v 0.26458 h 0.79375 z"
         id="path380" /><path
         style="fill:#e5c0a3;stroke:none"
         d="m 90.061196,191.39752 0.264583,0.26459 z"
         id="path379" /><path
         style="fill:#949fbf;stroke:none"
         d="m 119.16536,191.13294 0.26459,0.26458 z"
         id="path378" /><path
         style="fill:#e5c0a3;stroke:none"
         d="m 95.176473,191.30932 0.08819,0.1764 -0.08819,-0.1764 m 16.315977,-0.17638 0.26458,0.26458 z"
         id="path377" /><path
         style="fill:#949fbf;stroke:none"
         d="m 120.2237,190.60377 0.26458,0.26459 -0.26458,-0.26459 m -30.427088,0.26459 0.264584,0.26458 -0.264584,-0.26458 m 21.695838,0 0.26458,0.26458 -0.26458,-0.26458 m 8.20208,0 0.26458,0.26458 z"
         id="path376" /><path
         style="fill:#e5c0a3;stroke:none"
         d="m 89.532029,190.60377 0.264583,0.26459 -0.264583,-0.26459 m 21.695831,0 0.26459,0.26459 z"
         id="path375" /><path
         style="fill:#949fbf;stroke:none"
         d="m 121.28203,190.07461 0.26458,0.26458 -0.26458,-0.26458 m -26.458334,0.26458 0.264583,0.26458 -0.264583,-0.26458 m 16.404164,0 0.26459,0.26458 -0.26459,-0.26458 m 9.525,0 0.26459,0.26458 z"
         id="path374" /><path
         style="fill:#e5c0a3;stroke:none"
         d="m 89.267446,190.07461 0.264583,0.26458 z"
         id="path373" /><path
         style="fill:#949fbf;stroke:none"
         d="m 121.8112,189.81002 0.26458,0.26459 z"
         id="path372" /><path
         style="fill:#e5c0a3;stroke:none"
         d="m 110.96328,189.81002 0.26458,0.26459 z"
         id="path371" /><path
         style="fill:#949fbf;stroke:none"
         d="m 89.091057,189.45724 0.08819,0.1764 -0.08819,-0.1764 m 5.203472,0.0882 0.529167,0.52917 -0.529167,-0.52917 m 16.668751,0 0.26458,0.26458 z"
         id="path370" /><path
         style="fill:#987a79;stroke:none"
         d="m 112.02161,189.01627 v 0.26459 h 0.79375 z"
         id="path368" /><path
         style="fill:#e5c0a3;stroke:none"
         d="m 89.002862,189.01627 0.264584,0.26459 z"
         id="path367" /><path
         style="fill:#987a79;stroke:none"
         d="m 113.07995,188.75169 0.26458,0.26458 z"
         id="path366" /><path
         style="fill:#e0aa66;stroke:none"
         d="m 111.49245,188.75169 0.26458,0.26458 z"
         id="path365" /><path
         style="fill:#e5c0a3;stroke:none"
         d="m 94.294529,188.75169 0.264583,0.26458 -0.264583,-0.26458 m 16.404171,0 0.26458,0.26458 z"
         id="path364" /><path
         style="fill:#949fbf;stroke:none"
         d="m 118.10703,188.48711 0.26458,0.26458 z"
         id="path363" /><path
         style="fill:#e5c0a3;stroke:none"
         d="m 117.84245,188.48711 0.26458,0.26458 z"
         id="path362" /><path
         style="fill:#e0aa66;stroke:none"
         d="m 110.96328,188.48711 0.26458,0.26458 z"
         id="path361" /><path
         style="fill:#949fbf;stroke:none"
         d="m 118.90078,188.22252 0.26458,0.26459 -0.26458,-0.26459 m -29.633334,0.26459 0.264583,0.26458 -0.264583,-0.26458 m 21.431254,0 0.26458,0.26458 z"
         id="path360" /><path
         style="fill:#e5c0a3;stroke:none"
         d="m 89.267446,188.22252 0.264583,0.26459 -0.264583,-0.26459 m 21.166664,0 0.26459,0.26459 z"
         id="path359" /><path
         style="fill:#949fbf;stroke:none"
         d="m 119.87092,188.04614 0.17639,0.0882 -0.17639,-0.0882 m 1.41111,-0.0882 0.79375,0.79375 z"
         id="path358" /><path
         style="fill:#987a79;stroke:none"
         d="m 113.43272,188.13432 0.0882,0.1764 z"
         id="path357" /><path
         style="fill:#e0aa66;stroke:none"
         d="m 92.618835,187.78155 0.176388,0.0882 -0.176388,-0.0882 m 17.815275,0.17639 0.26459,0.26458 z"
         id="path356" /><path
         style="fill:#987a79;stroke:none"
         d="m 92.177862,187.69336 0.264584,0.26458 z"
         id="path355" /><path
         style="fill:#e0aa66;stroke:none"
         d="m 113.43272,187.60516 0.0882,0.17639 z"
         id="path353" /><path
         style="fill:#987a79;stroke:none"
         d="m 91.648696,187.42877 0.264583,0.26459 -0.264583,-0.26459 m 1.5875,0 0.264583,0.26459 z"
         id="path352" /><path
         style="fill:#e5c0a3;stroke:none"
         d="m 89.532029,187.42877 0.264583,0.26459 z"
         id="path351" /><path
         style="fill:#6076b5;stroke:none"
         d="m 113.60911,187.16419 c -0.19754,1.75755 -1.0658,1.96759 -2.64583,1.5875 0.19647,1.31075 0.87175,3.82214 2.17301,4.46586 1.74429,0.86288 6.37472,-1.91219 7.86564,-2.82446 0.74784,-0.4576 1.32618,-1.29385 0.45934,-2.00725 -1.14299,-0.94067 -3.27502,0.39471 -4.67614,0.0239 -1.22719,-0.32479 -1.82365,-1.20073 -3.17602,-1.24554 z"
         id="path350" /><path
         style="fill:#987a79;stroke:none"
         d="m 93.500779,187.16419 0.264583,0.26458 z"
         id="path349" /><path
         style="fill:#e0aa66;stroke:none"
         d="m 91.648696,187.16419 0.264583,0.26458 z"
         id="path348" /><path
         style="fill:#949fbf;stroke:none"
         d="m 89.796612,187.16419 0.264584,0.26458 z"
         id="path347" /><path
         style="fill:#e5c0a3;stroke:none"
         d="m 113.34453,186.89961 0.26458,0.26458 z"
         id="path346" /><path
         style="fill:#f6a602;stroke:none"
         d="m 110.43411,187.16419 c -0.36925,3.1084 3.96291,2.01823 3.33124,-0.59372 z"
         id="path345"
         sodipodi:nodetypes="ccc" /><path
         style="fill:#e0aa66;stroke:none"
         d="m 112.55078,186.89961 0.26458,0.26458 z"
         id="path344" /><path
         style="fill:#987a79;stroke:none"
         d="m 110.43411,186.89961 v 0.26458 h 2.11667 z"
         id="path343" /><path
         style="fill:#e5c0a3;stroke:none"
         d="m 110.08133,186.9878 0.17639,0.0882 z"
         id="path342" /><path
         style="fill:#e5c0a3;stroke:none"
         d="m 94.823696,186.89961 0.264583,0.26458 z"
         id="path340" /><path
         style="fill:#949fbf;stroke:none"
         d="m 94.294529,186.89961 v 1.85208 h 0.264583 z"
         id="path339" /><path
         style="fill:#e5c0a3;stroke:none"
         d="m 89.796612,186.89961 0.264584,0.26458 z"
         id="path338" /><path
         style="fill:#e5c0a3;stroke:none"
         d="m 108.31745,186.63502 0.26458,0.26459 z"
         id="path336" /><path
         style="fill:#987a79;stroke:none"
         d="m 96.411196,186.63502 0.264583,0.26459 z"
         id="path335" /><path
         style="fill:#e5c0a3;stroke:none"
         d="m 114.40286,186.37044 0.26459,0.26458 z"
         id="path334" /><path
         style="fill:#987a79;stroke:none"
         d="m 114.13828,186.37044 0.26458,0.26458 z"
         id="path333" /><path
         style="fill:#949fbf;stroke:none"
         d="m 107.5237,186.37044 0.26458,0.26458 z"
         id="path332" /><path
         style="fill:#e5c0a3;stroke:none"
         d="m 96.940363,186.37044 0.264583,0.26458 -0.264583,-0.26458 m 10.318747,0 0.26459,0.26458 z"
         id="path331" /><path
         style="fill:#e0aa66;stroke:none"
         d="m 93.500779,186.37044 v 0.79375 h 0.264583 z"
         id="path330" /><path
         style="fill:#e5c0a3;stroke:none"
         d="m 90.061196,186.37044 0.264583,0.26458 z"
         id="path329" /><path
         style="fill:#949fbf;stroke:none"
         d="m 97.204946,186.10586 0.264583,0.26458 -0.264583,-0.26458 m 17.462504,0 0.26458,0.26458 z"
         id="path328" /><path
         style="fill:#987a79;stroke:none"
         d="m 93.236196,186.10586 0.264583,0.26458 z"
         id="path327" /><path
         style="fill:#949fbf;stroke:none"
         d="m 90.325779,186.10586 0.264583,0.26458 z"
         id="path326" /><path
         style="fill:#e5c0a3;stroke:none"
         d="m 97.469529,185.84127 0.264584,0.26459 -0.264584,-0.26459 m 17.727081,0 0.26459,0.26459 z"
         id="path325" /><path
         style="fill:#b15330;stroke:none"
         d="m 92.971612,185.84127 0.264584,0.26459 z"
         id="path324" /><path
         style="fill:#987a79;stroke:none"
         d="m 92.442446,185.57669 0.264583,0.26458 z"
         id="path323" /><path
         style="fill:#e5c0a3;stroke:none"
         d="m 106.81814,185.48849 0.0882,0.1764 z"
         id="path322" /><path
         style="fill:#949fbf;stroke:none"
         d="m 97.734113,185.31211 0.264583,0.26458 z"
         id="path321" /><path
         style="fill:#987a79;stroke:none"
         d="m 92.177862,185.31211 0.264584,0.26458 z"
         id="path320" /><path
         style="fill:#f6a602;stroke:none"
         d="m 91.648696,185.31211 c -0.903158,4.9502 6.334333,1.31074 0,0 z"
         id="path319"
         sodipodi:nodetypes="cc" /><path
         style="fill:#6076b5;stroke:none"
         d="m 97.734113,193.77877 c -0.267633,-1.69251 -1.511123,-1.33948 -2.402482,-2.46434 -1.059218,-1.33669 -1.037102,-3.07921 -1.037102,-4.67941 -1.846714,1.18512 -2.637067,1.15719 -2.645833,-1.32291 -3.234255,1.65753 -2.546098,6.10973 0.04879,8.04631 1.541874,1.15071 4.283347,0.74585 6.036624,0.42035 z"
         id="path318" /><path
         style="fill:#e5c0a3;stroke:none"
         d="m 90.854946,185.31211 -0.529167,0.79375 z"
         id="path317" /><path
         style="fill:#949fbf;stroke:none"
         d="m 106.72995,185.04752 0.26458,0.26459 z"
         id="path316" /><path
         style="fill:#b15330;stroke:none"
         d="m 91.913279,185.04752 0.264583,0.26459 z"
         id="path315" /><path
         style="fill:#e0aa66;stroke:none"
         d="m 91.648696,185.04752 0.264583,0.26459 z"
         id="path314" /><path
         style="fill:#987a79;stroke:none"
         d="m 106.72995,184.78294 0.26458,0.26458 -0.26458,-0.26458 m 8.46666,0 0.26459,0.26458 z"
         id="path313" /><path
         style="fill:#949fbf;stroke:none"
         d="m 115.19661,184.51836 0.26459,0.26458 z"
         id="path312" /><path
         style="fill:#6076b5;stroke:none"
         d="m 97.998696,184.51836 0.264583,0.26458 -0.264583,-0.26458 m 8.731254,0 0.26458,0.26458 z"
         id="path311" /><path
         style="fill:#e5c0a3;stroke:none"
         d="m 115.19661,184.25377 0.26459,0.26459 z"
         id="path309" /><path
         style="fill:#949fbf;stroke:none"
         d="m 98.527863,183.72461 0.264583,0.26458 -0.264583,-0.26458 m 16.404167,0 0.26458,0.26458 z"
         id="path308" /><path
         style="fill:#e5c0a3;stroke:none"
         d="m 106.46536,183.46002 0.26459,0.26459 z"
         id="path307" /><path
         style="fill:#6076b5;stroke:none"
         d="m 90.325779,183.46002 0.529167,0.52917 z"
         id="path306" /><path
         style="fill:#e5c0a3;stroke:none"
         d="m 114.66745,183.19544 0.26458,0.26458 z"
         id="path305" /><path
         style="fill:#282633;fill-opacity:1;stroke:none"
         d="m 107.25911,183.72461 c 6.1e-4,0.78622 -0.16145,1.87041 0.42423,2.49659 2.0693,2.2124 8.73142,0.62183 6.70537,-3.41602 z"
         id="path304"
         sodipodi:nodetypes="cscc" /><path
         style="fill:#949fbf;stroke:none"
         d="m 106.46536,183.19544 0.26459,0.26458 z"
         id="path303" /><path
         style="fill:#987a79;stroke:none"
         d="m 90.14939,183.10724 0.08819,0.1764 -0.08819,-0.1764 m 24.25347,-0.17638 0.26459,0.26458 -0.26459,-0.26458 m -15.610414,0.26458 0.264583,0.26458 z"
         id="path302" /><path
         style="fill:#949fbf;stroke:none"
         d="m 114.40286,182.66627 0.26459,0.26459 z"
         id="path301" /><path
         style="fill:#987a79;stroke:none"
         d="m 106.55356,182.84266 0.0882,0.17639 z"
         id="path300" /><path
         style="fill:#6076b5;stroke:none"
         d="m 99.057029,182.66627 0.264584,0.26459 z"
         id="path299" /><path
         style="fill:#e5c0a3;stroke:none"
         d="m 99.321613,182.40169 0.264583,0.26458 z"
         id="path298" /><path
         style="fill:#987a79;stroke:none"
         d="m 90.325779,182.13711 0.264583,0.26458 z"
         id="path297" /><path
         style="fill:#6076b5;stroke:none"
         d="m 114.13828,181.87252 0.26458,0.26459 z"
         id="path296" /><path
         style="fill:#987a79;stroke:none"
         d="m 114.13828,181.60794 0.26458,0.26458 -0.26458,-0.26458 m -14.552084,0.26458 0.264583,0.26459 z"
         id="path295" /><path
         style="fill:#e5c0a3;stroke:none"
         d="m 106.20078,181.60794 0.26458,0.26458 z"
         id="path294" /><path
         style="fill:#6076b5;stroke:none"
         d="m 90.590362,181.60794 0.264584,0.26458 z"
         id="path293" /><path
         style="fill:#987a79;stroke:none"
         d="m 99.850779,181.34336 0.264581,0.26458 z"
         id="path292" /><path
         style="fill:#e5c0a3;stroke:none"
         d="m 90.590362,181.34336 0.264584,0.26458 z"
         id="path291" /><path
         style="fill:#949fbf;stroke:none"
         d="m 106.28897,181.25516 0.0882,0.17639 -0.0882,-0.17639 m 7.9375,0 0.0882,0.17639 z"
         id="path290" /><path
         style="fill:#987a79;stroke:none"
         d="m 100.11536,180.81419 0.26459,0.26458 -0.26459,-0.26458 m 6.08542,0 0.26458,0.26458 z"
         id="path289" /><path
         style="fill:#6076b5;stroke:none"
         d="m 106.20078,180.54961 0.26458,0.26458 -0.26458,-0.26458 m -15.345834,0.26458 0.264583,0.26458 z"
         id="path288" /><path
         style="fill:#e5c0a3;stroke:none"
         d="m 90.854946,180.54961 0.264583,0.26458 z"
         id="path287" /><path
         style="fill:#6076b5;stroke:none"
         d="m 91.119529,180.28502 0.264583,0.26459 -0.264583,-0.26459 m 22.754171,0 0.26458,0.26459 z"
         id="path286" /><path
         style="fill:#987a79;stroke:none"
         d="m 113.8737,180.02044 0.26458,0.26458 z"
         id="path285" /><path
         style="fill:#e5c0a3;stroke:none"
         d="m 91.119529,180.02044 0.264583,0.26458 -0.264583,-0.26458 m 9.525001,0 0.26458,0.26458 z"
         id="path284" /><path
         style="fill:#949fbf;stroke:none"
         d="m 113.8737,179.75586 0.26458,0.26458 z"
         id="path283" /><path
         style="fill:#e5c0a3;stroke:none"
         d="m 113.8737,179.49127 0.26458,0.26459 -0.26458,-0.26459 m -7.9375,0.26459 0.26458,0.26458 z"
         id="path282" /><path
         style="fill:#949fbf;stroke:none"
         d="m 100.90911,179.49127 0.26459,0.26459 z"
         id="path281" /><path
         style="fill:#987a79;stroke:none"
         d="m 91.384112,179.49127 0.264584,0.26459 z"
         id="path280" /><path
         style="fill:#949fbf;stroke:none"
         d="m 106.02439,179.40307 0.0882,0.1764 z"
         id="path279" /><path
         style="fill:#987a79;stroke:none"
         d="m 101.1737,178.96211 0.26458,0.26458 -0.26458,-0.26458 m 4.7625,0 0.26458,0.26458 z"
         id="path278" /><path
         style="fill:#6076b5;stroke:none"
         d="m 105.9362,178.69752 0.26458,0.26459 -0.26458,-0.26459 m 7.67291,0 0.26459,0.26459 z"
         id="path277" /><path
         style="fill:#987a79;stroke:none"
         d="m 101.43828,178.43294 0.26458,0.26458 -0.26458,-0.26458 m 12.17083,0 0.26459,0.26458 -0.26459,-0.26458 m -21.960414,0.26458 0.264583,0.26459 z"
         id="path276" /><path
         style="fill:#949fbf;stroke:none"
         d="m 113.60911,178.16836 0.26459,0.26458 z"
         id="path275" /><path
         style="fill:#987a79;stroke:none"
         d="m 91.913279,177.90377 0.264583,0.26459 -0.264583,-0.26459 m 9.789581,0 0.26459,0.26459 z"
         id="path274" /><path
         style="fill:#e5c0a3;stroke:none"
         d="m 105.75981,177.81557 0.0882,0.1764 z"
         id="path273" /><path
         style="fill:#6076b5;stroke:none"
         d="m 113.34453,177.37461 0.26458,0.26458 z"
         id="path272" /><path
         style="fill:#949fbf;stroke:none"
         d="m 105.67161,177.37461 0.26459,0.26458 z"
         id="path271" /><path
         style="fill:#987a79;stroke:none"
         d="m 92.177862,177.11002 0.264584,0.26459 -0.264584,-0.26459 m 13.493748,0 0.26459,0.26459 -0.26459,-0.26459 m 7.67292,0 0.26458,0.26459 -0.26458,-0.26459 m -11.37708,0.26459 0.26458,0.26458 z"
         id="path270" /><path
         style="fill:#6076b5;stroke:none"
         d="m 105.67161,176.84544 0.26459,0.26458 z"
         id="path269" /><path
         style="fill:#987a79;stroke:none"
         d="m 102.23203,176.84544 0.26458,0.26458 z"
         id="path268" /><path
         style="fill:#949fbf;stroke:none"
         d="m 113.43272,176.75724 0.0882,0.1764 z"
         id="path267" /><path
         style="fill:#987a79;stroke:none"
         d="m 92.442446,176.31627 0.264583,0.26459 -0.264583,-0.26459 m 10.054164,0 0.26459,0.26459 z"
         id="path266" /><path
         style="fill:#6076b5;stroke:none"
         d="m 113.07995,175.78711 0.26458,0.26458 z"
         id="path265" /><path
         style="fill:#e5c0a3;stroke:none"
         d="m 105.40703,175.78711 0.26458,0.26458 z"
         id="path264" /><path
         style="fill:#987a79;stroke:none"
         d="m 113.07995,175.52252 0.26458,0.26459 -0.26458,-0.26459 m -10.31875,0.26459 0.26458,0.26458 z"
         id="path263" /><path
         style="fill:#949fbf;stroke:none"
         d="m 105.40703,175.52252 0.26458,0.26459 z"
         id="path262" /><path
         style="fill:#987a79;stroke:none"
         d="m 92.707029,175.52252 0.264583,0.26459 z"
         id="path261" /><path
         style="fill:#949fbf;stroke:none"
         d="m 103.02578,175.25794 0.26458,0.26458 -0.26458,-0.26458 m 10.05417,0 0.26458,0.26458 z"
         id="path260" /><path
         style="fill:#987a79;stroke:none"
         d="m 92.971612,174.72877 0.264584,0.26459 -0.264584,-0.26459 m 12.523608,0.44097 0.0882,0.1764 z"
         id="path259" /><path
         style="fill:#6076b5;stroke:none"
         d="m 112.81536,174.46419 0.26459,0.26458 z"
         id="path258" /><path
         style="fill:#987a79;stroke:none"
         d="m 112.81536,174.19961 0.26459,0.26458 -0.26459,-0.26458 m -9.525,0.26458 0.26459,0.26458 z"
         id="path257" /><path
         style="fill:#949fbf;stroke:none"
         d="m 112.81536,173.93502 0.26459,0.26459 z"
         id="path256" /><path
         style="fill:#e5c0a3;stroke:none"
         d="m 105.14245,173.93502 0.26458,0.26459 z"
         id="path255" /><path
         style="fill:#987a79;stroke:none"
         d="m 93.236196,173.93502 0.264583,0.26459 -0.264583,-0.26459 m 10.318754,0 0.26458,0.26459 z"
         id="path254" /><path
         style="fill:#e5c0a3;stroke:none"
         d="m 112.81536,173.67044 0.26459,0.26458 z"
         id="path253" /><path
         style="fill:#949fbf;stroke:none"
         d="m 103.81953,173.40586 0.26458,0.26458 -0.26458,-0.26458 m 1.32292,0.26458 0.26458,0.26458 z"
         id="path252" /><path
         style="fill:#987a79;stroke:none"
         d="m 112.55078,172.87669 0.26458,0.26458 -0.26458,-0.26458 m -7.32014,0.44097 0.0882,0.17639 -0.0882,-0.17639 m -11.729861,0.0882 0.264583,0.26458 z"
         id="path251" /><path
         style="fill:#6076b5;stroke:none"
         d="m 105.14245,172.87669 0.26458,0.26458 z"
         id="path250" /><path
         style="fill:#949fbf;stroke:none"
         d="m 112.55078,172.61211 0.26458,0.26458 z"
         id="path249" /><path
         style="fill:#987a79;stroke:none"
         d="m 93.765362,172.61211 0.264584,0.26458 -0.264584,-0.26458 m 10.318748,0 0.26459,0.26458 z"
         id="path248" /><path
         style="fill:#e5c0a3;stroke:none"
         d="m 104.87786,172.08294 0.26459,0.26458 -0.26459,-0.26458 m 7.67292,0.26458 0.26458,0.26459 z"
         id="path247" /><path
         style="fill:#949fbf;stroke:none"
         d="m 104.3487,172.08294 0.26458,0.26458 z"
         id="path246" /><path
         style="fill:#987a79;stroke:none"
         d="m 112.2862,171.55377 0.26458,0.26459 -0.26458,-0.26459 m -18.256254,0.52917 0.264583,0.26458 z"
         id="path245" /><path
         style="fill:#949fbf;stroke:none"
         d="m 104.96606,171.73016 0.0882,0.17639 z"
         id="path244" /><path
         style="fill:#987a79;stroke:none"
         d="m 104.78967,171.37739 0.17639,0.0882 -0.17639,-0.0882 m -10.495141,0.17638 0.264583,0.26459 z"
         id="path243" /><path
         style="fill:#949fbf;stroke:none"
         d="m 104.61328,171.02461 0.26458,0.26458 -0.26458,-0.26458 m 7.76111,0.17638 0.0882,0.1764 z"
         id="path242" /><path
         style="fill:#6076b5;stroke:none"
         d="m 94.559112,171.02461 0.264584,0.26458 z"
         id="path241" /><path
         style="fill:#987a79;stroke:none"
         d="m 104.61328,170.76002 0.26458,0.26459 z"
         id="path240" /><path
         style="fill:#6076b5;stroke:none"
         d="m 112.02161,170.23086 0.26459,0.26458 z"
         id="path239" /><path
         style="fill:#949fbf;stroke:none"
         d="m 112.02161,169.96627 0.26459,0.26459 z"
         id="path238" /><path
         style="fill:#e5c0a3;stroke:none"
         d="m 112.02161,169.70169 0.26459,0.26458 z"
         id="path237" /><path
         style="fill:#987a79;stroke:none"
         d="m 95.352863,169.43711 0.264583,0.26458 z"
         id="path236" /><path
         style="fill:#6076b5;stroke:none"
         d="m 111.75703,169.17252 0.26458,0.26459 z"
         id="path235" /><path
         style="fill:#987a79;stroke:none"
         d="m 95.617446,168.90794 0.264583,0.26458 -0.264583,-0.26458 m 16.139584,0 0.26458,0.26458 z"
         id="path234" /><path
         style="fill:#949fbf;stroke:none"
         d="m 111.75703,168.64336 0.26458,0.26458 z"
         id="path233" /><path
         style="fill:#987a79;stroke:none"
         d="m 96.146613,168.11419 0.264583,0.26458 z"
         id="path232" /><path
         style="fill:#6076b5;stroke:none"
         d="m 111.49245,167.84961 0.26458,0.26458 z"
         id="path231" /><path
         style="fill:#987a79;stroke:none"
         d="m 111.49245,167.58502 0.26458,0.26459 z"
         id="path230" /><path
         style="fill:#e5c0a3;stroke:none"
         d="m 96.411196,167.58502 0.264583,0.26459 z"
         id="path229" /><path
         style="fill:#949fbf;stroke:none"
         d="m 111.49245,167.32044 0.26458,0.26458 z"
         id="path228" /><path
         style="fill:#987a79;stroke:none"
         d="m 111.22786,166.52669 0.26459,0.26458 -0.26459,-0.26458 m -14.552081,0.79375 0.264584,0.26458 z"
         id="path227" /><path
         style="fill:#e5c0a3;stroke:none"
         d="m 97.204946,166.52669 0.264583,0.26458 z"
         id="path226" /><path
         style="fill:#949fbf;stroke:none"
         d="m 111.22786,166.26211 0.26459,0.26458 z"
         id="path225" /><path
         style="fill:#6076b5;stroke:none"
         d="m 97.469529,166.26211 0.264584,0.26458 z"
         id="path224" /><path
         style="fill:#987a79;stroke:none"
         d="m 97.734113,165.73294 0.264583,0.26458 z"
         id="path223" /><path
         style="fill:#6076b5;stroke:none"
         d="m 110.96328,165.46836 0.26458,0.26458 z"
         id="path222" /><path
         style="fill:#949fbf;stroke:none"
         d="m 110.96328,165.20377 0.26458,0.26459 z"
         id="path221" /><path
         style="fill:#e5c0a3;stroke:none"
         d="m 110.96328,164.93919 0.26458,0.26458 z"
         id="path220" /><path
         style="fill:#949fbf;stroke:none"
         d="m 97.469529,164.93919 0.264584,0.26458 z"
         id="path219" /><path
         style="fill:#6076b5;stroke:none"
         d="m 110.6987,164.41002 0.26458,0.26459 -0.26458,-0.26459 m -13.229171,0.26459 0.264584,0.26458 z"
         id="path218" /><path
         style="fill:#987a79;stroke:none"
         d="m 110.6987,164.14544 0.26458,0.26458 z"
         id="path217" /><path
         style="fill:#949fbf;stroke:none"
         d="m 97.204946,163.88086 0.264583,0.26458 -0.264583,-0.26458 m 13.493754,0 0.26458,0.26458 z"
         id="path216" /><path
         style="fill:#6076b5;stroke:none"
         d="m 110.43411,163.35169 0.26459,0.26458 -0.26459,-0.26458 m -13.229164,0.26458 0.264583,0.26459 z"
         id="path215" /><path
         style="fill:#987a79;stroke:none"
         d="m 110.43411,163.08711 0.26459,0.26458 z"
         id="path214" /><path
         style="fill:#949fbf;stroke:none"
         d="m 110.43411,162.82252 0.26459,0.26459 z"
         id="path213" /><path
         style="fill:#6076b5;stroke:none"
         d="m 110.16953,162.29336 0.26458,0.26458 z"
         id="path212" /><path
         style="fill:#e5c0a3;stroke:none"
         d="m 96.940363,162.29336 0.264583,0.26458 z"
         id="path211" /><path
         style="fill:#987a79;stroke:none"
         d="m 110.16953,162.02877 0.26458,0.26459 z"
         id="path210" /><path
         style="fill:#949fbf;stroke:none"
         d="m 110.16953,161.76419 0.26458,0.26458 -0.26458,-0.26458 m -13.229167,0.26458 0.264583,0.26459 z"
         id="path209" /><path
         style="fill:#987a79;stroke:none"
         d="m 96.940363,161.76419 0.264583,0.26458 z"
         id="path208" /><path
         style="fill:#6076b5;stroke:none"
         d="m 97.028557,161.41141 0.08819,0.17639 -0.08819,-0.17639 m 12.876393,-0.17639 0.26458,0.26459 z"
         id="path207" /><path
         style="fill:#949fbf;stroke:none"
         d="m 109.90495,160.97044 0.26458,0.26458 z"
         id="path206" /><path
         style="fill:#e5c0a3;stroke:none"
         d="m 109.90495,160.70586 0.26458,0.26458 z"
         id="path205" /><path
         style="fill:#6076b5;stroke:none"
         d="m 109.64036,160.17669 0.26459,0.26458 z"
         id="path204" /><path
         style="fill:#949fbf;stroke:none"
         d="m 109.64036,159.91211 0.26459,0.26458 z"
         id="path203" /><path
         style="fill:#987a79;stroke:none"
         d="m 109.37578,159.11836 0.26458,0.26458 z"
         id="path202" /><path
         style="fill:#949fbf;stroke:none"
         d="m 109.37578,158.85377 0.26458,0.26459 z"
         id="path201" /><path
         style="fill:#6076b5;stroke:none"
         d="m 109.1112,158.32461 0.26458,0.26458 z"
         id="path200" /><path
         style="fill:#e5c0a3;stroke:none"
         d="m 96.675779,158.32461 v 1.05833 h 0.264584 z"
         id="path199" /><path
         style="fill:#e0aa66;stroke:none"
         d="m 92.707029,158.32461 0.264583,0.26458 z"
         id="path198" /><path
         style="fill:#949fbf;stroke:none"
         d="m 109.1112,158.06002 0.26458,0.26459 z"
         id="path197" /><path
         style="fill:#e5c0a3;stroke:none"
         d="m 92.442446,158.06002 0.264583,0.26459 z"
         id="path196" /><path
         style="fill:#987a79;stroke:none"
         d="m 93.236196,157.79544 0.264583,0.26458 z"
         id="path195" /><path
         style="fill:#e0aa66;stroke:none"
         d="m 91.648696,157.53086 0.264583,0.26458 -0.264583,-0.26458 m 1.058333,0 0.264583,0.26458 -0.264583,-0.26458 m 0.79375,0 0.264583,0.26458 z"
         id="path194" /><path
         style="fill:#e5c0a3;stroke:none"
         d="m 91.119529,157.53086 0.264583,0.26458 z"
         id="path193" /><path
         style="fill:#987a79;stroke:none"
         d="m 91.913279,157.26627 0.264583,0.26459 -0.264583,-0.26459 m 16.933331,0 0.26459,0.26459 z"
         id="path192" /><path
         style="fill:#e5c0a3;stroke:none"
         d="m 108.84661,157.00169 0.26459,0.26458 z"
         id="path191" /><path
         style="fill:#987a79;stroke:none"
         d="m 93.765362,157.00169 0.264584,0.26458 z"
         id="path190" /><path
         style="fill:#e5c0a3;stroke:none"
         d="m 94.029946,156.73711 0.264583,0.26458 -0.264583,-0.26458 m -1.058334,0.26458 0.264584,0.26458 z"
         id="path189" /><path
         style="fill:#e0aa66;stroke:none"
         d="m 93.236196,156.73711 0.264583,0.26458 z"
         id="path188" /><path
         style="fill:#e5c0a3;stroke:none"
         d="m 91.119529,156.73711 0.264583,0.26458 z"
         id="path187" /><path
         style="fill:#e0aa66;stroke:none"
         d="m 90.854946,156.73711 0.264583,0.26458 z"
         id="path186" /><path
         style="fill:#987a79;stroke:none"
         d="m 108.58203,156.47252 0.26458,0.26459 z"
         id="path185" /><path
         style="fill:#e5c0a3;stroke:none"
         d="m 92.971612,156.47252 0.264584,0.26459 z"
         id="path184" /><path
         style="fill:#987a79;stroke:none"
         d="m 92.707029,156.47252 0.264583,0.26459 z"
         id="path183" /><path
         style="fill:#e0aa66;stroke:none"
         d="m 91.913279,156.47252 -0.264583,0.26459 z"
         id="path182" /><path
         style="fill:#e5c0a3;stroke:none"
         d="m 90.590362,156.47252 0.264584,0.26459 z"
         id="path181" /><path
         style="fill:#949fbf;stroke:none"
         d="m 96.675779,156.20794 v 2.11667 h 0.264584 l -0.264584,-2.11667 m 11.906251,0 0.26458,0.26458 z"
         id="path180" /><path
         style="fill:#e5c0a3;stroke:none"
         d="m 94.294529,156.20794 0.264583,0.26458 z"
         id="path179" /><path
         style="fill:#e0aa66;stroke:none"
         d="m 92.177862,155.94336 0.264584,0.26458 -0.264584,-0.26458 m -0.529166,0.26458 -0.529167,1.32292 1.058333,-1.05834 z"
         id="path178" /><path
         style="fill:#e5c0a3;stroke:none"
         d="m 91.913279,155.94336 0.529167,0.52916 z"
         id="path177" /><path
         style="fill:#987a79;stroke:none"
         d="m 91.119529,155.94336 -0.264583,0.52916 z"
         id="path176" /><path
         style="fill:#6076b5;stroke:none"
         d="m 108.31745,155.67877 0.26458,0.26459 z"
         id="path175" /><path
         style="fill:#e0aa66;stroke:none"
         d="m 119.16536,155.41419 0.26459,0.26458 -0.26459,-0.26458 m -27.781248,0.26458 0.264584,0.26459 z"
         id="path174" /><path
         style="fill:#e5c0a3;stroke:none"
         d="m 118.6362,155.41419 0.26458,0.26458 z"
         id="path173" /><path
         style="fill:#949fbf;stroke:none"
         d="m 108.31745,155.41419 0.26458,0.26458 z"
         id="path172" /><path
         style="fill:#987a79;stroke:none"
         d="m 91.648696,155.41419 0.264583,0.26458 z"
         id="path171" /><path
         style="fill:#e5c0a3;stroke:none"
         d="m 119.42995,155.14961 0.26458,0.26458 -0.26458,-0.26458 m -28.575004,0.26458 0.264583,0.26458 z"
         id="path170" /><path
         style="fill:#987a79;stroke:none"
         d="m 118.37161,155.14961 0.26459,0.26458 z"
         id="path169" /><path
         style="fill:#b15330;stroke:none"
         d="m 104.52508,155.2378 0.17639,0.0882 z"
         id="path168" /><path
         style="fill:#987a79;stroke:none"
         d="m 100.37995,155.14961 v 0.26458 h 3.96875 z"
         id="path167" /><path
         style="fill:#b15330;stroke:none"
         d="m 99.586196,155.14961 v 0.26458 h 0.793754 z"
         id="path166" /><path
         style="fill:#987a79;stroke:none"
         d="m 90.590362,155.14961 0.264584,0.26458 z"
         id="path165" /><path
         style="fill:#e0aa66;stroke:none"
         d="m 119.42995,154.88502 0.26458,0.26459 z"
         id="path164" /><path
         style="fill:#e5c0a3;stroke:none"
         d="m 118.10703,154.88502 0.26458,0.26459 z"
         id="path163" /><path
         style="fill:#6076b5;stroke:none"
         d="m 108.05286,154.88502 0.26459,0.26459 z"
         id="path162" /><path
         style="fill:#b15330;stroke:none"
         d="m 106.46536,154.88502 0.26459,0.26459 z"
         id="path161" /><path
         style="fill:#987a79;stroke:none"
         d="m 98.175085,154.97322 0.176388,0.0882 -0.176388,-0.0882 m 7.937495,0 0.17639,0.0882 z"
         id="path160" /><path
         style="fill:#b15330;stroke:none"
         d="m 97.645918,154.97322 0.176389,0.0882 z"
         id="path159" /><path
         style="fill:#282633;stroke:none"
         d="m 95.5377,153.98224 c 0,2.6709 1.427423,6.18356 1.687253,8.84028 0.0981,1.0031 0.741393,2.30608 0.392996,3.28729 -0.51587,1.45286 -1.83539,2.72661 -2.537632,4.12105 -1.367738,2.71592 -2.293485,5.59196 -3.255232,8.46666 -0.423321,1.26532 -1.614341,3.14916 -1.335779,4.49772 0.472475,2.2873 4.633232,4.82095 6.656436,3.06046 1.055547,-0.91848 1.639981,-2.65206 2.328986,-3.85401 1.916062,-3.34252 4.936502,-7.70494 5.138552,-11.64167 h 0.26458 l 1.60077,11.1125 1.24337,4.28005 0.42334,-0.77809 6.25752,-1.91446 c -0.30063,-7.00182 -2.44057,-14.39087 -4.13452,-21.16666 -0.42307,-1.6923 -0.30575,-6.85908 -1.83398,-7.8796 -0.9165,-0.61202 -3.3405,-0.28094 -4.36028,-0.1835 -2.37027,0.22647 -6.206554,0.18474 -8.53638,-0.24802 z"
         id="path158"
         sodipodi:nodetypes="csssssssccccccsssc" /><path
         style="fill:#e5c0a3;stroke:none"
         d="m 107.70008,154.70863 0.17639,0.0882 -0.17639,-0.0882 m -17.109718,0.17639 0.264584,0.26459 z"
         id="path156" /><path
         style="fill:#e0aa66;stroke:none"
         d="m 96.146613,154.62044 0.264583,0.26458 -0.264583,-0.26458 m 11.112497,0 0.26459,0.26458 z"
         id="path155" /><path
         style="fill:#e5c0a3;stroke:none"
         d="m 95.793835,154.70863 0.176388,0.0882 z"
         id="path154" /><path
         style="fill:#e0aa66;stroke:none"
         d="m 90.854946,154.62044 0.264583,0.26458 z"
         id="path153" /><path
         style="fill:#987a79;stroke:none"
         d="m 119.51814,154.53225 0.0882,0.17638 z"
         id="path152" /><path
         style="fill:#e0aa66;stroke:none"
         d="m 119.42995,154.09127 0.26458,0.26459 -0.26458,-0.26459 m -1.23473,0.44098 0.0882,0.17638 z"
         id="path151" /><path
         style="fill:#987a79;stroke:none"
         d="m 91.384112,154.09127 -0.264583,0.52917 z"
         id="path150" /><path
         style="fill:#e0aa66;stroke:none"
         d="m 117.84245,153.82669 0.26458,0.26458 z"
         id="path149" /><path
         style="fill:#e5c0a3;stroke:none"
         d="m 117.0487,153.82669 -0.26459,0.52917 h 0.52917 z"
         id="path148" /><path
         style="fill:#e0aa66;stroke:none"
         d="m 95.441057,154.00308 0.08819,0.17639 z"
         id="path147" /><path
         style="fill:#e0aa66;stroke:none"
         d="m 116.25495,153.56211 0.52916,0.52916 z"
         id="path145" /><path
         style="fill:#e5c0a3;stroke:none"
         d="m 91.648696,153.56211 0.264583,0.26458 z"
         id="path144" /><path
         style="fill:#e0aa66;stroke:none"
         d="m 117.31328,153.29752 0.26458,0.26459 z"
         id="path143" /><path
         style="fill:#e5c0a3;stroke:none"
         d="m 117.0487,153.29752 0.26458,0.26459 z"
         id="path142" /><path
         style="fill:#e0aa66;stroke:none"
         d="m 118.6362,153.03294 0.79375,0.79375 -0.79375,-0.79375 m -26.722921,0.26458 0.264583,0.26459 z"
         id="path141" /><path
         style="fill:#987a79;stroke:none"
         d="m 92.177862,153.03294 0.264584,0.26458 -0.264584,-0.26458 m 23.812498,0 0.26459,0.26458 z"
         id="path140" /><path
         style="fill:#e5c0a3;stroke:none"
         d="m 118.37161,152.76836 0.26459,0.26458 z"
         id="path139" /><path
         style="fill:#987a79;stroke:none"
         d="m 94.294529,152.76836 0.264583,0.26458 z"
         id="path138" /><path
         style="fill:#e0aa66;stroke:none"
         d="m 117.84245,152.50377 0.26458,0.26459 z"
         id="path137" /><path
         style="fill:#e0aa66;stroke:none"
         d="m 94.294529,152.50377 0.264583,0.26459 z"
         id="path135" /><path
         style="fill:#e5c0a3;stroke:none"
         d="m 117.57786,152.23919 0.26459,0.26458 z"
         id="path134" /><path
         style="fill:#e0aa66;stroke:none"
         d="m 115.19661,152.23919 0.26459,0.26458 z"
         id="path133" /><path
         style="fill:#e5c0a3;stroke:none"
         d="m 94.382723,152.151 0.08819,0.17638 -0.08819,-0.17638 m 20.284727,-0.17639 0.26458,0.26458 z"
         id="path132" /><path
         style="fill:#e0aa66;stroke:none"
         d="m 114.40286,151.71002 0.26459,0.26459 -0.26459,-0.26459 m 2.38125,0 0.52917,0.52917 z"
         id="path131" /><path
         style="fill:#987a79;stroke:none"
         d="m 92.53064,151.88641 0.08819,0.17639 z"
         id="path130" /><path
         style="fill:#e0aa66;stroke:none"
         d="m 116.51953,151.18086 0.26458,0.26458 z"
         id="path129" /><path
         style="fill:#987a79;stroke:none"
         d="m 94.294529,151.18086 0.264583,0.26458 z"
         id="path128" /><path
         style="fill:#e0aa66;stroke:none"
         d="m 92.53064,151.35725 0.08819,0.17638 z"
         id="path127" /><path
         style="fill:#e5c0a3;stroke:none"
         d="m 94.559112,150.91627 0.264584,0.26459 -0.264584,-0.26459 m 18.785418,0 0.26458,0.26459 z"
         id="path126" /><path
         style="fill:#e0aa66;stroke:none"
         d="m 116.25495,150.65169 0.26458,0.26458 z"
         id="path125" /><path
         style="fill:#e5c0a3;stroke:none"
         d="m 92.53064,150.82808 0.08819,0.17639 z"
         id="path124" /><path
         style="fill:#e0aa66;stroke:none"
         d="m 112.81536,150.38711 0.52917,0.52916 z"
         id="path123" /><path
         style="fill:#e5c0a3;stroke:none"
         d="m 94.823696,150.38711 0.264583,0.26458 z"
         id="path122" /><path
         style="fill:#e0aa66;stroke:none"
         d="m 95.088279,149.59336 0.264584,0.26458 -0.264584,-0.26458 m 20.637501,0 0.26458,0.26458 -0.26458,-0.26458 m -20.02014,0.70555 0.08819,0.17639 -0.08819,-0.17639 m 20.28472,-0.17639 0.26459,0.26459 z"
         id="path121" /><path
         style="fill:#e5c0a3;stroke:none"
         d="m 115.4612,149.06419 0.26458,0.26458 z"
         id="path120" /><path
         style="fill:#987a79;stroke:none"
         d="m 92.795223,149.24058 0.0882,0.17639 z"
         id="path119" /><path
         style="fill:#e5c0a3;stroke:none"
         d="m 95.617446,148.79961 v 1.32291 h 0.264583 z"
         id="path118" /><path
         style="fill:#e0aa66;stroke:none"
         d="m 95.352863,148.79961 0.264583,0.26458 z"
         id="path117" /><path
         style="fill:#e5c0a3;stroke:none"
         d="m 115.19661,148.53502 0.26459,0.26459 z"
         id="path116" /><path
         style="fill:#e0aa66;stroke:none"
         d="m 92.795223,148.71141 0.0882,0.17639 z"
         id="path115" /><path
         style="fill:#987a79;stroke:none"
         d="m 114.93203,148.27044 0.26458,0.26458 z"
         id="path114" /><path
         style="fill:#e5c0a3;stroke:none"
         d="m 92.795223,148.18225 0.0882,0.17638 z"
         id="path113" /><path
         style="fill:#e0aa66;stroke:none"
         d="m 114.66745,147.74127 0.26458,0.26459 z"
         id="path112" /><path
         style="fill:#e5c0a3;stroke:none"
         d="m 109.90495,147.74127 1.32291,1.32292 z"
         id="path111" /><path
         style="fill:#e0aa66;stroke:none"
         d="m 95.970223,146.85933 0.08819,0.17639 -0.08819,-0.17639 m 13.405557,-0.17639 0.26458,0.26458 -0.26458,-0.26458 m 0.26458,0.52917 0.26459,0.26458 -0.26459,-0.26458 m 4.7625,0 0.26459,0.26458 -0.26459,-0.26458 m -18.69722,0.70555 0.08819,0.17639 z"
         id="path110" /><path
         style="fill:#987a79;stroke:none"
         d="m 93.059807,146.85933 0.08819,0.17639 z"
         id="path109" /><path
         style="fill:#e0aa66;stroke:none"
         d="m 113.8737,146.41836 0.26458,0.26458 z"
         id="path108" /><path
         style="fill:#e5c0a3;stroke:none"
         d="m 109.1112,146.15377 0.26458,0.26459 z"
         id="path107" /><path
         style="fill:#e0aa66;stroke:none"
         d="m 109.1112,145.88919 0.26458,0.26458 -0.26458,-0.26458 m -16.051393,0.44097 0.08819,0.17639 z"
         id="path106" /><path
         style="fill:#e5c0a3;stroke:none"
         d="m 92.971612,145.88919 0.264584,0.26458 z"
         id="path105" /><path
         style="fill:#e0aa66;stroke:none"
         d="m 113.34453,145.62461 0.26458,0.26458 z"
         id="path104" /><path
         style="fill:#e5c0a3;stroke:none"
         d="m 108.84661,145.36002 0.26459,0.26459 z"
         id="path103" /><path
         style="fill:#e0aa66;stroke:none"
         d="m 108.84661,145.09544 0.26459,0.26458 -0.26459,-0.26458 m 4.23334,0 0.26458,0.26458 z"
         id="path102" /><path
         style="fill:#987a79;stroke:none"
         d="m 93.236196,145.09544 0.264583,0.26458 z"
         id="path101" /><path
         style="fill:#e0aa66;stroke:none"
         d="m 108.58203,144.30169 0.26458,0.26458 -0.26458,-0.26458 m -15.25764,0.44097 0.0882,0.17639 -0.0882,-0.17639 m 3.175,0 0.08819,0.17639 -0.08819,-0.17639 m 16.31597,-0.17639 0.26459,0.26459 z"
         id="path100" /><path
         style="fill:#e5c0a3;stroke:none"
         d="m 93.236196,144.30169 0.264583,0.26458 -0.264583,-0.26458 m 3.439583,0 0.264584,0.26458 z"
         id="path99" /><path
         style="fill:#987a79;stroke:none"
         d="m 112.55078,144.03711 0.26458,0.26458 z"
         id="path98" /><path
         style="fill:#e5c0a3;stroke:none"
         d="m 108.31745,144.03711 v 7.40833 h 0.26458 z"
         id="path97" /><path
         style="fill:#e0aa66;stroke:none"
         d="m 112.55078,143.77252 0.26458,0.26459 -0.26458,-0.26459 m -15.875001,0.26459 0.264584,0.26458 z"
         id="path96" /><path
         style="fill:#987a79;stroke:none"
         d="m 93.500779,143.50794 0.264583,0.26458 z"
         id="path95" /><path
         style="fill:#e0aa66;stroke:none"
         d="m 93.500779,143.24336 0.264583,0.26458 -0.264583,-0.26458 m 18.785421,0 0.26458,0.26458 z"
         id="path94" /><path
         style="fill:#e5c0a3;stroke:none"
         d="m 93.500779,142.97877 0.264583,0.26459 z"
         id="path93" /><path
         style="fill:#987a79;stroke:none"
         d="m 112.02161,142.71419 0.26459,0.26458 z"
         id="path92" /><path
         style="fill:#e5c0a3;stroke:none"
         d="m 112.02161,142.44961 0.26459,0.26458 z"
         id="path91" /><path
         style="fill:#e0aa66;stroke:none"
         d="m 111.75703,141.92044 0.26458,0.26458 -0.26458,-0.26458 m -17.991668,0.26458 0.264584,0.26459 z"
         id="path90" /><path
         style="fill:#987a79;stroke:none"
         d="m 111.49245,141.39127 0.26458,0.26459 z"
         id="path89" /><path
         style="fill:#e0aa66;stroke:none"
         d="m 94.029946,141.39127 0.264583,0.26459 z"
         id="path88" /><path
         style="fill:#e5c0a3;stroke:none"
         d="m 111.49245,141.12669 0.26458,0.26458 z"
         id="path87" /><path
         style="fill:#e0aa66;stroke:none"
         d="m 111.22786,140.59752 0.26459,0.26459 -0.26459,-0.26459 m -16.933331,0.26459 0.264583,0.26458 z"
         id="path86" /><path
         style="fill:#987a79;stroke:none"
         d="m 110.96328,140.06836 0.26458,0.26458 z"
         id="path85" /><path
         style="fill:#e5c0a3;stroke:none"
         d="m 94.823696,139.53919 0.264583,0.26458 -0.264583,-0.26458 m 16.139584,0.26458 0.26458,0.26459 -0.26458,-0.26459 m -16.404168,0.26459 0.264584,0.26458 z"
         id="path84" /><path
         style="fill:#e0aa66;stroke:none"
         d="m 110.6987,139.27461 0.26458,0.26458 z"
         id="path83" /><path
         style="fill:#e5c0a3;stroke:none"
         d="m 95.088279,139.01002 0.264584,0.26459 z"
         id="path82" /><path
         style="fill:#e0aa66;stroke:none"
         d="m 110.43411,138.74544 0.26459,0.26458 z"
         id="path81" /><path
         style="fill:#987a79;stroke:none"
         d="m 95.352863,138.74544 0.264583,0.26458 z"
         id="path80" /><path
         style="fill:#e5c0a3;stroke:none"
         d="m 110.43411,138.48086 0.26459,0.26458 z"
         id="path79" /><path
         style="fill:#e0aa66;stroke:none"
         d="m 108.31745,137.42252 v 6.61459 h 0.26458 l -0.26458,-6.61459 m 1.5875,0 0.26458,0.26459 -0.26458,-0.26459 m -14.022921,0.26459 0.264584,0.26458 -0.264584,-0.26458 m 14.287501,0.26458 0.26458,0.26458 -0.26458,-0.26458 m -14.552084,0.26458 0.264583,0.26459 z"
         id="path78" /><path
         style="fill:#987a79;stroke:none"
         d="m 108.31745,137.15794 0.26458,0.26458 z"
         id="path77" /><path
         style="fill:#e0aa66;stroke:none"
         d="m 96.146613,137.15794 0.264583,0.26458 z"
         id="path76" /><path
         style="fill:#987a79;stroke:none"
         d="m 109.64036,136.89336 0.26459,0.26458 z"
         id="path75" /><path
         style="fill:#e5c0a3;stroke:none"
         d="m 109.64036,136.62877 0.26459,0.26459 z"
         id="path74" /><path
         style="fill:#e0aa66;stroke:none"
         d="m 96.675779,136.09961 0.264584,0.26458 -0.264584,-0.26458 m 12.964581,0.26458 0.26459,0.26458 -0.26459,-0.26458 m -13.229164,0.26458 0.264583,0.26459 z"
         id="path73" /><path
         style="fill:#e5c0a3;stroke:none"
         d="m 110.43411,135.83502 -0.26458,0.52917 z"
         id="path72" /><path
         style="fill:#e0aa66;stroke:none"
         d="m 96.940363,135.57044 0.264583,0.26458 -0.264583,-0.26458 m 13.229167,0 0.26458,0.26458 z"
         id="path71" /><path
         style="fill:#e5c0a3;stroke:none"
         d="m 110.16953,135.30586 0.26458,0.26458 z"
         id="path70" /><path
         style="fill:#b15330;stroke:none"
         d="m 97.204946,135.30586 -3.31015,7.14375 -1.378242,9.78958 -1.661608,3.175 h 1.058333 l -1.058333,1.32292 1.5875,-0.79375 -1.058334,1.85208 2.116667,-1.05833 -0.79375,1.5875 c 2.853054,-1.73118 1.051287,-4.41607 1.803903,-6.87917 0.618178,-2.02313 1.123907,-5.0407 2.201799,-6.83425 1.523087,-2.53434 3.949889,-4.43045 5.254719,-7.18867 z"
         id="path69" /><path
         style="fill:#f6a602;stroke:none"
         d="m 109.90495,135.04127 0.26458,0.26459 z"
         id="path68" /><path
         style="fill:#e5c0a3;stroke:none"
         d="m 109.90495,134.77669 0.26458,0.26458 -0.26458,-0.26458 m -12.876393,0.44097 0.08819,0.17639 z"
         id="path67" /><path
         style="fill:#e0aa66;stroke:none"
         d="m 109.64036,134.24752 0.26459,0.26459 -0.26459,-0.26459 m -12.435414,0.26459 0.264583,0.26458 z"
         id="path66" /><path
         style="fill:#e5c0a3;stroke:none"
         d="m 97.204946,134.24752 0.264583,0.26459 z"
         id="path65" /><path
         style="fill:#e0aa66;stroke:none"
         d="m 109.37578,133.71836 0.26458,0.26458 z"
         id="path64" /><path
         style="fill:#e5c0a3;stroke:none"
         d="m 109.37578,133.45377 0.26458,0.26459 -0.26458,-0.26459 m -11.906251,0.26459 0.264584,0.26458 z"
         id="path63" /><path
         style="fill:#e0aa66;stroke:none"
         d="m 109.1112,133.18919 0.26458,0.26458 z"
         id="path62" /><path
         style="fill:#e5c0a3;stroke:none"
         d="m 109.1112,132.92461 0.26458,0.26458 -0.26458,-0.26458 m -11.377087,0.26458 0.264583,0.26458 z"
         id="path61" /><path
         style="fill:#f6a602;stroke:none"
         d="m 108.84661,132.66002 0.26459,0.26459 z"
         id="path60" /><path
         style="fill:#e5c0a3;stroke:none"
         d="m 108.84661,132.39544 0.26459,0.26458 -0.26459,-0.26458 m -10.847914,0.26458 0.264583,0.26459 z"
         id="path59" /><path
         style="fill:#b15330;stroke:none"
         d="m 108.4678,132.07658 c 0,4.61823 -1.62668,12.64274 1.43572,15.40011 1.96829,1.77223 4.80826,4.73766 7.14518,6.61458 l 0.26458,-0.79375 1.85208,2.38125 c 0.68715,-2.42148 -1.8334,-3.15381 -2.841,-5.0281 -2.48613,-4.62454 -5.22694,-9.1896 -6.684,-14.28648 l 0.79375,-0.26458 z"
         id="path58"
         sodipodi:nodetypes="csccccccc" /><path
         style="fill:#e5c0a3;stroke:none"
         d="m 98.263279,132.13086 0.264584,0.26458 z"
         id="path57" /><path
         style="fill:#e0aa66;stroke:none"
         d="m 108.58203,131.86627 0.26458,0.26459 z"
         id="path56" /><path
         style="fill:#e5c0a3;stroke:none"
         d="m 99.586196,130.27877 -0.264583,0.52917 0.264583,-0.52917 m 8.466664,0 0.26459,0.26459 -0.26459,-0.26459 m 0.26459,0.52917 0.26458,0.26458 -0.26458,-0.26458 m -9.525004,0.52917 0.264583,0.26458 z"
         id="path55" /><path
         style="fill:#e0aa66;stroke:none"
         d="m 107.5237,129.74961 0.52916,0.52916 z"
         id="path54" /><path
         style="fill:#987a79;stroke:none"
         d="m 107.25911,129.22044 0.26459,0.26458 z"
         id="path53" /><path
         style="fill:#e0aa66;stroke:none"
         d="m 100.64453,129.22044 -0.793751,1.05833 z"
         id="path52" /><path
         style="fill:#e5c0a3;stroke:none"
         d="m 101.1737,128.69127 -0.26459,0.52917 0.26459,-0.52917 m 6.35,0.26459 0.26458,0.26458 z"
         id="path51" /><path
         style="fill:#e0aa66;stroke:none"
         d="m 107.78828,128.42669 0.26458,0.26458 z"
         id="path50" /><path
         style="fill:#e5c0a3;stroke:none"
         d="m 101.96745,128.16211 0.26458,0.26458 -0.26458,-0.26458 m 6.08541,0 0.26459,0.26458 z"
         id="path49" /><path
         style="fill:#e0aa66;stroke:none"
         d="m 102.49661,127.89752 0.26459,0.26459 -0.26459,-0.26459 m 5.55625,0 0.26459,0.26459 z"
         id="path48" /><path
         style="fill:#e5c0a3;stroke:none"
         d="m 102.7612,127.63294 0.26458,0.26458 -0.26458,-0.26458 m 5.73263,0.0882 0.17639,0.0882 z"
         id="path47" /><path
         style="fill:#e0aa66;stroke:none"
         d="m 104.87786,127.36836 0.26459,0.26458 -0.26459,-0.26458 m 4.7625,0 -0.79375,0.26458 v 0.26458 l 1.05834,-0.26458 z"
         id="path46" /><path
         style="fill:#e5c0a3;stroke:none"
         d="m 109.90495,127.10377 0.26458,0.26459 -0.26458,-0.26459 m -6.61459,0.26459 0.26459,0.26458 z"
         id="path45" /><path
         style="fill:#f6a602;stroke:none"
         d="m 97.204946,135.30586 4.762504,2.11666 -5.574016,6.94086 -1.040571,10.25706 c 4.449324,0.56231 8.527977,0.57295 12.964587,0 0,-5.28656 -0.12559,-10.5902 0.004,-15.875 0.0578,-2.36098 0.89211,-5.37919 0.0682,-7.67271 -0.27712,-0.77142 -0.84903,-1.40645 -1.44092,-1.95417 -4.24029,-3.92385 -8.726054,1.90322 -9.743644,6.1873 z"
         id="path44"
         sodipodi:nodetypes="ccccccsscc" /><path
         style="fill:#e0aa66;stroke:none"
         d="m 104.08411,127.10377 0.26459,0.26459 z"
         id="path43" /><path
         style="fill:#e5c0a3;stroke:none"
         d="m 103.81953,127.10377 0.26458,0.26459 z"
         id="path42" /><path
         style="fill:#e0aa66;stroke:none"
         d="m 109.90495,126.83919 0.26458,0.26458 z"
         id="path41" /><path
         style="fill:#e5c0a3;stroke:none"
         d="m 105.40703,126.57461 -0.26458,0.52916 z"
         id="path40" /><path
         style="fill:#e0aa66;stroke:none"
         d="m 105.67161,126.31002 0.26459,0.26459 z"
         id="path39" /><path
         style="fill:#e5c0a3;stroke:none"
         d="m 110.6987,126.04544 -0.52917,0.79375 z"
         id="path38" /><path
         style="fill:#6076b5;stroke:none"
         d="m 110.43411,126.04544 0.26459,0.26458 z"
         id="path37" /><path
         style="fill:#282633;stroke:none"
         d="m 110.08133,126.13364 0.17639,0.0882 z"
         id="path36" /><path
         style="fill:#987a79;stroke:none"
         d="m 105.67161,126.04544 0.26459,0.26458 z"
         id="path35" /><path
         style="fill:#e0aa66;stroke:none"
         d="m 110.43411,125.78086 0.26459,0.26458 z"
         id="path34" /><path
         style="fill:#e5c0a3;stroke:none"
         d="m 110.96328,125.25169 0.26458,0.26458 z"
         id="path33" /><path
         style="fill:#e0aa66;stroke:none"
         d="m 110.6987,125.25169 0.26458,0.26458 z"
         id="path32" /><path
         style="fill:#987a79;stroke:none"
         d="m 111.22786,124.98711 0.26459,0.26458 z"
         id="path31" /><path
         style="fill:#e5c0a3;stroke:none"
         d="m 105.40703,124.98711 0.26458,0.26458 z"
         id="path30" /><path
         style="fill:#e0aa66;stroke:none"
         d="m 105.9362,124.72252 0.26458,0.26459 -0.26458,-0.26459 m 5.29166,0 0.26459,0.26459 z"
         id="path29" /><path
         style="fill:#e5c0a3;stroke:none"
         d="m 104.61328,124.45794 0.52917,0.79375 -0.52917,-0.79375 m 6.61458,0 0.26459,0.26458 z"
         id="path28" /><path
         style="fill:#282633;stroke:none"
         d="m 109.64036,124.19336 0.26459,0.26458 z"
         id="path27" /><path
         style="fill:#e0aa66;stroke:none"
         d="m 110.96328,123.92877 0.26458,0.26459 z"
         id="path26" /><path
         style="fill:#987a79;stroke:none"
         d="m 107.25911,123.66419 0.26459,0.26458 -0.26459,-0.26458 m 0.26459,0.26458 0.26458,0.26459 z"
         id="path25" /><path
         style="fill:#e5c0a3;stroke:none"
         d="m 110.6987,123.39961 0.52916,0.52916 z"
         id="path24" /><path
         style="fill:#987a79;stroke:none"
         d="m 106.72995,123.39961 0.26458,0.26458 -0.26458,-0.26458 m 1.05833,0 0.26458,0.26458 -0.26458,-0.26458 m 2.64583,0 0.26459,0.26458 z"
         id="path23" /><path
         style="fill:#e5c0a3;stroke:none"
         d="m 113.8737,123.13502 0.26458,0.26459 z"
         id="path22" /><path
         style="fill:#949fbf;stroke:none"
         d="m 107.78828,123.13502 0.26458,0.26459 -0.26458,-0.26459 m 4.7625,0 v 0.26459 h 1.32292 z"
         id="path21" /><path
         style="fill:#282633;stroke:none"
         d="m 106.72995,123.13502 v 0.26459 l 1.05833,0.52916 z"
         id="path20" /><path
         style="fill:#b15330;stroke:none"
         d="m 106.20078,123.13502 c -0.61334,1.45353 -1.74862,5.57855 0.76639,5.84554 1.0285,0.10918 3.32519,-1.95307 2.93778,-2.93512 2.91888,-1.46941 -1.07453,-4.53456 -2.4253,-2.45101 z"
         id="path19"
         sodipodi:nodetypes="csccc" /><path
         style="fill:#282633;stroke:none"
         d="m 104.53312,122.64465 0.60933,2.60704 0.46061,0.73045 0.59772,-2.84712 z"
         id="path18"
         sodipodi:nodetypes="ccccc" /><path
         style="fill:#e5c0a3;stroke:none"
         d="m 114.66745,122.87044 0.26458,0.26458 z"
         id="path17" /><path
         style="fill:#e5c0a3;stroke:none"
         d="m 103.81953,122.07669 0.26458,0.26458 -0.26458,-0.26458 m 10.75972,0.0882 0.17639,0.0882 z"
         id="path15" /><path
         style="fill:#e5c0a3;stroke:none"
         d="m 111.75703,121.54752 0.26458,0.26459 z"
         id="path13" /><path
         style="fill:#949fbf;stroke:none"
         d="m 104.3487,121.01836 -0.26459,1.32291 h 0.26459 v -1.32291 m 7.23194,0.17638 0.0882,0.1764 z"
         id="path12" /><path
         style="fill:#e5c0a3;stroke:none"
         d="m 104.3487,120.75377 0.26458,0.26459 -0.26458,-0.26459 m 7.14375,0 0.26458,0.26459 z"
         id="path11" /><path
         style="fill:#949fbf;stroke:none"
         d="m 104.61328,120.22461 0.26458,0.26458 -0.26458,-0.26458 m 6.35,0 0.52917,0.52916 z"
         id="path10" /><path
         style="fill:#e5c0a3;stroke:none"
         d="m 110.96328,119.96002 0.26458,0.26459 z"
         id="path9" /><path
         style="fill:#949fbf;stroke:none"
         d="m 105.40703,119.16627 -0.52917,0.79375 0.52917,-0.79375 m 4.49792,0 1.05833,0.79375 v -0.26458 z"
         id="path8" /><path
         style="fill:#e5c0a3;stroke:none"
         d="m 109.64036,118.90169 0.26459,0.26458 z"
         id="path7" /><path
         style="fill:#949fbf;stroke:none"
         d="m 105.9362,118.90169 0.26458,0.26458 -0.26458,-0.26458 m 3.43958,0 0.26458,0.26458 z"
         id="path6" /><path
         style="fill:#e5c0a3;stroke:none"
         d="m 109.1112,118.63711 0.26458,0.26458 z"
         id="path5" /><path
         style="fill:#949fbf;stroke:none"
         d="m 108.31745,118.63711 v 0.26458 h 0.79375 z"
         id="path4" /><path
         style="fill:#6076b5;stroke:none"
         d="m 103.93595,122.90788 c 2.16517,0.91506 8.26843,1.77347 9.82184,-0.42557 l -1.85409,-0.70866 c -0.41575,-2.66206 -3.71376,-4.27589 -6.2033,-2.42139 -1.05325,0.78458 -1.01935,2.52487 -1.76445,3.55562 z"
         id="path3"
         sodipodi:nodetypes="cccsc" /><path
         style="fill:#949fbf;stroke:none"
         d="m 106.64175,118.7253 0.17639,0.0882 z"
         id="path2" /><g
         id="g2"
         transform="matrix(0.67360624,-0.04535791,0.00969746,1.1008826,74.355277,54.656708)"><path
           style="fill:#2514df;fill-opacity:1;stroke:none;stroke-width:0.446;paint-order:markers fill stroke"
           d="m 28.356228,92.620068 4.540732,0.17918 -0.04049,0.0031 -0.995669,7.874252 -11.02299,-0.0875 1.368148,-8.190065 2.383465,0.119174 h 0.198622 l -1.581801,1.102217 2.317165,-0.587939 -1.521721,1.573599 3.129904,-0.830031 -1.245045,1.43526 c 0,0 0.657106,-0.172922 1.020243,-0.466893 0.340016,-0.275252 1.366091,-1.089412 1.449442,-2.124332 z"
           id="path396"
           sodipodi:nodetypes="cccccccccccccsc" /><path
           style="fill:#0c074a;fill-opacity:1;stroke:none;stroke-width:0.446;paint-order:markers fill stroke"
           d="m 28.332787,93.886116 2.28332,0.0491 c 0,0 1.031173,1.522212 -0.122762,1.006626 -1.153935,-0.515588 -1.129382,-0.834763 -1.129382,-0.834763 0,0 0.466485,1.350349 -0.270071,1.055727 -0.736552,-0.294621 -0.761105,-1.276694 -0.761105,-1.276694 z"
           id="path397" /><ellipse
           style="fill:#0c074a;fill-opacity:1;stroke:none;stroke-width:0.446;paint-order:markers fill stroke"
           id="path398"
           cx="29.081619"
           cy="96.218536"
           rx="0.50331205"
           ry="0.61379522" /><ellipse
           style="fill:#0c074a;fill-opacity:1;stroke:none;stroke-width:0.446;paint-order:markers fill stroke"
           id="ellipse399"
           cx="28.934309"
           cy="97.691643"
           rx="0.50331205"
           ry="0.61379522" /><path
           style="fill:#0c074a;fill-opacity:1;stroke:none;stroke-width:0.446;paint-order:markers fill stroke"
           d="m 28.553754,98.575512 c 0.343725,0.0491 2.737063,-0.0043 2.737063,-0.0043 -1.015913,0.09846 -1.438714,0.33419 -0.895677,1.305559 l -0.759049,-0.872052 -1.033233,0.675638 0.02455,-0.515588 0.761106,-0.417381"
           id="path399"
           sodipodi:nodetypes="ccccccc" /></g></g><g
       id="g15"
       transform="translate(-42.984542,-40.084125)"><path
         id="rect2"
         style="fill:#f6ca00;fill-opacity:1;stroke:#000000;stroke-width:0.215;stroke-miterlimit:4.4;paint-order:fill markers stroke"
         d="m 53.995671,61.173527 c -1.18221,0 -2.134237,0.951511 -2.134237,2.13372 v 2.716113 c 0,0.132847 0.01368,0.262087 0.03669,0.38809 -0.02295,0.125847 -0.03669,0.254902 -0.03669,0.387573 v 1.939934 c 0,1.182209 0.952027,2.134236 2.134237,2.134236 h 36.60035 c 1.182209,0 2.133719,-0.952027 2.133719,-2.134236 v -1.939934 c 0,-1.182209 -0.95151,-2.133719 -2.133719,-2.133719 h -4.849834 v -1.358057 c 0,-1.182209 -0.952027,-2.13372 -2.134236,-2.13372 z" /><g
         id="g14"><ellipse
           style="fill:#000000;fill-opacity:1;stroke:none;stroke-width:0.247836;stroke-miterlimit:4.4;paint-order:fill markers stroke"
           id="path14"
           cx="55.579857"
           cy="66.023361"
           rx="3.136148"
           ry="3.4271343" /><rect
           style="fill:#f9ef11;fill-opacity:1;stroke:#000000;stroke-width:0.215;stroke-miterlimit:4.4;stroke-opacity:1;paint-order:fill markers stroke"
           id="rect14"
           width="28.711351"
           height="2.0044312"
           x="59.884159"
           y="67.244598"
           ry="1.0022156" /><text
           xml:space="preserve"
           style="font-size:3.175px;fill:#000000;fill-opacity:1;stroke:none;stroke-width:0.215;stroke-miterlimit:4.4;paint-order:fill markers stroke"
           x="61.757626"
           y="65.565041"
           id="text14"><tspan
             sodipodi:role="line"
             id="tspan14"
             style="stroke-width:0.215"
             x="61.757626"
             y="65.565041">PLAYER 1</tspan></text></g></g><rect
       style="fill:#f6ca00;fill-opacity:1;stroke:#000000;stroke-width:0.215;stroke-miterlimit:4.4;stroke-opacity:1;paint-order:fill markers stroke"
       id="rect15"
       width="48.876774"
       height="51.721451"
       x="71.478722"
       y="8.5627871"
       ry="1.0022156" /><g
       id="g157"
       transform="matrix(1.1993466,0,0,1.2922784,-23.178461,0.04601475)"><ellipse
         style="fill:#090700;fill-opacity:1;stroke:#000000;stroke-width:0.17264;stroke-miterlimit:4.4;stroke-opacity:1;paint-order:fill markers stroke"
         id="path16"
         cx="99.51355"
         cy="20.981901"
         rx="7.7283745"
         ry="7.3203783" /><ellipse
         style="fill:#ffffff;fill-opacity:1;stroke:#000000;stroke-width:0.258242;stroke-miterlimit:4.4;stroke-opacity:1;paint-order:fill markers stroke"
         id="path136"
         cx="99.51355"
         cy="18.713669"
         rx="2.3849092"
         ry="2.6095319" /><path
         id="path157"
         style="fill:#ffffff;stroke:#000000;stroke-width:0.215;stroke-miterlimit:4.4;paint-order:fill markers stroke"
         d="m 102.68723,24.410687 c 0.001,0.995787 -1.42091,1.803033 -3.173682,1.803032 -1.752774,0 -3.173679,-0.807245 -3.173678,-1.803032 0,-0.995787 1.832481,-2.187088 3.77958,-1.898585 1.08886,0.161337 2.56635,0.902105 2.56778,1.898585 z"
         sodipodi:nodetypes="sssss" /></g><text
       xml:space="preserve"
       style="font-size:2.79043px;fill:#ffffff;fill-opacity:1;stroke:#000000;stroke-width:0.188958;stroke-miterlimit:4.4;stroke-opacity:1;paint-order:fill markers stroke"
       x="99.080894"
       y="11.890352"
       id="text157"
       transform="scale(0.86941012,1.1502052)"><tspan
         sodipodi:role="line"
         id="tspan157"
         style="stroke-width:0.188958"
         x="99.080894"
         y="11.890352">FIRST SEMESTER</tspan></text><path
       style="fill:#ffffff;fill-opacity:1;stroke:#000000;stroke-width:0.215;stroke-miterlimit:4.4;stroke-opacity:1;paint-order:fill markers stroke"
       d="M 75.571209,15.240369 115.7217,15.345475"
       id="path310" /><g
       id="g425"
       transform="translate(0.48573825,3.4921239)"><text
         xml:space="preserve"
         style="font-size:3.175px;fill:#ffffff;fill-opacity:1;stroke:#000000;stroke-width:0.215;stroke-miterlimit:4.4;stroke-opacity:1;paint-order:fill markers stroke"
         x="92.042023"
         y="41.325714"
         id="text310"><tspan
           sodipodi:role="line"
           id="tspan310"
           style="stroke-width:0.215"
           x="92.042023"
           y="41.325714">TASK</tspan></text><path
         sodipodi:type="star"
         style="fill:#ffffff;fill-opacity:1;stroke:#000000;stroke-width:0.215;stroke-miterlimit:4.4;stroke-opacity:1;paint-order:fill markers stroke"
         id="path341"
         inkscape:flatsided="false"
         sodipodi:sides="5"
         sodipodi:cx="108.17556"
         sodipodi:cy="33.061378"
         sodipodi:r1="3.8839111"
         sodipodi:r2="1.409299"
         sodipodi:arg1="1.237842"
         sodipodi:arg2="1.9253338"
         inkscape:rounded="0"
         inkscape:randomized="0"
         d="m 109.44496,36.731989 -1.75865,-2.34896 -2.60944,1.019905 1.69054,-2.398445 -1.77635,-2.16656 2.80346,0.866639 1.5116,-2.358913 0.0421,2.934058 2.71057,0.708671 -2.77745,0.946709 z"
         inkscape:transform-center-x="0.11255371"
         transform="matrix(0.31019874,-0.07268957,0.09998895,0.22550704,53.76119,40.670149)"
         inkscape:transform-center-y="-0.052929931" /><path
         sodipodi:type="star"
         style="fill:#ffffff;fill-opacity:1;stroke:#000000;stroke-width:0.215;stroke-miterlimit:4.4;stroke-opacity:1;paint-order:fill markers stroke"
         id="path354"
         inkscape:flatsided="false"
         sodipodi:sides="5"
         sodipodi:cx="108.17556"
         sodipodi:cy="33.061378"
         sodipodi:r1="3.8839111"
         sodipodi:r2="1.409299"
         sodipodi:arg1="1.237842"
         sodipodi:arg2="1.9253338"
         inkscape:rounded="0"
         inkscape:randomized="0"
         d="m 109.44496,36.731989 -1.75865,-2.34896 -2.60944,1.019905 1.69054,-2.398445 -1.77635,-2.16656 2.80346,0.866639 1.5116,-2.358913 0.0421,2.934058 2.71057,0.708671 -2.77745,0.946709 z"
         inkscape:transform-center-x="0.11255371"
         transform="matrix(0.31019874,-0.07268957,0.09998895,0.22550704,65.343427,40.670149)"
         inkscape:transform-center-y="-0.052929931" /></g><rect
       style="fill:#ffffff;fill-opacity:1;stroke:#000000;stroke-width:0.552813;stroke-miterlimit:4.4;stroke-opacity:1;paint-order:fill markers stroke"
       id="rect357"
       width="30.069084"
       height="4.9759889"
       x="85.376488"
       y="48.178493"
       ry="0" /><rect
       style="fill:#f6ca00;fill-opacity:1;stroke:#000000;stroke-width:0.215;stroke-miterlimit:4.4;stroke-opacity:1;paint-order:fill markers stroke"
       id="rect358"
       width="9.2936096"
       height="2.4352036"
       x="85.968361"
       y="49.296837"
       ry="0" /><g
       id="g402"
       transform="translate(-0.20010513,3.5870891)"><g
         id="g401"><rect
           style="fill:#ffffff;fill-opacity:1;stroke:#000000;stroke-width:0.215;stroke-miterlimit:4.4;stroke-opacity:1;paint-order:fill markers stroke"
           id="rect354"
           width="6.4593244"
           height="7.9442263"
           x="76.743256"
           y="42.171219"
           ry="1.0022156" /><rect
           style="fill:#ffffff;fill-opacity:1;stroke:#000000;stroke-width:0.215;stroke-miterlimit:4.4;stroke-opacity:1;paint-order:fill markers stroke"
           id="rect355"
           width="6.0662112"
           height="1.0821691"
           x="76.939819"
           y="41.08905"
           ry="0.54108453"
           rx="0" /><ellipse
           style="fill:#ffffff;fill-opacity:1;stroke:#000000;stroke-width:0.327139;stroke-miterlimit:4.4;stroke-opacity:1;paint-order:fill markers stroke"
           id="path369"
           cx="79.770523"
           cy="46.166447"
           rx="2.3852129"
           ry="3.1564765" /></g><g
         id="g400"
         transform="matrix(0.34282824,0,0,0.28721626,58.717626,32.289774)"><path
           id="rect369"
           style="fill:#ffffff;stroke:#000000;stroke-width:0.215;stroke-miterlimit:4.4;paint-order:fill markers stroke"
           d="m 57.183194,44.422554 c 1.405796,0.102395 2.656294,-1.037589 4.333766,1.238216 l 0.112565,5.443895 c -2.355504,-1.859647 -3.874635,-0.513194 -5.346853,1.013087 z"
           sodipodi:nodetypes="ccccc" /><rect
           style="fill:#ffffff;fill-opacity:1;stroke:#000000;stroke-width:0.132872;stroke-miterlimit:4.4;stroke-opacity:1;paint-order:fill markers stroke"
           id="rect370"
           width="0.53162861"
           height="5.3893352"
           x="61.475899"
           y="45.619709" /><path
           id="path400"
           style="fill:#ffffff;stroke:#000000;stroke-width:0.200194;stroke-miterlimit:4.4;paint-order:fill markers stroke"
           d="m 65.803103,44.34312 c -1.215433,0.102682 -2.296597,-1.040496 -3.746917,1.241684 l -0.09732,5.459145 c 2.036537,-1.864856 3.349958,-0.514631 4.622818,1.015925 z"
           sodipodi:nodetypes="ccccc" /></g></g><rect
       style="fill:#f6ca00;fill-opacity:1;stroke:#000000;stroke-width:0.215;stroke-miterlimit:4.4;stroke-opacity:1;paint-order:fill markers stroke"
       id="rect424"
       width="9.2936096"
       height="2.4352036"
       x="95.764229"
       y="49.296837"
       ry="0" /><rect
       style="fill:#f6ca00;fill-opacity:1;stroke:#000000;stroke-width:0.215;stroke-miterlimit:4.4;stroke-opacity:1;paint-order:fill markers stroke"
       id="rect425"
       width="9.2936096"
       height="2.4352036"
       x="105.5601"
       y="49.296837"
       ry="0" /><text
       xml:space="preserve"
       style="font-size:2.58408px;fill:#f6ca00;fill-opacity:1;stroke:#000000;stroke-width:0.174985;stroke-miterlimit:4.4;stroke-opacity:1;paint-order:fill markers stroke"
       x="73.791977"
       y="45.25523"
       id="text425"
       transform="scale(1.151423,0.86849057)"><tspan
         sodipodi:role="line"
         id="tspan425"
         style="stroke-width:0.174985"
         x="73.791977"
         y="45.25523">INSTRUCTORS</tspan></text></g></svg>
