<?xml version="1.0" encoding="UTF-8" standalone="no"?>
<!-- Created with Inkscape (http://www.inkscape.org/) -->

<svg
   width="210mm"
   height="297mm"
   viewBox="0 0 210 297"
   version="1.1"
   id="svg1"
   inkscape:version="1.3.2 (091e20e, 2023-11-25, custom)"
   sodipodi:docname="turn around xhinsade.svg"
   xmlns:inkscape="http://www.inkscape.org/namespaces/inkscape"
   xmlns:sodipodi="http://sodipodi.sourceforge.net/DTD/sodipodi-0.dtd"
   xmlns:xlink="http://www.w3.org/1999/xlink"
   xmlns="http://www.w3.org/2000/svg"
   xmlns:svg="http://www.w3.org/2000/svg">
  <sodipodi:namedview
     id="namedview1"
     pagecolor="#ffffff"
     bordercolor="#000000"
     borderopacity="0.25"
     inkscape:showpageshadow="2"
     inkscape:pageopacity="0.0"
     inkscape:pagecheckerboard="0"
     inkscape:deskcolor="#d1d1d1"
     inkscape:document-units="mm"
     inkscape:zoom="3.4475569"
     inkscape:cx="98.040441"
     inkscape:cy="637.4079"
     inkscape:window-width="1440"
     inkscape:window-height="837"
     inkscape:window-x="-8"
     inkscape:window-y="-8"
     inkscape:window-maximized="1"
     inkscape:current-layer="layer1" />
  <defs
     id="defs1">
    <linearGradient
       id="linearGradient17"
       inkscape:collect="always">
      <stop
         style="stop-color:#461b02;stop-opacity:1;"
         offset="0"
         id="stop18" />
      <stop
         style="stop-color:#461b02;stop-opacity:0;"
         offset="1"
         id="stop19" />
    </linearGradient>
    <linearGradient
       id="linearGradient92"
       inkscape:collect="always">
      <stop
         style="stop-color:#ffccaa;stop-opacity:1;"
         offset="0"
         id="stop92" />
      <stop
         style="stop-color:#ffccaa;stop-opacity:0;"
         offset="1"
         id="stop93" />
    </linearGradient>
    <linearGradient
       id="linearGradient72"
       inkscape:collect="always">
      <stop
         style="stop-color:#6e3e1f;stop-opacity:1;"
         offset="0"
         id="stop67" />
      <stop
         style="stop-color:#c9733a;stop-opacity:0.49803922;"
         offset="0.5951308"
         id="stop68" />
      <stop
         style="stop-color:#b15109;stop-opacity:0.24705882;"
         offset="0.88028657"
         id="stop69" />
      <stop
         style="stop-color:#e96e20;stop-opacity:0.12156863;"
         offset="0.88028657"
         id="stop70" />
      <stop
         style="stop-color:#c87137;stop-opacity:0.05882353;"
         offset="0.88028657"
         id="stop71" />
      <stop
         style="stop-color:#3d2211;stop-opacity:0;"
         offset="0.98932463"
         id="stop72" />
    </linearGradient>
    <linearGradient
       id="linearGradient60"
       inkscape:collect="always">
      <stop
         style="stop-color:#6e3e1f;stop-opacity:1;"
         offset="0"
         id="stop60" />
      <stop
         style="stop-color:#c9733a;stop-opacity:0.49803922;"
         offset="0.60772675"
         id="stop62" />
      <stop
         style="stop-color:#b15109;stop-opacity:0.24705882;"
         offset="0.88028657"
         id="stop63" />
      <stop
         style="stop-color:#e96e20;stop-opacity:0.12156863;"
         offset="0.88028657"
         id="stop64" />
      <stop
         style="stop-color:#c87137;stop-opacity:0.05882353;"
         offset="0.88028657"
         id="stop65" />
      <stop
         style="stop-color:#3d2211;stop-opacity:0;"
         offset="0.88028657"
         id="stop61" />
    </linearGradient>
    <linearGradient
       id="linearGradient57"
       inkscape:collect="always">
      <stop
         style="stop-color:#853304;stop-opacity:1;"
         offset="0"
         id="stop57" />
      <stop
         style="stop-color:#853304;stop-opacity:0;"
         offset="1"
         id="stop58" />
    </linearGradient>
    <linearGradient
       id="linearGradient47"
       inkscape:collect="always">
      <stop
         style="stop-color:#ff5555;stop-opacity:1"
         offset="0"
         id="stop47" />
      <stop
         style="stop-color:#650306;stop-opacity:0;"
         offset="1"
         id="stop48" />
    </linearGradient>
    <linearGradient
       id="linearGradient45"
       inkscape:collect="always">
      <stop
         style="stop-color:#9f3333;stop-opacity:1;"
         offset="0"
         id="stop45" />
      <stop
         style="stop-color:#842222;stop-opacity:0.74901962;"
         offset="0.38860014"
         id="stop51" />
      <stop
         style="stop-color:#ff5555;stop-opacity:0.49803922;"
         offset="0.77720028"
         id="stop49" />
      <stop
         style="stop-color:#ff5555;stop-opacity:0;"
         offset="1"
         id="stop46" />
    </linearGradient>
    <linearGradient
       id="linearGradient43"
       inkscape:collect="always">
      <stop
         style="stop-color:#281303;stop-opacity:1;"
         offset="0"
         id="stop43" />
      <stop
         style="stop-color:#281303;stop-opacity:0;"
         offset="1"
         id="stop44" />
    </linearGradient>
    <linearGradient
       id="linearGradient32"
       inkscape:collect="always">
      <stop
         style="stop-color:#642600;stop-opacity:1;"
         offset="0"
         id="stop32" />
      <stop
         style="stop-color:#ff9752;stop-opacity:0.8745098;"
         offset="0.13240822"
         id="stop80" />
      <stop
         style="stop-color:#ff9249;stop-opacity:0.74901962;"
         offset="0.26481643"
         id="stop35" />
      <stop
         style="stop-color:#ffc49e;stop-opacity:0.74901962;"
         offset="0.38853094"
         id="stop53" />
      <stop
         style="stop-color:#ff944d;stop-opacity:0.81176471;"
         offset="0.54503447"
         id="stop79" />
      <stop
         style="stop-color:#ff9752;stop-opacity:0.8745098;"
         offset="0.65869498"
         id="stop77" />
      <stop
         style="stop-color:#c36629;stop-opacity:0.9372549;"
         offset="0.75125951"
         id="stop81" />
      <stop
         style="stop-color:#301300;stop-opacity:1;"
         offset="1"
         id="stop33" />
    </linearGradient>
    <linearGradient
       id="linearGradient15"
       inkscape:collect="always">
      <stop
         style="stop-color:#030b11;stop-opacity:1;"
         offset="0"
         id="stop15" />
      <stop
         style="stop-color:#2192dc;stop-opacity:0.49803922;"
         offset="0.5"
         id="stop17" />
      <stop
         style="stop-color:#630101;stop-opacity:0;"
         offset="1"
         id="stop16" />
    </linearGradient>
    <linearGradient
       id="linearGradient13"
       inkscape:collect="always">
      <stop
         style="stop-color:#070918;stop-opacity:1;"
         offset="1"
         id="stop13" />
      <stop
         style="stop-color:#0f1d4a;stop-opacity:0;"
         offset="1"
         id="stop14" />
    </linearGradient>
    <linearGradient
       id="linearGradient7"
       inkscape:collect="always">
      <stop
         style="stop-color:#1c0a4d;stop-opacity:1;"
         offset="0"
         id="stop7" />
      <stop
         style="stop-color:#3c3f01;stop-opacity:0.49803922;"
         offset="0.5"
         id="stop9" />
      <stop
         style="stop-color:#c0873b;stop-opacity:0;"
         offset="1"
         id="stop8" />
    </linearGradient>
    <filter
       inkscape:collect="always"
       style="color-interpolation-filters:sRGB"
       id="filter5"
       x="-0.34242997"
       y="-0.39134853"
       width="1.6848599"
       height="1.7826971">
      <feGaussianBlur
         inkscape:collect="always"
         stdDeviation="0.14640326"
         id="feGaussianBlur5" />
    </filter>
    <filter
       inkscape:collect="always"
       style="color-interpolation-filters:sRGB"
       id="filter6"
       x="-0.17582977"
       y="-0.19827612"
       width="1.3516595"
       height="1.3965522">
      <feGaussianBlur
         inkscape:collect="always"
         stdDeviation="0.091814574"
         id="feGaussianBlur6" />
    </filter>
    <radialGradient
       inkscape:collect="always"
       xlink:href="#linearGradient7"
       id="radialGradient8"
       cx="36.069397"
       cy="163.89749"
       fx="36.069397"
       fy="163.89749"
       r="1.6276646"
       gradientTransform="matrix(0.95338969,0.00826781,-0.00952657,1.0985421,3.2252104,-16.347975)"
       gradientUnits="userSpaceOnUse" />
    <filter
       inkscape:collect="always"
       style="color-interpolation-filters:sRGB"
       id="filter11"
       x="-0.32033046"
       y="-0.64887453"
       width="1.6406609"
       height="2.2977491">
      <feGaussianBlur
         inkscape:collect="always"
         stdDeviation="0.12466333"
         id="feGaussianBlur11" />
    </filter>
    <filter
       inkscape:collect="always"
       style="color-interpolation-filters:sRGB"
       id="filter12"
       x="-0.24685831"
       y="-0.39843797"
       width="1.4937166"
       height="1.7968759">
      <feGaussianBlur
         inkscape:collect="always"
         stdDeviation="0.1118791"
         id="feGaussianBlur12" />
    </filter>
    <filter
       inkscape:collect="always"
       style="color-interpolation-filters:sRGB"
       id="filter13"
       x="-0.24643111"
       y="-0.5750059"
       width="1.4928622"
       height="2.1500118">
      <feGaussianBlur
         inkscape:collect="always"
         stdDeviation="0.084978091"
         id="feGaussianBlur13" />
    </filter>
    <linearGradient
       inkscape:collect="always"
       xlink:href="#linearGradient13"
       id="linearGradient14"
       x1="34.136861"
       y1="163.21172"
       x2="37.926181"
       y2="163.21172"
       gradientUnits="userSpaceOnUse" />
    <linearGradient
       inkscape:collect="always"
       xlink:href="#linearGradient15"
       id="linearGradient16"
       x1="36.172897"
       y1="162.44638"
       x2="36.237251"
       y2="167.69577"
       gradientUnits="userSpaceOnUse" />
    <filter
       inkscape:collect="always"
       style="color-interpolation-filters:sRGB"
       id="filter19"
       x="-0.41493205"
       y="-0.32178403"
       width="1.8298641"
       height="1.6435681">
      <feGaussianBlur
         inkscape:collect="always"
         stdDeviation="0.077673694"
         id="feGaussianBlur19" />
    </filter>
    <filter
       inkscape:collect="always"
       style="color-interpolation-filters:sRGB"
       id="filter20"
       x="-3.6538938"
       y="-0.093689277"
       width="8.3077876"
       height="1.1873786">
      <feGaussianBlur
         inkscape:collect="always"
         stdDeviation="0.126 0.018"
         id="feGaussianBlur20" />
    </filter>
    <linearGradient
       inkscape:collect="always"
       xlink:href="#linearGradient15"
       id="linearGradient30"
       gradientUnits="userSpaceOnUse"
       x1="36.172897"
       y1="162.44638"
       x2="36.237251"
       y2="167.69577" />
    <linearGradient
       inkscape:collect="always"
       xlink:href="#linearGradient13"
       id="linearGradient31"
       gradientUnits="userSpaceOnUse"
       x1="34.136861"
       y1="163.21172"
       x2="37.926181"
       y2="163.21172" />
    <radialGradient
       inkscape:collect="always"
       xlink:href="#linearGradient7"
       id="radialGradient31"
       gradientUnits="userSpaceOnUse"
       gradientTransform="matrix(0.95338969,0.00826781,-0.00952657,1.0985421,3.2252104,-16.347975)"
       cx="36.069397"
       cy="163.89749"
       fx="36.069397"
       fy="163.89749"
       r="1.6276646" />
    <linearGradient
       inkscape:collect="always"
       xlink:href="#linearGradient32"
       id="linearGradient33"
       x1="38.770721"
       y1="152.64923"
       x2="39.377975"
       y2="203.69081"
       gradientUnits="userSpaceOnUse"
       gradientTransform="matrix(0.95521261,0,0,1.0848021,2.1842985,-14.002587)" />
    <linearGradient
       inkscape:collect="always"
       xlink:href="#linearGradient43"
       id="linearGradient44"
       x1="38.466812"
       y1="167.45528"
       x2="39.506508"
       y2="166.83057"
       gradientUnits="userSpaceOnUse" />
    <linearGradient
       inkscape:collect="always"
       xlink:href="#linearGradient47"
       id="linearGradient49"
       gradientUnits="userSpaceOnUse"
       x1="37.604843"
       y1="161.27953"
       x2="41.917202"
       y2="163.27199" />
    <linearGradient
       inkscape:collect="always"
       xlink:href="#linearGradient45"
       id="linearGradient50"
       x1="36.456966"
       y1="165.54544"
       x2="41.377792"
       y2="165.52257"
       gradientUnits="userSpaceOnUse" />
    <linearGradient
       inkscape:collect="always"
       xlink:href="#linearGradient43"
       id="linearGradient51"
       gradientUnits="userSpaceOnUse"
       x1="38.466812"
       y1="167.45528"
       x2="39.506508"
       y2="166.83057"
       gradientTransform="matrix(-1.0829704,0,0,0.9952695,80.827961,0.82721088)" />
    <linearGradient
       inkscape:collect="always"
       xlink:href="#linearGradient57"
       id="linearGradient58"
       x1="37.584827"
       y1="168.28155"
       x2="39.243385"
       y2="168.36641"
       gradientUnits="userSpaceOnUse"
       gradientTransform="matrix(1.0032672,0,0,0.76042074,-0.12610763,39.904718)" />
    <linearGradient
       inkscape:collect="always"
       xlink:href="#linearGradient72"
       id="linearGradient73"
       gradientUnits="userSpaceOnUse"
       gradientTransform="matrix(0.37454205,0.97284487,0.74830325,-0.05998767,-79.922326,133.87417)"
       x1="31.542007"
       y1="153.86209"
       x2="40.464367"
       y2="160.94412" />
    <linearGradient
       inkscape:collect="always"
       xlink:href="#linearGradient60"
       id="linearGradient74"
       gradientUnits="userSpaceOnUse"
       gradientTransform="matrix(-0.47676438,0.9567779,-0.9525348,-0.05899694,193.35512,134.80247)"
       x1="30.035744"
       y1="154.90724"
       x2="40.3078"
       y2="159.58626" />
    <linearGradient
       inkscape:collect="always"
       xlink:href="#linearGradient92"
       id="linearGradient93"
       x1="40.386837"
       y1="170.34381"
       x2="39.597317"
       y2="194.2392"
       gradientUnits="userSpaceOnUse" />
    <linearGradient
       inkscape:collect="always"
       xlink:href="#linearGradient17"
       id="linearGradient19"
       x1="39.992168"
       y1="197.22711"
       x2="45.988438"
       y2="188.67398"
       gradientUnits="userSpaceOnUse" />
    <filter
       inkscape:collect="always"
       style="color-interpolation-filters:sRGB"
       id="filter21"
       x="-0.090007621"
       y="-0.026066071"
       width="1.1797188"
       height="1.051301">
      <feGaussianBlur
         inkscape:collect="always"
         stdDeviation="0.173 0.015"
         id="feGaussianBlur21" />
    </filter>
    <linearGradient
       inkscape:collect="always"
       xlink:href="#linearGradient17"
       id="linearGradient22"
       gradientUnits="userSpaceOnUse"
       x1="40.92239"
       y1="194.82622"
       x2="47.172356"
       y2="187.80809" />
    <filter
       inkscape:collect="always"
       style="color-interpolation-filters:sRGB"
       id="filter24"
       x="-0.091014847"
       y="-0.7524077"
       width="1.1820297"
       height="2.5048154">
      <feGaussianBlur
         inkscape:collect="always"
         stdDeviation="0.60245191"
         id="feGaussianBlur24" />
    </filter>
  </defs>
  <g
     inkscape:label="Layer 1"
     inkscape:groupmode="layer"
     id="layer1">
    <g
       id="g1"
       transform="matrix(0.98641689,0,0,0.81572815,-11.8935,19.167366)">
      <path
         id="path1"
         style="fill:url(#linearGradient33);stroke:#853304;stroke-width:0;stroke-dasharray:none;stroke-opacity:1"
         d="m 40.23217,151.41044 c -0.181411,-0.004 -0.36452,-0.004 -0.548804,0.002 -1.579578,0.0481 -3.055765,0.41664 -4.399732,1.02817 0.03587,1.43556 -0.794177,3.12076 -1.418001,4.66591 -0.316608,0.70465 -0.687001,1.41354 -1.169954,2.09028 -0.918916,1.429 -2.714521,2.65498 -4.146,2.5051 -0.282537,-0.0262 -0.547503,-0.0798 -0.798918,-0.15309 -0.08217,0.29154 -0.159539,0.5838 -0.222209,0.87718 -4.798885,1.1658 -3.777057,5.54915 -2.192114,7.68562 0.951729,1.28289 3.087023,2.21625 5.302002,2.94918 -0.340905,0.093 -0.657903,0.18888 -0.904338,0.28734 -3.579039,1.54702 -3.715514,4.61223 -5.381583,8.49905 -3.875901,9.04215 -1.540016,15.15744 4.113841,18.96187 1.382832,-1.57386 1.599639,-2.29989 2.43683,-2.57423 l 0.778861,-0.075 c 1.473243,0.0216 3.4339,1.70502 4.436424,4.44308 0.19025,0.5196 -0.388031,1.85184 -0.273781,2.32665 1.421366,0.27037 6.511343,0.0959 8.050645,0.15064 -0.430109,-0.20712 -1.1244,-1.72452 -1.121302,-2.21097 0.182679,-1.03074 0.0746,-1.25357 0.587657,-2.60082 0.889256,-2.33514 2.816226,-4.22186 4.116148,-4.20275 l 1.956166,1.16384 c 1.141753,1.4774 1.481875,1.46656 2.266417,4.35168 0.295407,1.08635 0.450745,2.16215 -0.956586,3.45125 5.657381,-3.96822 8.162209,-14.64167 3.987704,-23.97832 -1.530642,-3.42342 -1.61101,-5.75786 -4.718575,-7.19765 -0.356291,-0.24639 -0.897112,-0.4255 -1.53479,-0.57625 0.08797,-0.0446 0.156539,-0.0738 0.24908,-0.12173 2.67151,-0.29456 6.117106,-2.35702 6.607866,-5.00341 0.472275,-2.54671 -1.461787,-5.91192 -3.66541,-6.21705 -0.122736,-0.42388 -0.26612,-0.84212 -0.419612,-1.25697 -0.47894,0.39144 -1.014022,0.69855 -1.640727,0.84636 -1.050491,0.25424 -2.429558,-0.72539 -3.342432,-1.97379 -1.180237,-1.56059 -2.317282,-3.28821 -3.066479,-5.06139 -0.482056,-1.0624 -0.337206,-2.20765 0.470772,-2.36405 -1.072893,-0.43279 -2.222645,-0.68766 -3.439066,-0.71731 z"
         sodipodi:nodetypes="ccccccccsccscccscccsccscscccscccccccc" />
      <g
         id="g2"
         transform="matrix(0.99999899,0,0,1.0026724,3.9224389e-5,-0.4041624)">
        <g
           id="g53"
           inkscape:label="eyes">
          <g
             id="g20"
             transform="matrix(0.50331972,0,0,0.49735058,15.436532,80.889162)">
            <path
               style="fill:#cccccc;stroke-width:0.289718"
               d="m 39.859412,165.51965 c 0.11089,-0.0644 1.406485,-0.40625 -0.577878,-2.82555 -2.34107,-2.85419 -4.855984,-1.60321 -4.855984,-1.60321 0,0 1.119278,-0.41888 -0.164601,0.0838 -1.283879,0.50267 -2.139799,1.38233 -2.139799,1.38233 0,0 -0.153583,0.25957 -0.954679,1.00532 -0.711682,0.66252 -1.192837,0.87785 -1.54724,0.87966 -0.76825,0.004 1.036137,0.52253 1.036137,0.52253 0,0 0.518177,0.074 1.334101,0.18959 0.909954,0.12885 4.57544,0.36759 4.542959,0.33511 l 1.060642,7e-4"
               id="path2"
               sodipodi:nodetypes="cscscsscscc" />
            <path
               style="fill:#000000;stroke-width:0.3"
               d="m 40.920066,165.33581 -0.874628,-1.57745 c 0,0 -0.13004,-0.27162 -0.687205,-1.14014 -0.531024,-0.82777 -0.406751,-0.62295 -0.9371,-1.26508 -0.657455,-0.79602 -3.130405,-0.70885 -3.295473,-0.49979 0,0 -0.796534,0.15618 -1.358795,0.49979 -0.56226,0.3436 -1.015193,0.37484 -1.7024,1.18699 -0.687208,0.81215 -0.702826,0.87463 -1.358797,1.39003 -0.655971,0.51541 -1.374415,0.53103 -1.374415,0.53103 0,0 -0.109326,0.24989 1.686782,0.57787 1.796111,0.32799 4.15448,0.45294 4.15448,0.45294 0,0 -1.296321,-0.17181 -1.983529,-0.4217 -0.687207,-0.24989 -1.655545,-0.42169 -1.671164,-0.73406 -0.01561,-0.31237 0.04257,-0.67606 0.562261,-1.17138 0.517716,-0.49344 1.787081,-1.75225 2.795683,-1.93667 1.072361,-0.19608 1.621734,-0.0969 2.327135,0.10933 0.687284,0.20094 1.552798,1.36576 1.561835,1.34317 z"
               id="path3"
               sodipodi:nodetypes="ccsscssscscssssscc" />
            <ellipse
               style="fill:url(#linearGradient16);fill-opacity:1;stroke-width:0.361654"
               id="path4"
               cx="36.015907"
               cy="163.29764"
               rx="2.4676988"
               ry="2.2256145" />
            <ellipse
               style="mix-blend-mode:normal;fill:url(#linearGradient14);fill-opacity:1;stroke:#372b71;stroke-width:0.837543;stroke-dasharray:none;stroke-opacity:1;filter:url(#filter5)"
               id="path5"
               cx="36.031521"
               cy="163.21172"
               rx="1.1245209"
               ry="0.9839558"
               transform="matrix(1.3496385,0,0,1.4041935,-12.531302,-65.856418)" />
            <ellipse
               style="mix-blend-mode:normal;fill:#000000;fill-opacity:1;stroke:#372b71;stroke-width:0;stroke-dasharray:none;stroke-opacity:1;filter:url(#filter6)"
               id="path6"
               cx="36.071712"
               cy="163.34541"
               rx="0.62661457"
               ry="0.55567706"
               transform="matrix(1.5723223,0,0,1.4037298,-20.609178,-65.82328)" />
            <path
               id="path7"
               style="fill:url(#radialGradient8);stroke:#372b71;stroke-width:0"
               d="m 37.644166,164.53362 c 0.0076,0.4668 -0.833712,1.24732 -1.643385,1.24732 -0.809674,0 -1.677029,-0.85654 -1.607917,-1.31826 0.130051,-0.86885 0.904082,-0.54406 1.655209,-0.28966 0.789204,0.26729 1.572448,-1.0994 1.596093,0.3606 z"
               sodipodi:nodetypes="sssss" />
            <ellipse
               style="mix-blend-mode:normal;fill:#cccccc;fill-opacity:1;stroke:#372b71;stroke-width:0;stroke-dasharray:none;stroke-opacity:1;filter:url(#filter12)"
               id="path9"
               cx="37.289478"
               cy="162.90205"
               rx="0.54385418"
               ry="0.33695313"
               transform="matrix(1,0,0,1.2440884,0.33104167,-39.886634)" />
            <ellipse
               style="mix-blend-mode:normal;fill:#cccccc;fill-opacity:1;stroke:#372b71;stroke-width:0;stroke-dasharray:none;stroke-opacity:1;filter:url(#filter13)"
               id="path10"
               cx="34.676617"
               cy="163.55823"
               rx="0.41380209"
               ry="0.17734376" />
            <ellipse
               style="fill:#cccccc;fill-opacity:1;stroke:#372b71;stroke-width:0;stroke-dasharray:none;stroke-opacity:1;filter:url(#filter11)"
               id="path11"
               cx="36.987995"
               cy="164.14346"
               rx="0.46700522"
               ry="0.23054688" />
            <ellipse
               style="fill:#ffffff;fill-opacity:1;stroke:#372b71;stroke-width:0;stroke-dasharray:none;stroke-opacity:1"
               id="path17"
               cx="37.691456"
               cy="162.79565"
               rx="0.37833333"
               ry="0.17143229" />
            <ellipse
               style="fill:#ffffff;fill-opacity:1;stroke:#372b71;stroke-width:0;stroke-dasharray:none;stroke-opacity:1"
               id="path18"
               cx="34.741642"
               cy="163.58778"
               rx="0.18325521"
               ry="0.065026045" />
            <ellipse
               style="fill:#ffffff;fill-opacity:1;stroke:#372b71;stroke-width:0;stroke-dasharray:none;stroke-opacity:1"
               id="path19"
               cx="37.141693"
               cy="164.18484"
               rx="0.15960938"
               ry="0.082760416" />
            <rect
               style="mix-blend-mode:normal;fill:#ffffff;fill-opacity:1;stroke:#372b71;stroke-width:0;stroke-dasharray:none;stroke-opacity:1;filter:url(#filter19)"
               id="rect19"
               width="0.44927084"
               height="0.57932293"
               x="35.161354"
               y="163.26266" />
            <rect
               style="mix-blend-mode:normal;fill:#ffffff;fill-opacity:1;stroke:#372b71;stroke-width:0;stroke-dasharray:none;stroke-opacity:1;filter:url(#filter20)"
               id="rect20"
               width="0.082761027"
               height="0.46109864"
               x="35.835258"
               y="163.68828" />
          </g>
          <g
             id="g30"
             transform="matrix(-0.49670956,0,0,0.49735058,61.442767,80.621532)">
            <path
               style="fill:#cccccc;stroke-width:0.289718"
               d="m 39.859412,165.51965 c 0.11089,-0.0644 1.406485,-0.40625 -0.577878,-2.82555 -2.34107,-2.85419 -4.855984,-1.60321 -4.855984,-1.60321 0,0 1.119278,-0.41888 -0.164601,0.0838 -1.283879,0.50267 -2.139799,1.38233 -2.139799,1.38233 0,0 -0.153583,0.25957 -0.954679,1.00532 -0.711682,0.66252 -1.192837,0.87785 -1.54724,0.87966 -0.76825,0.004 1.036137,0.52253 1.036137,0.52253 0,0 0.518177,0.074 1.334101,0.18959 0.909954,0.12885 4.57544,0.36759 4.542959,0.33511 l 1.060642,7e-4"
               id="path20"
               sodipodi:nodetypes="cscscsscscc" />
            <path
               style="fill:#000000;stroke-width:0.3"
               d="m 40.920066,165.33581 -0.874628,-1.57745 c 0,0 -0.13004,-0.27162 -0.687205,-1.14014 -0.531024,-0.82777 -0.406751,-0.62295 -0.9371,-1.26508 -0.657455,-0.79602 -3.130405,-0.70885 -3.295473,-0.49979 0,0 -0.796534,0.15618 -1.358795,0.49979 -0.56226,0.3436 -1.015193,0.37484 -1.7024,1.18699 -0.687208,0.81215 -0.702826,0.87463 -1.358797,1.39003 -0.655971,0.51541 -1.374415,0.53103 -1.374415,0.53103 0,0 -0.109326,0.24989 1.686782,0.57787 1.796111,0.32799 4.15448,0.45294 4.15448,0.45294 0,0 -1.296321,-0.17181 -1.983529,-0.4217 -0.687207,-0.24989 -1.655545,-0.42169 -1.671164,-0.73406 -0.01561,-0.31237 0.04257,-0.67606 0.562261,-1.17138 0.517716,-0.49344 1.787081,-1.75225 2.795683,-1.93667 1.072361,-0.19608 1.621734,-0.0969 2.327135,0.10933 0.687284,0.20094 1.552798,1.36576 1.561835,1.34317 z"
               id="path21"
               sodipodi:nodetypes="ccsscssscscssssscc" />
            <ellipse
               style="fill:url(#linearGradient30);fill-opacity:1;stroke-width:0.361654"
               id="ellipse21"
               cx="36.015907"
               cy="163.29764"
               rx="2.4676988"
               ry="2.2256145" />
            <ellipse
               style="mix-blend-mode:normal;fill:url(#linearGradient31);fill-opacity:1;stroke:#372b71;stroke-width:0.837543;stroke-dasharray:none;stroke-opacity:1;filter:url(#filter5)"
               id="ellipse22"
               cx="36.031521"
               cy="163.21172"
               rx="1.1245209"
               ry="0.9839558"
               transform="matrix(1.3496385,0,0,1.4041935,-12.531302,-65.856418)" />
            <ellipse
               style="mix-blend-mode:normal;fill:#000000;fill-opacity:1;stroke:#372b71;stroke-width:0;stroke-dasharray:none;stroke-opacity:1;filter:url(#filter6)"
               id="ellipse23"
               cx="36.071712"
               cy="163.34541"
               rx="0.62661457"
               ry="0.55567706"
               transform="matrix(1.5723223,0,0,1.4037298,-20.609178,-65.82328)" />
            <path
               id="path23"
               style="fill:url(#radialGradient31);stroke:#372b71;stroke-width:0"
               d="m 37.644166,164.53362 c 0.0076,0.4668 -0.833712,1.24732 -1.643385,1.24732 -0.809674,0 -1.677029,-0.85654 -1.607917,-1.31826 0.130051,-0.86885 0.904082,-0.54406 1.655209,-0.28966 0.789204,0.26729 1.572448,-1.0994 1.596093,0.3606 z"
               sodipodi:nodetypes="sssss" />
            <ellipse
               style="mix-blend-mode:normal;fill:#cccccc;fill-opacity:1;stroke:#372b71;stroke-width:0;stroke-dasharray:none;stroke-opacity:1;filter:url(#filter12)"
               id="ellipse24"
               cx="37.289478"
               cy="162.90205"
               rx="0.54385418"
               ry="0.33695313"
               transform="matrix(1,0,0,1.2440884,0.33104167,-39.886634)" />
            <ellipse
               style="mix-blend-mode:normal;fill:#cccccc;fill-opacity:1;stroke:#372b71;stroke-width:0;stroke-dasharray:none;stroke-opacity:1;filter:url(#filter13)"
               id="ellipse25"
               cx="34.676617"
               cy="163.55823"
               rx="0.41380209"
               ry="0.17734376" />
            <ellipse
               style="fill:#cccccc;fill-opacity:1;stroke:#372b71;stroke-width:0;stroke-dasharray:none;stroke-opacity:1;filter:url(#filter11)"
               id="ellipse26"
               cx="36.987995"
               cy="164.14346"
               rx="0.46700522"
               ry="0.23054688" />
            <ellipse
               style="fill:#ffffff;fill-opacity:1;stroke:#372b71;stroke-width:0;stroke-dasharray:none;stroke-opacity:1"
               id="ellipse27"
               cx="37.691456"
               cy="162.79565"
               rx="0.37833333"
               ry="0.17143229" />
            <ellipse
               style="fill:#ffffff;fill-opacity:1;stroke:#372b71;stroke-width:0;stroke-dasharray:none;stroke-opacity:1"
               id="ellipse28"
               cx="34.741642"
               cy="163.58778"
               rx="0.18325521"
               ry="0.065026045" />
            <ellipse
               style="fill:#ffffff;fill-opacity:1;stroke:#372b71;stroke-width:0;stroke-dasharray:none;stroke-opacity:1"
               id="ellipse29"
               cx="37.141693"
               cy="164.18484"
               rx="0.15960938"
               ry="0.082760416" />
            <rect
               style="mix-blend-mode:normal;fill:#ffffff;fill-opacity:1;stroke:#372b71;stroke-width:0;stroke-dasharray:none;stroke-opacity:1;filter:url(#filter19)"
               id="rect29"
               width="0.44927084"
               height="0.57932293"
               x="35.161354"
               y="163.26266" />
            <rect
               style="mix-blend-mode:normal;fill:#ffffff;fill-opacity:1;stroke:#372b71;stroke-width:0;stroke-dasharray:none;stroke-opacity:1;filter:url(#filter20)"
               id="rect30"
               width="0.082761027"
               height="0.46109864"
               x="35.835258"
               y="163.68828" />
          </g>
        </g>
        <g
           id="g52"
           inkscape:label="nose"
           transform="matrix(0.83812065,0,0,0.65789446,5.9399786,56.375297)">
          <path
             sodipodi:type="star"
             style="fill:url(#linearGradient50);stroke:url(#linearGradient49);stroke-width:0.0583927;stroke-dasharray:none;stroke-opacity:1"
             id="path40"
             inkscape:flatsided="true"
             sodipodi:sides="3"
             sodipodi:cx="38.627399"
             sodipodi:cy="165.37563"
             sodipodi:r1="1.9502522"
             sodipodi:r2="0.8522225"
             sodipodi:arg1="0.55159524"
             sodipodi:arg2="1.5987928"
             inkscape:rounded="0.6"
             inkscape:randomized="0"
             d="m 40.288409,166.39765 c -1.062117,1.72617 -2.412762,1.68835 -3.376612,-0.0946 -0.96385,-1.78291 -0.255772,-2.93369 1.770195,-2.87695 2.025968,0.0567 2.668534,1.24534 1.606417,2.97151 z"
             inkscape:transform-center-x="-0.0087170246"
             inkscape:transform-center-y="0.10829594"
             transform="matrix(0.99974744,0,0,0.72823271,0.26080937,45.793493)" />
          <path
             id="path42"
             style="fill:#6c5353;fill-opacity:0.74902;stroke:url(#linearGradient44);stroke-width:0.1;stroke-dasharray:none;stroke-opacity:1"
             inkscape:transform-center-x="-0.0089905183"
             inkscape:transform-center-y="0.029579"
             d="m 39.169201,166.98005 c -0.133663,-0.28543 0.135455,-0.36848 0.380241,-0.50048 0.76396,-0.23788 0.604817,0.13653 0.267529,0.52025 -0.248974,0.28325 -0.487252,0.29238 -0.64779,-0.0198 z"
             sodipodi:nodetypes="ccscc" />
          <path
             id="path50"
             style="fill:#6c5353;fill-opacity:0.74902;stroke:url(#linearGradient51);stroke-width:0.103819;stroke-dasharray:none;stroke-opacity:1"
             inkscape:transform-center-x="0.0097363793"
             inkscape:transform-center-y="0.029438584"
             d="m 38.408874,167.01736 c 0.144754,-0.28408 -0.146693,-0.36674 -0.411789,-0.49811 -0.827346,-0.23676 -0.654999,0.13588 -0.289726,0.51779 0.269631,0.28191 0.527679,0.29099 0.701537,-0.0197 z"
             sodipodi:nodetypes="ccscc" />
        </g>
        <path
           style="opacity:1;fill:none;fill-opacity:1;stroke:#853304;stroke-width:0.0347814;stroke-dasharray:none;stroke-opacity:1"
           d="m 38.495257,166.83751 c -0.17434,-0.0164 -0.122971,0.84399 0.692527,1.08132 0.672644,0.19575 1.639731,0.11997 2.023379,-0.0818"
           id="path53"
           sodipodi:nodetypes="csc" />
        <path
           style="opacity:1;fill:none;fill-opacity:1;stroke:#853304;stroke-width:0.0331513;stroke-dasharray:none;stroke-opacity:1"
           d="m 38.452974,166.83502 c 0,0.01 -0.0051,0.7832 -0.638694,0.99653 -0.643313,0.21663 -1.624703,0.11 -2.004836,-0.075"
           id="path54"
           sodipodi:nodetypes="csc" />
        <path
           id="path56"
           style="fill:#c83737;fill-opacity:1;stroke:url(#linearGradient58);stroke-width:0.0436722;stroke-dasharray:none"
           d="m 39.290549,167.88185 c 0.756549,0.0329 -0.551427,0.45345 -0.670778,0.44262 -0.420289,-0.0381 -1.267424,-0.39593 -0.926198,-0.45547 0.208891,-0.0364 0.484707,-0.68037 0.770653,-0.6365 0.403375,0.0619 0.594953,0.6393 0.826323,0.64935 z"
           sodipodi:nodetypes="sssss" />
        <path
           id="path72"
           style="opacity:1;fill:url(#linearGradient74);stroke:#853304;stroke-width:0.0484636"
           d="m 33.968838,157.14547 c 0.720644,-1.70866 1.711368,-3.59175 1.415607,-5.10777 -0.27042,-1.06354 -1.849739,-0.89247 -3.096836,-0.38769 -2.185157,0.86761 -4.530847,1.8562 -6.396916,3.55227 -1.350382,1.2108 -1.732607,2.85678 -1.162604,3.86119 0.725967,1.3131 1.911027,2.46386 3.748188,2.62711 1.479054,0.14823 3.334739,-1.0644 4.284193,-2.4778 0.499005,-0.66933 0.88124,-1.37037 1.208368,-2.06731 z" />
        <path
           id="path73"
           style="opacity:1;fill:url(#linearGradient73);stroke:#853304;stroke-width:0.0433142"
           d="m 43.154693,154.39546 c -0.506337,-1.10559 -0.333598,-2.30365 0.564706,-2.39183 1.568149,-0.1854 3.41546,0.68213 5.142309,1.26443 1.365874,0.59384 2.925406,1.08361 4.099169,2.53153 0.90219,1.2084 0.487067,2.41914 -0.02718,3.09335 -0.889994,1.10459 -1.851485,2.24006 -3.278093,2.57341 -1.065634,0.25552 -2.464368,-0.72898 -3.390403,-1.98371 -1.197256,-1.56846 -2.350517,-3.30505 -3.110516,-5.08718 z" />
        <path
           id="path74"
           style="opacity:1;fill:#1a1a1a;fill-opacity:0.509804;stroke-width:0.04748"
           inkscape:transform-center-x="-0.026771663"
           inkscape:transform-center-y="-0.01891582"
           d="m 43.716385,158.90365 c 0.243431,0.3196 -1.384993,0.66048 -1.784252,0.77855 -0.399257,0.11805 -0.583425,-0.0549 -0.514299,-0.44244 0.134615,-0.7546 2.004283,-0.72245 2.298551,-0.33611 z"
           sodipodi:nodetypes="ssss" />
        <path
           id="path75"
           style="opacity:1;fill:#1a1a1a;fill-opacity:0.509804;stroke-width:0.0476307"
           inkscape:transform-center-x="0.022310749"
           inkscape:transform-center-y="-0.10933594"
           d="m 32.831722,159.60118 c -0.142875,0.3338 1.689338,0.30361 2.150758,0.32686 0.461413,0.0233 0.593864,-0.16808 0.384164,-0.49835 -0.408304,-0.643 -2.362206,-0.232 -2.534922,0.17149 z"
           sodipodi:nodetypes="ssss" />
        <path
           id="path8"
           style="fill:#b5622b;fill-opacity:0.933333;stroke-width:0.052773"
           inkscape:transform-center-x="0.25334563"
           inkscape:transform-center-y="-0.1749287"
           d="m 19.258017,174.82669 c -2.562274,-1.08711 -3.09003,-2.5126 -3.422423,-6.65559 -0.219967,-2.74169 3.084173,-2.00608 6.218374,3.47244 1.465954,2.56246 -0.359673,4.2168 -2.795951,3.18315 z"
           sodipodi:nodetypes="ssss"
           transform="matrix(1.0137712,0,0,1.2226313,12.057248,-23.031535)" />
        <path
           id="path12"
           style="fill:#b5622b;fill-opacity:0.933333;stroke-width:0.0562571"
           inkscape:transform-center-x="-0.2879018"
           inkscape:transform-center-y="-0.1749287"
           d="m 34.473867,174.99138 c 2.911766,-1.08711 6.053316,-2.96122 3.889239,-6.65559 -3.025072,-5.1642 -4.591083,-2.80955 -7.066556,3.47244 -1.099118,2.78922 0.408733,4.2168 3.177317,3.18315 z"
           sodipodi:nodetypes="ssss"
           transform="matrix(1.0137712,0,0,1.2226313,12.057248,-23.031535)" />
        <path
           id="path81"
           style="opacity:0.868633;fill:url(#linearGradient93);fill-opacity:1;stroke:none;stroke-width:0.0499999;stroke-dasharray:none;stroke-opacity:1"
           d="m 30.37179,172.52194 c -2.897285,0.70393 -4.323029,2.38951 -4.657597,6.48264 -0.332809,4.07161 2.059423,6.22058 2.059423,6.22058 0,0 -0.342694,-4.07787 1.492298,-5.88934 0.546691,-0.53968 0.996998,-1.07643 1.363224,-1.56528 -0.666628,1.1604 -1.285499,2.40617 -0.939994,2.52957 0.658716,0.23526 3.817865,4.4516 4.762764,6.27253 1.085424,2.09173 0.225045,-4.86073 0.225045,-4.86073 0,0 1.270023,-2.42333 0.658358,-3.92896 -0.516686,-1.27185 0.876076,1.06088 1.194759,2.27118 0.01482,-0.56359 0.06376,-1.42221 0.117305,-2.28462 0.385099,2.26962 0.548804,3.91914 0.548804,3.91914 0,0 0.432681,-2.19601 0.233061,-3.19412 -0.199623,-0.99811 0.199115,1.09829 1.13068,2.02985 0.931565,0.93157 2.994772,1.39718 3.061312,1.5968 0.06654,0.19962 1.896159,1.92985 1.696537,3.89279 -0.19962,1.96294 -0.398942,2.92747 -0.398942,2.92747 l 1.687548,-4.60684 c -0.34926,-0.52897 1.361711,-1.67752 1.539646,-5.3078 0.01958,-0.39958 -0.169416,-0.61599 -0.255799,-0.93069 0.225955,0.31482 0.628727,1.42452 1.099454,1.31426 3.114048,-0.72945 4.098518,3.97641 4.525852,4.56437 0.536594,0.73829 -0.267809,-2.10812 -0.267809,-2.10812 0,0 4.095039,-3.67134 1.499966,-6.36622 -2.595076,-2.69489 -4.159021,-2.05335 -3.79305,-2.8851 -5.29157,-1.60326 -11.193052,-1.30902 -17.399455,-0.0661 z m 6.15828,7.53219 c -0.01241,0.47179 -9.82e-4,0.7172 0.05219,0.52813 0.03288,-0.1169 0.0064,-0.30566 -0.05219,-0.52813 z"
           sodipodi:nodetypes="cscscsscscccssssccscsscsccccsc" />
        <ellipse
           style="opacity:1;fill:#ff5555;fill-opacity:0.509804;stroke:none;stroke-width:0.0590624;stroke-dasharray:none;stroke-opacity:1"
           id="path76"
           cx="38.531601"
           cy="167.97073"
           rx="0.8111915"
           ry="0.29743692" />
        <path
           style="opacity:0.310992;fill:#6c5353;fill-opacity:0.74902;stroke:none;stroke-width:0.0499999;stroke-dasharray:none;stroke-opacity:1"
           d="m 31.457614,173.79513 c -2.498585,1.84322 -3.645477,3.80932 -3.645477,3.80932 0,0 -0.409604,5.12005 -0.368644,2.45763 0.04096,-2.66243 -0.860171,-3.44068 0.491525,-4.38277 1.351695,-0.94209 3.522596,-1.88418 3.522596,-1.88418 z"
           id="path82" />
        <path
           style="opacity:0.22252;fill:#916f6f;fill-opacity:0.74902;stroke:none;stroke-width:0.0499999;stroke-dasharray:none;stroke-opacity:1"
           d="m 32.727389,174.12281 c -2.498587,1.3517 -2.580508,1.02401 -3.358756,2.33475 -0.778248,1.31073 -1.105932,2.62147 -1.105932,2.62147 z"
           id="path83" />
        <path
           style="opacity:0.348525;fill:#916f6f;fill-opacity:0.74902;stroke:none;stroke-width:0.0499999;stroke-dasharray:none;stroke-opacity:1"
           d="m 35.676508,173.13981 -2.908159,3.56351 c 0,0 -2.006977,2.33469 -1.884094,2.70333 0.12288,0.36865 2.498505,3.03109 2.170818,3.27689 -0.718631,0.53905 1.146892,-2.04802 1.064971,-1.35169 -0.08192,0.69633 -0.819257,-2.21185 -0.204852,-3.3997 0.614407,-1.18786 1.024029,-3.93217 1.761316,-4.79234 z"
           id="path84"
           sodipodi:nodetypes="ccssssc" />
        <path
           style="opacity:0.450402;fill:#916f6f;fill-opacity:0.74902;stroke:none;stroke-width:0.0499999;stroke-dasharray:none;stroke-opacity:1"
           d="m 35.462895,176.35224 c 0.900152,1.8779 0.900152,1.8779 0.900152,1.8779 0,0 0.170717,-0.49663 0.06208,-0.68287 -0.10864,-0.18624 -0.915672,-1.30367 -0.915672,-1.30367 l -0.124159,-0.88463 0.294876,-1.07087 -0.496634,1.07087 z"
           id="path85" />
        <path
           style="opacity:0.313673;fill:#916f6f;fill-opacity:0.74902;stroke:none;stroke-width:0.0499999;stroke-dasharray:none;stroke-opacity:1"
           d="m 42.024952,175.60498 c 0,0 -0.926333,1.53582 -0.892517,2.83214 0.04314,1.65377 -0.923305,2.28941 1.311554,2.95677 2.234861,0.66735 2.865391,2.66682 2.865391,2.66682 0,0 -1.453082,-3.21002 -2.384275,-4.82408 -0.931191,-1.61407 0.01553,-3.70925 0.01553,-3.70925 l 0.775994,-1.25711 z"
           id="path86"
           transform="matrix(-0.93065475,0.7516824,0.62833697,0.77794129,-22.222917,5.8087389)"
           sodipodi:nodetypes="csscsccc" />
        <path
           style="opacity:0.313673;fill:#916f6f;fill-opacity:0.74902;stroke:none;stroke-width:0.0499999;stroke-dasharray:none;stroke-opacity:1"
           d="m 40.500214,174.93134 c 0,0 -0.993839,1.81941 -0.21671,2.73021 0.828847,0.97142 0.951358,1.73817 2.414779,2.79451 2.411538,1.74072 3.075729,2.82148 3.062299,2.8454 0,0 -1.3355,-1.76882 -2.266693,-3.38288 -0.931191,-1.61407 -0.553254,-4.3912 -0.553254,-4.3912 l -2.307659,-3.8434 z"
           id="path87"
           transform="matrix(-0.93065475,0.7516824,0.62833697,0.77794129,-28.979759,10.800734)"
           sodipodi:nodetypes="csscsccc" />
        <path
           style="opacity:0.310992;fill:#6c5353;fill-opacity:0.74902;stroke:none;stroke-width:0.0597148;stroke-dasharray:none;stroke-opacity:1"
           d="m 43.376151,174.90097 c 3.563856,1.84322 4.83111,4.13698 4.83111,4.13698 1.776831,-1.26376 2.944666,4.53931 2.546299,2.11867 -0.429926,-2.6124 -0.424964,-3.42938 -2.352955,-4.37147 -1.92799,-0.94209 -5.024454,-1.88418 -5.024454,-1.88418 z"
           id="path88"
           sodipodi:nodetypes="ccssc" />
        <path
           style="opacity:0.450402;fill:#916f6f;fill-opacity:0.74902;stroke:none;stroke-width:0.0625362;stroke-dasharray:none;stroke-opacity:1"
           d="m 48.601243,175.48144 1.51324,2.57806 c 0,0 -0.499431,-0.65808 -0.647439,-0.86214 -0.148007,-0.20411 -1.232672,-1.37982 -1.232672,-1.37982 l -1.277574,-0.32821 -1.346833,-1.93564 1.492597,1.58559 z"
           id="path89"
           sodipodi:nodetypes="ccsccccc" />
        <path
           style="opacity:0.22252;fill:#916f6f;fill-opacity:0.74902;stroke:none;stroke-width:0.0607023;stroke-dasharray:none;stroke-opacity:1"
           d="m 38.098718,173.79984 c 0.682919,3.42014 -0.866679,4.47385 1.059222,5.79313 1.512735,1.03626 2.614687,2.18453 2.614687,2.18453 -1.81033,-2.48351 -2.954532,-5.16686 -3.673909,-7.97766 z"
           id="path90"
           sodipodi:nodetypes="cscc" />
        <path
           sodipodi:type="star"
           style="opacity:1;fill:#582a0b;fill-opacity:0.984314;stroke:none;stroke-width:0.0499999;stroke-dasharray:none;stroke-opacity:1"
           id="path107"
           inkscape:flatsided="true"
           sodipodi:sides="3"
           sodipodi:cx="32.258858"
           sodipodi:cy="199.81831"
           sodipodi:r1="4.5341959"
           sodipodi:r2="2.2670979"
           sodipodi:arg1="1.541393"
           sodipodi:arg2="2.5885906"
           inkscape:rounded="0.6"
           inkscape:randomized="0"
           d="m 32.392159,204.35055 c -4.710038,0.13853 -6.360031,-2.53463 -4.124983,-6.68291 2.235047,-4.14828 5.375073,-4.24063 7.850063,-0.23089 2.47499,4.00975 0.984958,6.77527 -3.72508,6.9138 z"
           inkscape:transform-center-x="-0.031266693"
           inkscape:transform-center-y="-0.43190535"
           transform="matrix(0.9751133,0,0,1.0945313,16.141888,-17.319147)" />
        <path
           sodipodi:type="star"
           style="opacity:1;fill:#582a0b;fill-opacity:0.984314;stroke:none;stroke-width:0.0499999;stroke-dasharray:none;stroke-opacity:1"
           id="path110"
           inkscape:flatsided="true"
           sodipodi:sides="3"
           sodipodi:cx="32.258858"
           sodipodi:cy="199.81831"
           sodipodi:r1="4.5341959"
           sodipodi:r2="2.2670979"
           sodipodi:arg1="1.541393"
           sodipodi:arg2="2.5885906"
           inkscape:rounded="0.6"
           inkscape:randomized="0"
           d="m 32.392159,204.35055 c -4.710038,0.13853 -6.360031,-2.53463 -4.124983,-6.68291 2.235047,-4.14828 5.375073,-4.24063 7.850063,-0.23089 2.47499,4.00975 0.984958,6.77527 -3.72508,6.9138 z"
           inkscape:transform-center-x="-0.02716263"
           inkscape:transform-center-y="-0.41796705"
           transform="matrix(0.84712386,0,0,1.0591642,5.0267946,-10.407531)" />
        <path
           id="path13"
           style="fill:#ffb380;fill-opacity:0.933333;stroke:url(#linearGradient19);stroke-width:0.22266282;stroke-dasharray:none;filter:url(#filter21);opacity:1"
           inkscape:transform-center-x="0.64362047"
           inkscape:transform-center-y="0.15639915"
           d="m 43.804476,186.85772 c 0.559103,-0.40426 5.750138,2.28861 4.122867,3.68068 -0.785508,0.67197 -3.760895,3.01042 -4.98957,1.72438 -1.053895,-1.1031 -0.560166,-4.37336 0.866703,-5.40506 z"
           sodipodi:nodetypes="ssss" />
        <path
           id="path22"
           style="opacity:1;fill:#ffb380;fill-opacity:0.933333;stroke:url(#linearGradient22);stroke-width:0.222663;stroke-dasharray:none;filter:url(#filter21)"
           inkscape:transform-center-x="-0.55251803"
           inkscape:transform-center-y="0.17393648"
           d="m 43.804476,186.89708 c 0.46331,-0.49829 4.798521,0.68215 4.672543,2.73606 -0.09539,1.55527 -4.178037,4.08531 -5.539246,2.62964 -1.041222,-1.11348 -0.348752,-4.05849 0.866703,-5.3657 z"
           sodipodi:nodetypes="ssss"
           transform="matrix(-0.85845347,0,0,1.1122235,71.749354,-21.576414)" />
      </g>
    </g>
    <path
       style="opacity:1;mix-blend-mode:normal;fill:#ffb380;fill-opacity:0.933333;stroke:none;stroke-width:0.2;stroke-dasharray:none;stroke-opacity:1;filter:url(#filter24)"
       d="m 19.339782,159.78344 c 7.214047,-1.38142 15.88625,-0.15349 15.88625,-0.15349 0,0 -3.760512,1.68839 -7.444282,1.38141 -3.683768,-0.30698 -8.441968,-1.22792 -8.441968,-1.22792 z"
       id="path24"
       transform="matrix(1.0685176,0,0,2.9978155,-2.0228501,-318.71314)" />
  </g>
</svg>
