<?xml version="1.0" encoding="UTF-8" standalone="no"?>
<!-- Created with Inkscape (http://www.inkscape.org/) -->

<svg
   width="210mm"
   height="297mm"
   viewBox="0 0 210 297"
   version="1.1"
   id="svg1"
   sodipodi:docname="xhinsade.svg"
   inkscape:version="1.3.2 (091e20e, 2023-11-25, custom)"
   xmlns:inkscape="http://www.inkscape.org/namespaces/inkscape"
   xmlns:sodipodi="http://sodipodi.sourceforge.net/DTD/sodipodi-0.dtd"
   xmlns:xlink="http://www.w3.org/1999/xlink"
   xmlns="http://www.w3.org/2000/svg"
   xmlns:svg="http://www.w3.org/2000/svg">
  <sodipodi:namedview
     id="namedview1"
     pagecolor="#ffffff"
     bordercolor="#000000"
     borderopacity="0.25"
     inkscape:showpageshadow="2"
     inkscape:pageopacity="0.0"
     inkscape:pagecheckerboard="0"
     inkscape:deskcolor="#d1d1d1"
     inkscape:document-units="mm"
     inkscape:zoom="3.8953916"
     inkscape:cx="269.29257"
     inkscape:cy="976.15347"
     inkscape:window-width="1440"
     inkscape:window-height="837"
     inkscape:window-x="-8"
     inkscape:window-y="-8"
     inkscape:window-maximized="1"
     inkscape:current-layer="layer1"
     showgrid="false"
     showguides="false" />
  <defs
     id="defs1">
    <linearGradient
       id="linearGradient162"
       inkscape:collect="always">
      <stop
         style="stop-color:#d2bf8e;stop-opacity:1;"
         offset="0"
         id="stop162" />
      <stop
         style="stop-color:#000000;stop-opacity:0;"
         offset="1"
         id="stop163" />
    </linearGradient>
    <inkscape:path-effect
       effect="skeletal"
       id="path-effect140"
       is_visible="true"
       lpeversion="1"
       pattern="M 0,4.9921382 C 0,2.2364779 2.2364779,0 4.9921382,0 c 2.7556604,0 4.9921383,2.2364779 4.9921383,4.9921382 0,2.7556604 -2.2364779,4.9921383 -4.9921383,4.9921383 C 2.2364779,9.9842765 0,7.7477986 0,4.9921382 Z"
       copytype="single_stretched"
       prop_scale="1"
       scale_y_rel="false"
       spacing="0"
       normal_offset="0"
       tang_offset="0"
       prop_units="false"
       vertical_pattern="false"
       hide_knot="false"
       fuse_tolerance="0" />
    <inkscape:path-effect
       effect="bspline"
       id="path-effect47"
       is_visible="true"
       lpeversion="1.3"
       weight="33.333333"
       steps="2"
       helper_size="0"
       apply_no_weight="true"
       apply_with_weight="true"
       only_selected="false"
       uniform="false" />
    <linearGradient
       id="linearGradient22"
       inkscape:collect="always">
      <stop
         style="stop-color:#a44040;stop-opacity:1;"
         offset="0"
         id="stop30" />
      <stop
         style="stop-color:#000000;stop-opacity:0;"
         offset="1"
         id="stop31" />
    </linearGradient>
    <linearGradient
       id="linearGradient11"
       inkscape:collect="always">
      <stop
         style="stop-color:#ff8080;stop-opacity:1;"
         offset="0"
         id="stop11" />
      <stop
         style="stop-color:#f1a641;stop-opacity:0.49803922;"
         offset="0.5"
         id="stop13" />
      <stop
         style="stop-color:#ff8080;stop-opacity:0;"
         offset="1"
         id="stop12" />
    </linearGradient>
    <linearGradient
       id="linearGradient1"
       inkscape:collect="always">
      <stop
         style="stop-color:#380c0c;stop-opacity:1;"
         offset="0"
         id="stop1" />
      <stop
         style="stop-color:#7a1616;stop-opacity:0.74901961;"
         offset="0.25"
         id="stop8" />
      <stop
         style="stop-color:#a11d1d;stop-opacity:0.49803922;"
         offset="0.5"
         id="stop3" />
      <stop
         style="stop-color:#de4a4a;stop-opacity:0.24705882;"
         offset="0.75"
         id="stop4" />
      <stop
         style="stop-color:#300909;stop-opacity:0;"
         offset="1"
         id="stop2" />
    </linearGradient>
    <linearGradient
       id="linearGradient36"
       inkscape:collect="always">
      <stop
         style="stop-color:#000000;stop-opacity:1;"
         offset="0"
         id="stop36" />
      <stop
         style="stop-color:#000000;stop-opacity:0;"
         offset="1"
         id="stop37" />
    </linearGradient>
    <linearGradient
       id="linearGradient28"
       inkscape:collect="always">
      <stop
         style="stop-color:#db6e12;stop-opacity:1;"
         offset="0"
         id="stop28" />
      <stop
         style="stop-color:#b91f1f;stop-opacity:0;"
         offset="1"
         id="stop29" />
    </linearGradient>
    <linearGradient
       id="linearGradient25"
       inkscape:collect="always">
      <stop
         style="stop-color:#200203;stop-opacity:1;"
         offset="0"
         id="stop26" />
      <stop
         style="stop-color:#980b10;stop-opacity:0;"
         offset="1"
         id="stop27" />
    </linearGradient>
    <linearGradient
       id="linearGradient24"
       inkscape:collect="always">
      <stop
         style="stop-color:#350d0d;stop-opacity:1;"
         offset="0"
         id="stop24" />
      <stop
         style="stop-color:#350d0d;stop-opacity:0;"
         offset="1"
         id="stop25" />
    </linearGradient>
    <linearGradient
       id="linearGradient21"
       inkscape:collect="always">
      <stop
         style="stop-color:#ffffff;stop-opacity:1;"
         offset="0"
         id="stop22" />
      <stop
         style="stop-color:#e1d505;stop-opacity:0;"
         offset="1"
         id="stop23" />
    </linearGradient>
    <linearGradient
       id="linearGradient20"
       inkscape:collect="always">
      <stop
         style="stop-color:#ffffff;stop-opacity:1;"
         offset="0"
         id="stop20" />
      <stop
         style="stop-color:#dfb22c;stop-opacity:0;"
         offset="1"
         id="stop21" />
    </linearGradient>
    <linearGradient
       id="linearGradient18"
       inkscape:collect="always">
      <stop
         style="stop-color:#200202;stop-opacity:1;"
         offset="0"
         id="stop18" />
      <stop
         style="stop-color:#5a1919;stop-opacity:0.49803922;"
         offset="0.5"
         id="stop34" />
      <stop
         style="stop-color:#5a1919;stop-opacity:0;"
         offset="1"
         id="stop19" />
    </linearGradient>
    <inkscape:path-effect
       effect="bspline"
       id="path-effect8"
       is_visible="true"
       lpeversion="1.3"
       weight="33.333333"
       steps="2"
       helper_size="0"
       apply_no_weight="true"
       apply_with_weight="true"
       only_selected="false"
       uniform="false" />
    <inkscape:path-effect
       effect="bspline"
       id="path-effect6"
       is_visible="true"
       lpeversion="1.3"
       weight="33.333333"
       steps="2"
       helper_size="0"
       apply_no_weight="true"
       apply_with_weight="true"
       only_selected="false"
       uniform="false" />
    <filter
       inkscape:collect="always"
       style="color-interpolation-filters:sRGB"
       id="filter17"
       x="-0.24732826"
       y="-0.68302538"
       width="1.4946565"
       height="2.3660508">
      <feGaussianBlur
         inkscape:collect="always"
         stdDeviation="0.79799996"
         id="feGaussianBlur17" />
    </filter>
    <filter
       inkscape:collect="always"
       style="color-interpolation-filters:sRGB"
       id="filter19"
       x="-0.090171258"
       y="-0.076645504"
       width="1.1803425"
       height="1.153291">
      <feGaussianBlur
         inkscape:collect="always"
         stdDeviation="0.06687863"
         id="feGaussianBlur19" />
    </filter>
    <radialGradient
       inkscape:collect="always"
       xlink:href="#linearGradient20"
       id="radialGradient21"
       cx="62.736851"
       cy="74.72464"
       fx="62.736851"
       fy="74.72464"
       r="0.81890017"
       gradientTransform="matrix(2.1545693,0,0,1.5818395,-72.839253,-42.697349)"
       gradientUnits="userSpaceOnUse" />
    <radialGradient
       inkscape:collect="always"
       xlink:href="#linearGradient21"
       id="radialGradient23"
       cx="57.982681"
       cy="77.59079"
       fx="57.982681"
       fy="77.59079"
       r="0.52318621"
       gradientTransform="matrix(3.7824407,0,0,1.7560939,-161.19831,-58.90604)"
       gradientUnits="userSpaceOnUse" />
    <radialGradient
       inkscape:collect="always"
       xlink:href="#linearGradient24"
       id="radialGradient25"
       cx="60.190409"
       cy="78.771372"
       fx="60.190409"
       fy="78.771372"
       r="2.6978"
       gradientTransform="matrix(1,0,0,0.5243157,0,37.470305)"
       gradientUnits="userSpaceOnUse" />
    <filter
       inkscape:collect="always"
       style="color-interpolation-filters:sRGB"
       id="filter25"
       x="-0.50785681"
       y="-0.96860882"
       width="2.0157136"
       height="2.9372176">
      <feGaussianBlur
         inkscape:collect="always"
         stdDeviation="1.1417467"
         id="feGaussianBlur25" />
    </filter>
    <linearGradient
       inkscape:collect="always"
       xlink:href="#linearGradient25"
       id="linearGradient27"
       x1="60.063591"
       y1="73.685478"
       x2="62.399346"
       y2="76.037127"
       gradientUnits="userSpaceOnUse"
       gradientTransform="matrix(1.4657799,0,0,1.1315006,-28.032796,-10.534481)" />
    <filter
       inkscape:collect="always"
       style="color-interpolation-filters:sRGB"
       id="filter28"
       x="-0.055928008"
       y="-0.13391089"
       width="1.111856"
       height="1.2678218">
      <feGaussianBlur
         inkscape:collect="always"
         stdDeviation="0.18464207"
         id="feGaussianBlur28" />
    </filter>
    <linearGradient
       inkscape:collect="always"
       xlink:href="#linearGradient28"
       id="linearGradient29"
       x1="60.842049"
       y1="81.970367"
       x2="60.897621"
       y2="70.721611"
       gradientUnits="userSpaceOnUse" />
    <radialGradient
       inkscape:collect="always"
       xlink:href="#linearGradient18"
       id="radialGradient34"
       cx="60.090939"
       cy="75.952843"
       fx="60.090939"
       fy="75.952843"
       r="3.3460228"
       gradientTransform="matrix(1,0,0,0.88948616,0,8.3938405)"
       gradientUnits="userSpaceOnUse" />
    <filter
       inkscape:collect="always"
       style="color-interpolation-filters:sRGB"
       id="filter34"
       x="-0.075986871"
       y="-0.076214158"
       width="1.1519737"
       height="1.1524283">
      <feGaussianBlur
         inkscape:collect="always"
         stdDeviation="0.18235856"
         id="feGaussianBlur34" />
    </filter>
    <filter
       inkscape:collect="always"
       style="color-interpolation-filters:sRGB"
       id="filter35"
       x="-0.14913284"
       y="-0.14552479"
       width="1.2982657"
       height="1.2910496">
      <feGaussianBlur
         inkscape:collect="always"
         stdDeviation="0.1488915"
         id="feGaussianBlur35" />
    </filter>
    <linearGradient
       inkscape:collect="always"
       xlink:href="#linearGradient36"
       id="linearGradient37"
       x1="60.658482"
       y1="67.930161"
       x2="60.783604"
       y2="85.533325"
       gradientUnits="userSpaceOnUse" />
    <linearGradient
       inkscape:collect="always"
       xlink:href="#linearGradient1"
       id="linearGradient2"
       x1="60.029011"
       y1="74.400261"
       x2="59.77739"
       y2="89.920815"
       gradientUnits="userSpaceOnUse"
       spreadMethod="pad" />
    <linearGradient
       inkscape:collect="always"
       xlink:href="#linearGradient11"
       id="linearGradient12"
       x1="74.687096"
       y1="91.748009"
       x2="74.623009"
       y2="83.567108"
       gradientUnits="userSpaceOnUse" />
    <linearGradient
       inkscape:collect="always"
       xlink:href="#linearGradient22"
       id="linearGradient31"
       x1="71.618811"
       y1="85.774417"
       x2="76.993953"
       y2="85.774417"
       gradientUnits="userSpaceOnUse" />
    <radialGradient
       inkscape:collect="always"
       xlink:href="#linearGradient24"
       id="radialGradient51"
       gradientUnits="userSpaceOnUse"
       gradientTransform="matrix(1,0,0,0.5243157,0,37.470305)"
       cx="60.190409"
       cy="78.771372"
       fx="60.190409"
       fy="78.771372"
       r="2.6978" />
    <linearGradient
       inkscape:collect="always"
       xlink:href="#linearGradient1"
       id="linearGradient51"
       gradientUnits="userSpaceOnUse"
       x1="60.029011"
       y1="74.400261"
       x2="59.77739"
       y2="89.920815"
       spreadMethod="pad" />
    <linearGradient
       inkscape:collect="always"
       xlink:href="#linearGradient36"
       id="linearGradient52"
       gradientUnits="userSpaceOnUse"
       x1="60.658482"
       y1="67.930161"
       x2="60.783604"
       y2="85.533325" />
    <radialGradient
       inkscape:collect="always"
       xlink:href="#linearGradient20"
       id="radialGradient52"
       gradientUnits="userSpaceOnUse"
       gradientTransform="matrix(2.1545693,0,0,1.5818395,-72.839253,-42.697349)"
       cx="62.736851"
       cy="74.72464"
       fx="62.736851"
       fy="74.72464"
       r="0.81890017" />
    <radialGradient
       inkscape:collect="always"
       xlink:href="#linearGradient21"
       id="radialGradient53"
       gradientUnits="userSpaceOnUse"
       gradientTransform="matrix(3.7824407,0,0,1.7560939,-161.19831,-58.90604)"
       cx="57.982681"
       cy="77.59079"
       fx="57.982681"
       fy="77.59079"
       r="0.52318621" />
    <radialGradient
       inkscape:collect="always"
       xlink:href="#linearGradient18"
       id="radialGradient54"
       gradientUnits="userSpaceOnUse"
       gradientTransform="matrix(1,0,0,0.88948616,0,8.3938405)"
       cx="60.090939"
       cy="75.952843"
       fx="60.090939"
       fy="75.952843"
       r="3.3460228" />
    <linearGradient
       inkscape:collect="always"
       xlink:href="#linearGradient25"
       id="linearGradient54"
       gradientUnits="userSpaceOnUse"
       gradientTransform="matrix(1.4657799,0,0,1.1315006,-28.032796,-10.534481)"
       x1="60.063591"
       y1="73.685478"
       x2="62.399346"
       y2="76.037127" />
    <linearGradient
       inkscape:collect="always"
       xlink:href="#linearGradient28"
       id="linearGradient55"
       gradientUnits="userSpaceOnUse"
       x1="60.842049"
       y1="81.970367"
       x2="60.897621"
       y2="70.721611" />
    <radialGradient
       inkscape:collect="always"
       xlink:href="#linearGradient162"
       id="radialGradient163"
       cx="120.45483"
       cy="87.05954"
       fx="120.45483"
       fy="87.05954"
       r="25.080614"
       gradientTransform="matrix(2.1078439,-0.0178739,0.02704509,0.5311553,-135.79968,40.364592)"
       gradientUnits="userSpaceOnUse" />
  </defs>
  <g
     inkscape:label="Layer 1"
     inkscape:groupmode="layer"
     id="layer1">
    <path
       id="path1"
       style="fill:#ffccaa;stroke:#000000;stroke-width:0.100064;stroke-linecap:round;stroke-dasharray:none;paint-order:markers fill stroke"
       d="M 96.268031,83.7655 C 95.705109,98.404161 88.501023,102.63258 73.252574,102.73439 54.890769,102.857 49.881823,86.655807 49.3474,75.369348 48.591614,59.407954 59.258576,48.985188 72.98154,48.442366 87.071304,47.885033 101.25508,61.075359 95.798619,85.560005 l 1.516162,-2.440502 z"
       sodipodi:nodetypes="csssccc"
       sodipodi:insensitive="true" />
    <path
       id="path2"
       style="fill:#ffccaa;stroke:#000000;stroke-width:0;stroke-linecap:round;paint-order:markers fill stroke"
       d="m 104.94486,76.832037 c 0,4.101348 -2.13534,6.285759 -4.07644,7.426281 -8.59156,5.048091 -5.565885,0.137664 -4.076647,-7.425905 1.407096,-7.146384 1.096844,-8.549018 4.076237,-7.426658 2.10684,0.793663 4.07662,3.324181 4.07685,7.425527 l -4.07654,7.55e-4 z"
       sodipodi:nodetypes="csssccc" />
    <path
       id="path3"
       style="fill:#ffccaa;stroke:#000000;stroke-width:0;stroke-linecap:round;paint-order:markers fill stroke;fill-opacity:1"
       d="m 48.474599,76.289136 c 4.837032,7.07634 4.51191,13.676119 0.05361,9.803502 -0.419724,-0.364585 -6.69252,-4.222565 -7.639849,-9.021343 -0.74596,-3.778725 2.621263,-8.146925 4.77008,-8.147218 2.148816,-2.93e-4 2.815943,3.5127 2.816161,7.364351 l -3.597197,0.147532 z"
       sodipodi:nodetypes="csssccc" />
    <g
       id="g32">
      <path
         id="path4"
         style="fill:#ac9393;stroke:#000000;stroke-width:0;stroke-linecap:round;paint-order:markers fill stroke"
         d="m 67.126771,78.852995 c -0.0071,2.486894 -4.970643,1.910729 -6.872509,1.910729 -1.901865,0 -4.039351,-1.043447 -5.955349,-1.545808 -6.837412,-1.792723 1.287653,-8.506013 5.532447,-9.986529 4.535564,-1.581932 7.305619,6.033668 7.295411,9.621608 z"
         sodipodi:nodetypes="sssss" />
      <g
         id="g31">
        <path
           id="path13"
           style="mix-blend-mode:normal;fill:#2e0d0d;stroke:#980b10;stroke-width:0;stroke-linecap:round;paint-order:markers fill stroke;filter:url(#filter19)"
           d="m 61.045023,75.62567 a 0.89002207,1.0470842 0 0 1 -0.89002,1.047086 0.89002207,1.0470842 0 0 1 -0.890023,-1.047086 0.89002207,1.0470842 0 0 1 0.890023,-1.047084 0.89002207,1.0470842 0 0 1 0.89002,1.047084 z"
           transform="matrix(1.3633659,0,0,1.2107369,-21.900692,-15.894709)" />
        <path
           id="path23"
           style="mix-blend-mode:normal;fill:url(#radialGradient25);stroke:#980b10;stroke-width:0;stroke-linecap:round;paint-order:markers fill stroke;filter:url(#filter25)"
           d="m 62.888209,78.093191 c 0,1.155755 -1.207848,2.09268 -2.6978,2.09268 -1.489952,0 -2.6978,-0.936925 -2.6978,-2.09268 0,-1.155756 1.076246,-0.605322 2.566201,-0.605322 1.489953,0 2.829399,-0.550434 2.829399,0.605322 z"
           sodipodi:nodetypes="sssss"
           transform="matrix(1,0,0,1.3143276,0,-26.065947)" />
        <path
           id="path8"
           style="fill:url(#linearGradient2);stroke:url(#linearGradient37);stroke-width:0.1;stroke-linecap:round;stroke-dasharray:none;stroke-opacity:1;paint-order:markers fill stroke;fill-opacity:1"
           d="m 64.872876,76.879 c -1.01383,3.568666 -2.738462,3.594592 -4.444592,3.671466 -2.912186,0.131215 -5.407943,-2.00093 -5.687486,-3.745708 -0.880749,-5.497219 3.295983,-7.303224 5.618826,-6.991442 4.628501,0.621258 5.373679,4.036994 4.513252,7.065684 z"
           sodipodi:nodetypes="sssss" />
        <path
           style="fill:#000000;fill-opacity:1;stroke:#000000;stroke-width:0;stroke-linecap:round;paint-order:markers fill stroke"
           d="m 52.010173,75.40891 c 0.32819,-0.918778 0.652928,-1.458597 1.20379,-2.114656 0.550861,-0.656059 1.3278,-1.428301 1.999751,-1.998688 0.671951,-0.570388 1.238874,-0.938888 1.827075,-1.257792 0.588201,-0.318904 1.197645,-0.588193 1.764586,-0.751188 0.566942,-0.162995 1.091346,-0.219687 1.693722,-0.177165 0.602375,0.04252 1.282682,0.184253 1.913404,0.467725 0.630722,0.283472 1.211818,0.708664 1.831703,1.509054 0.619884,0.800391 1.278503,1.975901 1.618671,2.727105 0.340167,0.751203 0.361843,1.078013 -0.102137,0.582351 -0.46398,-0.495661 -1.413577,-1.813758 -2.32826,-2.536881 -0.914683,-0.723123 -1.794381,-0.851237 -2.698542,-0.891582 -0.904161,-0.04034 -1.83268,0.0071 -2.826522,0.438611 -0.993843,0.431527 -2.052909,1.247115 -2.764775,1.798971 -0.711866,0.551857 -1.076511,0.839966 -1.705963,1.749069 -0.629452,0.909103 -1.523704,2.439189 -1.805015,2.555375 -0.281311,0.116185 0.05032,-1.181532 0.378512,-2.100309 z"
           id="path6"
           sodipodi:nodetypes="ccccccccccccccccc"
           transform="translate(0.27643034,-0.33566542)"
           inkscape:original-d="m 52.013618,75.029964 c 0.324745,-0.539832 0.649483,-1.079651 0.974235,-1.619494 0.776971,-0.772275 1.55391,-1.544517 2.330865,-2.316776 0.566946,-0.368517 1.133869,-0.737018 1.700805,-1.105524 0.609467,-0.269301 1.218911,-0.538589 1.828366,-0.807884 0.524428,-0.05669 1.048832,-0.113387 1.573247,-0.17008 0.680336,0.141738 1.360643,0.283467 2.040966,0.425202 0.581121,0.425209 1.162217,0.850402 1.743327,1.275603 0.658659,1.17558 1.317278,2.35109 1.975936,3.526668 0.02168,0.326829 0.04335,0.653639 0.06503,0.980468 -0.949637,-1.318152 -1.899234,-2.636249 -2.84885,-3.954373 -0.87975,-0.128122 -1.759448,-0.256236 -2.639197,-0.384358 -0.928573,0.04743 -1.857092,0.09486 -2.785667,0.142294 -1.05911,0.815621 -2.118176,1.631209 -3.177264,2.446813 -0.364644,0.288109 -0.729289,0.576218 -1.093935,0.864328 -0.894258,1.530096 -1.78851,3.060182 -2.682766,4.590275 0.331634,-1.297722 0.663267,-2.595439 0.994902,-3.893162 z"
           inkscape:path-effect="#path-effect6" />
        <ellipse
           style="mix-blend-mode:normal;fill:url(#radialGradient21);stroke:#980b10;stroke-width:0;stroke-linecap:round;stroke-opacity:1;paint-order:markers fill stroke"
           id="path14"
           cx="62.331646"
           cy="75.505035"
           rx="1.7643772"
           ry="1.2953687" />
        <ellipse
           style="fill:url(#radialGradient23);stroke:#980b10;stroke-width:0;stroke-linecap:round;stroke-opacity:1;paint-order:markers fill stroke"
           id="path15"
           cx="58.117748"
           cy="77.35067"
           rx="1.9789208"
           ry="0.91876411" />
        <path
           id="path16"
           style="mix-blend-mode:color-burn;fill:#000000;stroke:#980b10;stroke-width:0;stroke-linecap:round;paint-order:markers fill stroke;filter:url(#filter17);fill-opacity:0"
           d="m 63.919348,78.635826 c -0.103629,2.341412 -2.051204,1.780866 -2.671675,1.745426 -4.56962,-0.261005 -5.704734,-1.024519 -4.764531,-2.177623 0.738541,-0.905777 1.821857,0.193659 3.743933,0.08685 1.308666,-0.07272 3.777473,-1.579683 3.692273,0.345343 z"
           sodipodi:nodetypes="ssssss" />
        <path
           id="path12"
           style="fill:url(#radialGradient34);stroke:url(#linearGradient27);stroke-width:0;stroke-linecap:round;paint-order:markers fill stroke"
           d="m 63.429747,75.360473 c 0.128823,1.451091 -1.488303,3.571131 -3.168308,3.568607 -1.734246,-0.0026 -3.987827,-1.750362 -3.429906,-3.600669 0.490916,-1.62809 2.117566,-2.593507 4.098532,-2.299271 1.728633,0.256757 2.441703,1.678249 2.499682,2.331333 z"
           sodipodi:nodetypes="sssss" />
        <path
           style="fill:#350d0d;fill-opacity:1;stroke:#980b10;stroke-width:0;stroke-linecap:round;stroke-dasharray:none;stroke-opacity:1;paint-order:markers fill stroke"
           d="m 66.441414,80.224458 c -0.597405,0.192048 -1.123706,0.394253 -2.259927,0.509327 0,0 -1.582087,-0.0055 -2.216606,-0.0576 -0.602243,-0.04948 -1.847992,0.08671 -2.171603,0.07897 -0.315777,-0.0076 -2.324014,-0.450882 -2.324014,-0.450882 0,0 -1.662277,-0.43744 -1.820212,-0.43744 -0.157933,0 -1.229511,-0.41932 -1.229511,-0.41932 l -1.009194,-0.503183 c 1.81545,0.524449 1.826088,0.50827 5.830161,1.65289 1.846861,-0.05148 3.885478,-0.157085 5.132877,-0.197419 z"
           id="path24"
           sodipodi:nodetypes="ccsscsccccc" />
        <ellipse
           style="fill:#2c0000;fill-opacity:1;stroke:#980b10;stroke-width:0;stroke-linecap:round;stroke-dasharray:none;stroke-opacity:1;paint-order:markers fill stroke;filter:url(#filter34)"
           id="path27"
           cx="60.635742"
           cy="75.864365"
           rx="2.8798432"
           ry="2.8712549"
           transform="matrix(1,0,-0.00876335,0.9999616,0,0)" />
        <path
           id="path28"
           style="opacity:0.916058;mix-blend-mode:multiply;fill:url(#linearGradient29);stroke:#9c7e43;stroke-width:0;stroke-linecap:round;stroke-opacity:1;paint-order:markers fill stroke;filter:url(#filter28)"
           d="m 64.131211,78.101902 c 0,1.438955 -1.820456,2.660127 -3.895112,2.594525 -1.955844,-0.06185 -4.028306,-1.089969 -4.028306,-2.528924 0,-1.438955 1.931578,-0.317799 3.889688,-0.317799 1.95811,0 4.03373,-1.186757 4.03373,0.252198 z"
           sodipodi:nodetypes="sssss"
           transform="matrix(1.1893844,0,0,1.8111668,-11.488137,-65.239134)" />
        <ellipse
           style="opacity:0.916058;fill:#ffffff;fill-opacity:1;stroke:#140001;stroke-width:0;stroke-linecap:round;stroke-dasharray:none;stroke-opacity:1;paint-order:markers fill stroke"
           id="path31"
           cx="63.447567"
           cy="75.655884"
           rx="0.53467053"
           ry="0.3861509" />
        <ellipse
           style="opacity:0.916058;fill:#ffffff;fill-opacity:1;stroke:#140001;stroke-width:0;stroke-linecap:round;stroke-dasharray:none;stroke-opacity:1;paint-order:markers fill stroke"
           id="path32"
           cx="57.94244"
           cy="78.002487"
           rx="0.61388093"
           ry="0.27723655" />
        <ellipse
           style="opacity:0.916058;fill:#150000;fill-opacity:1;stroke:#140001;stroke-width:0;stroke-linecap:round;stroke-dasharray:none;stroke-opacity:1;paint-order:markers fill stroke;filter:url(#filter35)"
           id="path33"
           cx="59.967613"
           cy="75.811256"
           rx="1.198058"
           ry="1.2277619" />
        <path
           style="fill:#000000;fill-opacity:1;fill-rule:evenodd;stroke:#000000;stroke-width:0;stroke-linecap:round;paint-order:markers fill stroke"
           d="m 52.157073,76.96709 c -0.09641,0.174902 -0.48888,0.512933 -0.746368,0.768373 l -1.35143,0.534943 1.499622,-1.300485 0.22551,-0.964947 c 0.104929,-0.422328 0.536551,-1.190661 0.849247,-1.60536"
           id="path9"
           sodipodi:nodetypes="cccccc" />
        <path
           style="fill:#000000;fill-opacity:1;fill-rule:evenodd;stroke:#000000;stroke-width:0;stroke-linecap:round;paint-order:markers fill stroke"
           d="m 51.391385,77.728904 c 0.754083,0.485271 1.863087,1.315452 2.33222,1.33444 l -1.355028,-0.980079 -0.645721,-0.734792 z"
           id="path10"
           sodipodi:nodetypes="ccccc"
           inkscape:label="path10" />
      </g>
    </g>
    <path
       id="path11"
       style="fill:url(#linearGradient12);fill-rule:evenodd;stroke:url(#linearGradient31);stroke-width:0;stroke-linecap:round;paint-order:markers fill stroke"
       d="m 76.993888,86.938779 c 0.0099,1.296617 -1.009995,2.50188 -2.449683,2.625684 -1.292459,0.111143 -2.893648,-1.333817 -2.924689,-2.625557 -0.0333,-1.385574 1.117557,-5.082698 2.601622,-5.082804 1.484065,-1.05e-4 2.772599,3.696447 2.77275,5.082422 l -2.516467,-0.04059 z"
       sodipodi:nodetypes="csssccc" />
    <path
       style="fill:#483737;fill-opacity:1;fill-rule:evenodd;stroke:#000000;stroke-width:0;stroke-linecap:round;paint-order:markers fill stroke"
       d="m 75.329898,88.273653 c 0.05576,-0.232564 0.02048,-0.506095 0.548852,-0.525983 l 0.37949,0.246279 z"
       id="path18"
       sodipodi:nodetypes="cccc" />
    <path
       style="fill:#483737;fill-opacity:1;fill-rule:evenodd;stroke:#000000;stroke-width:0;stroke-linecap:round;paint-order:markers fill stroke"
       d="m 73.667179,88.310502 c -0.06065,-0.20485 -0.02884,-0.447602 -0.569525,-0.455684 l -0.384269,0.224835 z"
       id="path19"
       sodipodi:nodetypes="cccc" />
    <g
       id="g46"
       transform="matrix(-0.96664908,0,0,1,143.48405,-0.10522204)">
      <path
         id="path34"
         style="fill:#ac9393;stroke:#000000;stroke-width:0;stroke-linecap:round;paint-order:markers fill stroke"
         d="m 67.126771,78.852995 c -0.0071,2.486894 -4.970643,1.910729 -6.872509,1.910729 -1.901865,0 -4.039351,-1.043447 -5.955349,-1.545808 -6.837412,-1.792723 1.287653,-8.506013 5.532447,-9.986529 4.535564,-1.581932 7.305619,6.033668 7.295411,9.621608 z"
         sodipodi:nodetypes="sssss" />
      <g
         id="g45">
        <path
           id="path35"
           style="mix-blend-mode:normal;fill:#2e0d0d;stroke:#980b10;stroke-width:0;stroke-linecap:round;paint-order:markers fill stroke;filter:url(#filter19)"
           d="m 61.045023,75.62567 a 0.89002207,1.0470842 0 0 1 -0.89002,1.047086 0.89002207,1.0470842 0 0 1 -0.890023,-1.047086 0.89002207,1.0470842 0 0 1 0.890023,-1.047084 0.89002207,1.0470842 0 0 1 0.89002,1.047084 z"
           transform="matrix(1.3633659,0,0,1.2107369,-21.900692,-15.894709)" />
        <path
           id="path36"
           style="mix-blend-mode:normal;fill:url(#radialGradient51);stroke:#980b10;stroke-width:0;stroke-linecap:round;paint-order:markers fill stroke;filter:url(#filter25)"
           d="m 62.888209,78.093191 c 0,1.155755 -1.207848,2.09268 -2.6978,2.09268 -1.489952,0 -2.6978,-0.936925 -2.6978,-2.09268 0,-1.155756 1.076246,-0.605322 2.566201,-0.605322 1.489953,0 2.829399,-0.550434 2.829399,0.605322 z"
           sodipodi:nodetypes="sssss"
           transform="matrix(1,0,0,1.3143276,0,-26.065947)" />
        <path
           id="path37"
           style="fill:url(#linearGradient51);fill-opacity:1;stroke:url(#linearGradient52);stroke-width:0.1;stroke-linecap:round;stroke-dasharray:none;stroke-opacity:1;paint-order:markers fill stroke"
           d="m 64.872876,76.879 c -1.01383,3.568666 -2.738462,3.594592 -4.444592,3.671466 -2.912186,0.131215 -5.407943,-2.00093 -5.687486,-3.745708 -0.880749,-5.497219 3.295983,-7.303224 5.618826,-6.991442 4.628501,0.621258 5.373679,4.036994 4.513252,7.065684 z"
           sodipodi:nodetypes="sssss" />
        <path
           style="fill:#000000;fill-opacity:1;stroke:#000000;stroke-width:0;stroke-linecap:round;paint-order:markers fill stroke"
           d="m 52.010173,75.40891 c 0.32819,-0.918778 0.652928,-1.458597 1.20379,-2.114656 0.550861,-0.656059 1.3278,-1.428301 1.999751,-1.998688 0.671951,-0.570388 1.238874,-0.938888 1.827075,-1.257792 0.588201,-0.318904 1.197645,-0.588193 1.764586,-0.751188 0.566942,-0.162995 1.091346,-0.219687 1.693722,-0.177165 0.602375,0.04252 1.282682,0.184253 1.913404,0.467725 0.630722,0.283472 1.211818,0.708664 1.831703,1.509054 0.619884,0.800391 1.278503,1.975901 1.618671,2.727105 0.340167,0.751203 0.361843,1.078013 -0.102137,0.582351 -0.46398,-0.495661 -1.413577,-1.813758 -2.32826,-2.536881 -0.914683,-0.723123 -1.794381,-0.851237 -2.698542,-0.891582 -0.904161,-0.04034 -1.83268,0.0071 -2.826522,0.438611 -0.993843,0.431527 -2.052909,1.247115 -2.764775,1.798971 -0.711866,0.551857 -1.076511,0.839966 -1.705963,1.749069 -0.629452,0.909103 -1.523704,2.439189 -1.805015,2.555375 -0.281311,0.116185 0.05032,-1.181532 0.378512,-2.100309 z"
           id="path38"
           sodipodi:nodetypes="ccccccccccccccccc"
           transform="translate(0.27643034,-0.33566542)"
           inkscape:original-d="m 52.013618,75.029964 c 0.324745,-0.539832 0.649483,-1.079651 0.974235,-1.619494 0.776971,-0.772275 1.55391,-1.544517 2.330865,-2.316776 0.566946,-0.368517 1.133869,-0.737018 1.700805,-1.105524 0.609467,-0.269301 1.218911,-0.538589 1.828366,-0.807884 0.524428,-0.05669 1.048832,-0.113387 1.573247,-0.17008 0.680336,0.141738 1.360643,0.283467 2.040966,0.425202 0.581121,0.425209 1.162217,0.850402 1.743327,1.275603 0.658659,1.17558 1.317278,2.35109 1.975936,3.526668 0.02168,0.326829 0.04335,0.653639 0.06503,0.980468 -0.949637,-1.318152 -1.899234,-2.636249 -2.84885,-3.954373 -0.87975,-0.128122 -1.759448,-0.256236 -2.639197,-0.384358 -0.928573,0.04743 -1.857092,0.09486 -2.785667,0.142294 -1.05911,0.815621 -2.118176,1.631209 -3.177264,2.446813 -0.364644,0.288109 -0.729289,0.576218 -1.093935,0.864328 -0.894258,1.530096 -1.78851,3.060182 -2.682766,4.590275 0.331634,-1.297722 0.663267,-2.595439 0.994902,-3.893162 z"
           inkscape:path-effect="#path-effect47" />
        <ellipse
           style="mix-blend-mode:normal;fill:url(#radialGradient52);stroke:#980b10;stroke-width:0;stroke-linecap:round;stroke-opacity:1;paint-order:markers fill stroke"
           id="ellipse38"
           cx="62.331646"
           cy="75.505035"
           rx="1.7643772"
           ry="1.2953687" />
        <ellipse
           style="fill:url(#radialGradient53);stroke:#980b10;stroke-width:0;stroke-linecap:round;stroke-opacity:1;paint-order:markers fill stroke"
           id="ellipse39"
           cx="58.117748"
           cy="77.35067"
           rx="1.9789208"
           ry="0.91876411" />
        <path
           id="path39"
           style="mix-blend-mode:color-burn;fill:#000000;fill-opacity:0;stroke:#980b10;stroke-width:0;stroke-linecap:round;paint-order:markers fill stroke;filter:url(#filter17)"
           d="m 63.919348,78.635826 c -0.103629,2.341412 -2.051204,1.780866 -2.671675,1.745426 -4.56962,-0.261005 -5.704734,-1.024519 -4.764531,-2.177623 0.738541,-0.905777 1.821857,0.193659 3.743933,0.08685 1.308666,-0.07272 3.777473,-1.579683 3.692273,0.345343 z"
           sodipodi:nodetypes="ssssss" />
        <path
           id="path40"
           style="fill:url(#radialGradient54);stroke:url(#linearGradient54);stroke-width:0;stroke-linecap:round;paint-order:markers fill stroke"
           d="m 63.429747,75.360473 c 0.128823,1.451091 -1.488303,3.571131 -3.168308,3.568607 -1.734246,-0.0026 -3.987827,-1.750362 -3.429906,-3.600669 0.490916,-1.62809 2.117566,-2.593507 4.098532,-2.299271 1.728633,0.256757 2.441703,1.678249 2.499682,2.331333 z"
           sodipodi:nodetypes="sssss" />
        <path
           style="fill:#350d0d;fill-opacity:1;stroke:#980b10;stroke-width:0;stroke-linecap:round;stroke-dasharray:none;stroke-opacity:1;paint-order:markers fill stroke"
           d="m 66.441414,80.224458 c -0.597405,0.192048 -1.123706,0.394253 -2.259927,0.509327 0,0 -1.582087,-0.0055 -2.216606,-0.0576 -0.602243,-0.04948 -1.847992,0.08671 -2.171603,0.07897 -0.315777,-0.0076 -2.324014,-0.450882 -2.324014,-0.450882 0,0 -1.662277,-0.43744 -1.820212,-0.43744 -0.157933,0 -1.229511,-0.41932 -1.229511,-0.41932 L 53.410347,78.94433 c 1.81545,0.524449 1.826088,0.50827 5.830161,1.65289 1.846861,-0.05148 3.885478,-0.157085 5.132877,-0.197419 z"
           id="path41"
           sodipodi:nodetypes="ccsscsccccc" />
        <ellipse
           style="fill:#2c0000;fill-opacity:1;stroke:#980b10;stroke-width:0;stroke-linecap:round;stroke-dasharray:none;stroke-opacity:1;paint-order:markers fill stroke;filter:url(#filter34)"
           id="ellipse41"
           cx="60.635742"
           cy="75.864365"
           rx="2.8798432"
           ry="2.8712549"
           transform="matrix(1,0,-0.00876335,0.9999616,0,0)" />
        <path
           id="path42"
           style="opacity:0.916058;mix-blend-mode:multiply;fill:url(#linearGradient55);stroke:#9c7e43;stroke-width:0;stroke-linecap:round;stroke-opacity:1;paint-order:markers fill stroke;filter:url(#filter28)"
           d="m 64.131211,78.101902 c 0,1.438955 -1.820456,2.660127 -3.895112,2.594525 -1.955844,-0.06185 -4.028306,-1.089969 -4.028306,-2.528924 0,-1.438955 1.931578,-0.317799 3.889688,-0.317799 1.95811,0 4.03373,-1.186757 4.03373,0.252198 z"
           sodipodi:nodetypes="sssss"
           transform="matrix(1.1893844,0,0,1.8111668,-11.488137,-65.239134)" />
        <ellipse
           style="opacity:0.916058;fill:#ffffff;fill-opacity:1;stroke:#140001;stroke-width:0;stroke-linecap:round;stroke-dasharray:none;stroke-opacity:1;paint-order:markers fill stroke"
           id="ellipse42"
           cx="63.447567"
           cy="75.655884"
           rx="0.53467053"
           ry="0.3861509" />
        <ellipse
           style="opacity:0.916058;fill:#ffffff;fill-opacity:1;stroke:#140001;stroke-width:0;stroke-linecap:round;stroke-dasharray:none;stroke-opacity:1;paint-order:markers fill stroke"
           id="ellipse43"
           cx="57.94244"
           cy="78.002487"
           rx="0.61388093"
           ry="0.27723655" />
        <ellipse
           style="opacity:0.916058;fill:#150000;fill-opacity:1;stroke:#140001;stroke-width:0;stroke-linecap:round;stroke-dasharray:none;stroke-opacity:1;paint-order:markers fill stroke;filter:url(#filter35)"
           id="ellipse44"
           cx="59.967613"
           cy="75.811256"
           rx="1.198058"
           ry="1.2277619" />
        <path
           style="fill:#000000;fill-opacity:1;fill-rule:evenodd;stroke:#000000;stroke-width:0;stroke-linecap:round;paint-order:markers fill stroke"
           d="m 52.157073,76.96709 c -0.09641,0.174902 -0.48888,0.512933 -0.746368,0.768373 l -1.35143,0.534943 1.499622,-1.300485 0.22551,-0.964947 c 0.104929,-0.422328 0.536551,-1.190661 0.849247,-1.60536"
           id="path44"
           sodipodi:nodetypes="cccccc" />
        <path
           style="fill:#000000;fill-opacity:1;fill-rule:evenodd;stroke:#000000;stroke-width:0;stroke-linecap:round;paint-order:markers fill stroke"
           d="m 51.391385,77.728904 c 0.754083,0.485271 1.863087,1.315452 2.33222,1.33444 l -1.355028,-0.980079 -0.645721,-0.734792 z"
           id="path45"
           sodipodi:nodetypes="ccccc"
           inkscape:label="path10" />
      </g>
    </g>
    <path
       id="path55"
       style="fill:#483737;fill-opacity:1;fill-rule:evenodd;stroke:#000000;stroke-width:0;stroke-linecap:round;paint-order:markers fill stroke"
       d="m 72.670551,42.399807 -7.185659,2.979331 -6.402193,3.032374 -3.594613,2.69596 -4.492749,4.04368 -2.022099,3.931543 -1.235583,9.21029 -0.449069,14.040487 c 0,0 1.122929,11.344959 1.122929,12.018904 0,0.673944 2.920752,9.210814 2.920752,9.210814 l 1.909444,6.51433 4.605404,4.71806 -3.145028,-4.60541 L 51.89399,100.5303 49.984546,92.892 49.310168,82.558265 c 0,0 2.021913,-6.514765 2.134237,-7.188709 0.104872,-0.629237 1.956621,-3.549073 2.295984,-4.394563 -0.170863,0.06352 1.607105,-0.139751 0.06873,-0.175184 -0.0075,0.03726 1.069895,-0.03349 1.045785,0.02658 0.151183,-0.05621 -0.443799,-0.414542 1.00887,-2.296209 0.809721,-1.202665 3.504278,-4.69725 1.533756,-2.033984 -0.604551,0.817083 -1.105861,1.479722 -1.533756,2.033984 -0.654304,0.971824 -0.104191,0.479275 5.339209,-6.220293 l -3.127697,3.927782 c 1.321347,-2.08152 -1.827137,1.494484 1.300483,-2.053715 -1.779821,2.042635 3.465905,-3.827555 2.618763,-2.531064 -0.818245,0.779566 -1.181882,0.303268 -1.757211,1.802595 l -2.7106,4.20963 1.219047,-1.506367 -1.441255,1.821078 -2.229726,1.765719 -1.405195,2.686721 6.199105,-3.577559 c 0,0 3.482018,-0.22442 4.380611,-0.449067 0.898593,-0.224649 4.268431,-1.460148 4.605404,-1.909444 0.336971,-0.449297 1.235583,-4.493267 1.235583,-4.493267 l 1.797307,-6.626985 -1.347722,5.391402 0.898137,4.942334 1.797306,6.73964 -1.460376,-8.76174 1.123446,-5.616193 0.0026,-0.149862 0.06925,2.659786 1.207678,7.664131 1.942517,4.147551 1.469678,1.154967 -1.837614,-2.782258 -1.207161,-4.252453 -0.525033,-6.666777 1.364775,5.249292 3.832324,2.677355 4.567163,1.154969 7.874455,3.832325 2.572453,2.887161 0.629935,7.611939 -0.157613,8.347294 -0.261999,7.821745 -2.46755,9.921868 -6.404777,4.61987 7.454842,-4.14703 2.624646,-4.46226 1.417485,-4.41007 1.417484,-7.874445 0.453719,-10.692888 V 71.972344 L 98.355774,59.750867 96.092346,55.353202 89.561478,48.434245 82.319026,46.300526 75.528692,43.110298 72.818865,42.696924 Z"
       sodipodi:nodetypes="ccccccccscccccccsccccsccccccccccccsscccccccccccccccccccccccccccccccccccccc" />
    <path
       id="path57"
       style="fill:#ff5555;fill-rule:evenodd;stroke:#000000;stroke-width:0;stroke-linecap:round;stroke-opacity:0.0290456;paint-order:markers fill stroke"
       d="m 79.170475,94.369509 c -0.713303,0.876305 -1.919326,1.45133 -4.123358,1.443211 -2.277269,-0.0084 -4.385293,-1.235342 -4.381361,-2.032381 0.0039,-0.800097 3.128978,-0.419263 5.064977,-0.449957 2.767148,-0.04387 4.780892,-0.465293 3.437402,1.038979 l -4.121123,1.47e-4 z"
       sodipodi:nodetypes="csssccc" />
    <path
       id="path58"
       style="fill:#ff2a2a;fill-rule:evenodd;stroke:#000000;stroke-width:0;stroke-linecap:round;stroke-opacity:0.0290456;paint-order:markers fill stroke"
       d="m 77.32031,95.1194 c 0.282782,0.527232 -0.796898,0.686566 -2.049155,0.688809 -1.191932,0.0021 -2.189664,-0.144489 -2.049259,-0.688774 0.09502,-0.368353 1.055834,-0.827323 2.187559,-0.827352 1.131725,-2.9e-5 1.890547,0.446835 1.890662,0.827247 l -2.029014,7e-5 z"
       sodipodi:nodetypes="csssccc" />
    <path
       style="opacity:0.99;fill:#483737;fill-opacity:1;stroke:#262020;stroke-width:0.1;stroke-dasharray:none;stroke-opacity:1"
       d="m 44.056363,69.705616 1.810536,-0.603512 1.508778,1.207024 1.65966,-10.410579 2.866681,-4.677216 11.466725,-7.996531 11.617601,-3.771952 14.182529,6.789509 8.600044,9.203557 1.056145,9.656188 2.866678,0.452633 2.41405,3.168439 1.05614,1.508779 c 1.42869,-3.038357 -0.3734,-20.901307 -3.77194,-25.951009 l -6.186,-7.845653 C 93.09717,38.577742 85.72321,32.916981 78.30566,34.852809 70.649703,31.55109 62.485001,37.158652 55.221332,40.133537 l -5.280728,4.526338 -5.431608,7.845655 -1.508778,8.14741 z"
       id="path43"
       sodipodi:nodetypes="ccccccccccccccccccccc" />
    <path
       style="opacity:0.99;fill:#ffccaa;fill-opacity:1;stroke:#262020;stroke-width:0.1;stroke-dasharray:none;stroke-opacity:1"
       d="m 69.102104,102.44613 v 4.67722 l 6.185995,2.86668 9.203558,-4.52634 v -3.92283 l -5.884241,1.05615 -6.940386,-0.15088 z"
       id="path46" />
    <path
       style="opacity:0.99;fill:#008080;fill-opacity:1;stroke:#262020;stroke-width:0.1;stroke-dasharray:none;stroke-opacity:1"
       d="m 68.822566,104.87248 v 2.28416 l 6.157286,2.88002 9.533863,-4.86624 -0.09931,-2.08554 -0.297934,-1.48966 4.369689,0.79449 c 0,0 0,2.28415 0.09931,2.68139 0.09931,0.39725 1.390356,3.17796 1.390356,3.17796 l 1.390353,1.48966 -5.561417,3.77383 -1.68829,3.17795 -4.866241,5.56142 -3.177955,2.38347 -5.660731,-1.48967 -1.390354,-2.48278 -4.568309,-3.27726 -3.078644,-3.37658 -3.078641,-5.06486 3.277264,-4.56831 5.958665,-1.58898 1.489665,-0.29793 z"
       id="path47" />
    <path
       style="opacity:0.99;fill:#008080;fill-opacity:1;stroke:#262020;stroke-width:0.1;stroke-dasharray:none;stroke-opacity:1"
       d="m 58.412826,108.74338 -3.061469,2.20425 2.571633,3.67377 -4.286054,-3.67377 -9.06195,5.26573 -2.571634,5.14327 -0.97967,8.57211 -2.93901,16.53193 -2.449174,9.91916 -0.489836,4.04114 c 0,0 1.347047,5.38819 1.836883,6.49031 0.489834,1.10213 5.020807,9.7967 5.020807,9.7967 l 5.755564,6.73524 5.87802,-1.34705 9.429324,-6.00048 2.81655,-4.1636 0.97967,-3.06147 -1.10213,-3.79622 -4.286054,-2.44917 -3.673763,-2.69409 0.612293,-2.44918 -2.449176,-2.57163 -1.714421,-3.06147 2.939011,4.16359 c 0,0 0.367376,0.24492 0.367376,-0.61229 0,-0.85721 5.755561,-18.85865 5.755561,-18.85865 l 0.122459,-7.83736 1.836881,-10.53145 z"
       id="path48" />
    <path
       style="opacity:0.99;fill:#008080;fill-opacity:1;stroke:#262020;stroke-width:0.1;stroke-dasharray:none;stroke-opacity:1"
       d="m 92.604166,109.5081 6.369597,4.65471 4.164737,13.71913 c 0,0 2.44985,19.59877 2.44985,21.06867 0,1.46991 1.22492,17.39391 1.22492,17.39391 v 11.51427 l -7.104553,7.59453 -15.434026,2.20486 c 0,0 -15.434027,0 -15.679013,1.22492 -0.244985,1.22492 -21.558641,-3.67477 -21.558641,-3.67477 l -4.164737,-4.16474 0.489968,-2.93981 4.899692,4.89969 7.104552,-0.73495 7.349537,-5.63465 3.429783,-8.08449 -1.469908,-4.65471 -7.594521,-4.6547 0.979938,-2.20486 c 0,0 0,-0.73496 0,-1.95988 0,-1.22492 5.634646,-19.84375 5.634646,-19.84375 l 0.244985,-10.04437 1.469906,-7.10455 4.164738,2.93982 1.959877,2.20486 5.144675,1.22492 9.064429,-9.06443 0.97994,-2.44985 z"
       id="path49" />
    <path
       style="opacity:0.99;fill:#008080;fill-opacity:1;stroke:#262020;stroke-width:0.1;stroke-dasharray:none;stroke-opacity:1"
       d="m 98.72878,113.18287 6.3696,4.40972 c 0,0 3.1848,7.83951 3.1848,9.5544 0,1.71489 2.44984,14.94406 2.44984,14.94406 l 4.65471,20.08873 -0.24498,9.06443 -9.30942,6.61458"
       id="path50" />
    <path
       style="opacity:0.99;fill:#4d4d4d;fill-opacity:1;stroke:#262020;stroke-width:0.1;stroke-dasharray:none;stroke-opacity:1"
       d="m 54.916881,186.60185 -4.708227,12.30572 5.371115,30.08108 2.593723,22.97297 15.562337,1.1116 4.446381,-26.67829 4.446381,-40.38797"
       id="path51"
       sodipodi:nodetypes="ccccccc" />
    <path
       style="opacity:0.99;fill:#4d4d4d;fill-opacity:1;stroke:#262020;stroke-width:0.1;stroke-dasharray:none;stroke-opacity:1"
       d="m 77.070613,225.28333 5.557978,27.78989 14.821273,1.85266 5.187446,-32.6068 5.18744,-22.60244 0.74107,-22.60244 -7.41064,7.78117 -19.638183,1.11159 0.741063,0.74107 z"
       id="path52" />
    <path
       style="opacity:0.99;fill:#ffccaa;fill-opacity:1;stroke:#262020;stroke-width:0.0993966;stroke-dasharray:none;stroke-opacity:1"
       d="m 58.23247,251.76811 0.81073,18.28195 11.389712,-0.36917 3.70504,-18.06476 z"
       id="path53"
       sodipodi:nodetypes="ccccc" />
    <path
       style="opacity:0.99;fill:#ffccaa;fill-opacity:1;stroke:#262020;stroke-width:0.1;stroke-dasharray:none;stroke-opacity:1"
       d="m 82.25806,253.07322 0.741064,16.67393 h 12.59808 l 2.593723,-15.93287 z"
       id="path54" />
    <g
       id="g69"
       transform="matrix(0.9498602,0,0,1.0000791,3.5468333,-0.02232742)">
      <path
         id="path56"
         style="opacity:0.99;fill:#808080;stroke:#262020;stroke-width:0.1"
         d="m 74.68764,291.21191 c -0.530459,1.53788 -3.531636,2.94557 -7.888133,2.94557 -4.356497,0 -7.155715,-1.49298 -7.888133,-2.94557 -1.096754,-2.17517 2.383889,-9.27516 8.287532,-8.637 5.551478,0.60009 8.078945,6.92589 7.488734,8.637 z"
         sodipodi:nodetypes="sssss" />
      <path
         style="opacity:0.99;fill:#ffffff;fill-opacity:1;stroke:#262020;stroke-width:0.1;stroke-dasharray:none;stroke-opacity:1"
         d="m 58.887066,290.82822 3.042134,1.56454 4.693581,0.69532 4.30245,-0.73879 3.737483,-1.9122 v 0.91263 l -1.260313,1.1734 -2.086039,1.04301 -3.389807,0.60844 -3.476728,-0.17383 -2.520627,-0.60844 -2.086036,-1.08648 -0.86918,-0.91263 z"
         id="path59" />
      <path
         style="opacity:0.99;fill:#808080;fill-opacity:1;stroke:#262020;stroke-width:0.100836;stroke-dasharray:none;stroke-opacity:1"
         d="m 58.577195,269.96746 1.669588,10.25667 7.98695,-0.29791 2.2562,-10.17156"
         id="path60"
         sodipodi:nodetypes="cccc" />
      <path
         style="opacity:0.99;fill:#000000;fill-opacity:1;stroke:#262020;stroke-width:0.1;stroke-dasharray:none;stroke-opacity:1"
         d="m 60.739358,279.62754 -2.113047,9.67962 1.050101,-1.53524 c 1.212886,-1.09754 2.110242,-2.0977 4.650047,-2.47147 1.794349,-0.95827 3.912913,-0.59642 5.707261,0.0272 l 2.177876,1.10168 1.581936,0.96561 -5.562764,-7.82262 z"
         id="path61"
         sodipodi:nodetypes="ccccccccc" />
      <path
         style="opacity:0.99;fill:none;fill-opacity:1;stroke:#ffffff;stroke-width:0.1;stroke-dasharray:none;stroke-opacity:1"
         d="m 62.942271,279.61288 3.785862,1.65981 -3.618016,1.71577 4.942134,1.79036"
         id="path62" />
      <path
         style="opacity:0.99;fill:none;fill-opacity:1;stroke:#ffffff;stroke-width:0.1;stroke-dasharray:none;stroke-opacity:1"
         d="m 63.166066,285.56209 3.972356,-2.44308 -4.382645,-1.79036 3.468817,-1.80901"
         id="path63" />
      <path
         style="opacity:0.99;fill:none;fill-opacity:1;stroke:#ffffff;stroke-width:0.1;stroke-dasharray:none;stroke-opacity:1"
         d="m 62.886322,279.55692 -0.671383,6.19167"
         id="path64" />
      <path
         style="opacity:0.99;fill:none;fill-opacity:1;stroke:#ffffff;stroke-width:0.1;stroke-dasharray:none;stroke-opacity:1"
         d="m 66.243244,279.44503 1.809007,5.31513"
         id="path65" />
      <path
         style="opacity:0.99;fill:none;fill-opacity:1;stroke:#ffffff;stroke-width:0.1;stroke-dasharray:none;stroke-opacity:1"
         d="m 62.543779,279.55647 -0.693774,6.27867 -0.104066,0.34689 0.450953,-0.27752 v -0.38158"
         id="path66" />
      <path
         style="opacity:0.99;fill:none;fill-opacity:1;stroke:#ffffff;stroke-width:0.1;stroke-dasharray:none;stroke-opacity:1"
         d="m 66.324852,279.45241 0.52033,0.0347 1.734436,5.41144 -0.624395,-0.24283"
         id="path67" />
      <path
         style="opacity:0.99;fill:none;fill-opacity:1;stroke:#ffffff;stroke-width:0.1;stroke-dasharray:none;stroke-opacity:1"
         d="m 59.04022,291.31596 0.06938,0.90191 1.005972,0.72845 1.734437,0.90191 2.671032,0.83254 3.121985,0.20812 2.740412,-0.10406 2.42821,-1.11003 1.214104,-0.65911 0.659088,-1.69973 -1.179417,1.35286 c 0,0 -1.838502,0.90189 -2.324145,1.00598 -0.485643,0.10406 -3.468873,0.62439 -3.607628,0.55501 -0.138756,-0.0694 -3.468873,-0.24283 -3.468873,-0.24283 0,0 -1.942568,-0.65908 -2.116013,-0.65908 -0.173442,0 -2.566966,-1.42224 -2.566966,-1.42224 z"
         id="path68" />
    </g>
    <g
       id="g89"
       transform="matrix(1.1105784,0,0,1.0215579,17.451098,-6.3599358)">
      <path
         id="path79"
         style="opacity:0.99;fill:#808080;stroke:#262020;stroke-width:0.1"
         d="m 74.68764,291.21191 c -0.530459,1.53788 -3.531636,2.94557 -7.888133,2.94557 -4.356497,0 -7.155715,-1.49298 -7.888133,-2.94557 -1.096754,-2.17517 2.383889,-9.27516 8.287532,-8.637 5.551478,0.60009 8.078945,6.92589 7.488734,8.637 z"
         sodipodi:nodetypes="sssss" />
      <path
         style="opacity:0.99;fill:#ffffff;fill-opacity:1;stroke:#262020;stroke-width:0.1;stroke-dasharray:none;stroke-opacity:1"
         d="m 58.887066,290.82822 3.042134,1.56454 4.693581,0.69532 4.30245,-0.73879 3.737483,-1.9122 v 0.91263 l -1.260313,1.1734 -2.086039,1.04301 -3.389807,0.60844 -3.476728,-0.17383 -2.520627,-0.60844 -2.086036,-1.08648 -0.86918,-0.91263 z"
         id="path80" />
      <path
         style="opacity:0.99;fill:#808080;fill-opacity:1;stroke:#262020;stroke-width:0.1;stroke-dasharray:none;stroke-opacity:1"
         d="m 59.017442,269.75056 1.607986,10.47364 7.692258,-0.30422 2.172954,-10.38672"
         id="path81"
         sodipodi:nodetypes="cccc" />
      <path
         style="opacity:0.99;fill:#000000;fill-opacity:1;stroke:#262020;stroke-width:0.1;stroke-dasharray:none;stroke-opacity:1"
         d="m 60.739358,279.62754 -2.113047,9.67962 1.050101,-1.53524 c 1.212886,-1.09754 2.110242,-2.0977 4.650047,-2.47147 1.794349,-0.95827 3.912913,-0.59642 5.707261,0.0272 l 2.177876,1.10168 1.581936,0.96561 -5.562764,-7.82262 z"
         id="path82"
         sodipodi:nodetypes="ccccccccc" />
      <path
         style="opacity:0.99;fill:none;fill-opacity:1;stroke:#ffffff;stroke-width:0.1;stroke-dasharray:none;stroke-opacity:1"
         d="m 62.942271,279.61288 3.785862,1.65981 -3.618016,1.71577 4.942134,1.79036"
         id="path83" />
      <path
         style="opacity:0.99;fill:none;fill-opacity:1;stroke:#ffffff;stroke-width:0.1;stroke-dasharray:none;stroke-opacity:1"
         d="m 63.166066,285.56209 3.972356,-2.44308 -4.382645,-1.79036 3.468817,-1.80901"
         id="path84" />
      <path
         style="opacity:0.99;fill:none;fill-opacity:1;stroke:#ffffff;stroke-width:0.1;stroke-dasharray:none;stroke-opacity:1"
         d="m 62.886322,279.55692 -0.671383,6.19167"
         id="path85" />
      <path
         style="opacity:0.99;fill:none;fill-opacity:1;stroke:#ffffff;stroke-width:0.1;stroke-dasharray:none;stroke-opacity:1"
         d="m 66.243244,279.44503 1.809007,5.31513"
         id="path86" />
      <path
         style="opacity:0.99;fill:none;fill-opacity:1;stroke:#ffffff;stroke-width:0.1;stroke-dasharray:none;stroke-opacity:1"
         d="m 62.543779,279.55647 -0.693774,6.27867 -0.104066,0.34689 0.450953,-0.27752 v -0.38158"
         id="path87" />
      <path
         style="opacity:0.99;fill:none;fill-opacity:1;stroke:#ffffff;stroke-width:0.1;stroke-dasharray:none;stroke-opacity:1"
         d="m 66.324852,279.45241 0.52033,0.0347 1.734436,5.41144 -0.624395,-0.24283"
         id="path88" />
      <path
         style="opacity:0.99;fill:none;fill-opacity:1;stroke:#ffffff;stroke-width:0.1;stroke-dasharray:none;stroke-opacity:1"
         d="m 59.04022,291.31596 0.06938,0.90191 1.005972,0.72845 1.734437,0.90191 2.671032,0.83254 3.121985,0.20812 2.740412,-0.10406 2.42821,-1.11003 1.214104,-0.65911 0.659088,-1.69973 -1.179417,1.35286 c 0,0 -1.838502,0.90189 -2.324145,1.00598 -0.485643,0.10406 -3.468873,0.62439 -3.607628,0.55501 -0.138756,-0.0694 -3.468873,-0.24283 -3.468873,-0.24283 0,0 -1.942568,-0.65908 -2.116013,-0.65908 -0.173442,0 -2.566966,-1.42224 -2.566966,-1.42224 z"
         id="path89" />
    </g>
    <path
       style="opacity:0.99;fill:#483737;fill-opacity:1;stroke:#ffffff;stroke-width:0.1;stroke-dasharray:none;stroke-opacity:1"
       d="m 45.268319,83.830222 -8.862052,35.088938 c 0,0 -9.460839,34.01112 -9.580597,34.72966 -0.119756,0.71855 0.479031,26.10713 0.479031,26.82567 0,0.71855 3.35321,14.01162 3.35321,14.01162 l 8.143507,26.82567 -0.598789,-14.61041 1.556848,11.01769 c 0,0 4.431024,4.43103 4.910055,5.02981 0.479031,0.59879 9.101566,1.79637 9.700355,2.03588 0.598787,0.23951 -1.077817,-18.08338 -1.077817,-18.08338 l -0.479031,-7.3052 2.395149,-12.45478 -8.023749,-2.03587 c 0,0 -4.550783,-3.23345 -4.431027,-3.71248 0.119758,-0.47904 0.838303,-3.35321 0.838303,-3.35321 l -2.395149,-1.79636 -5.149572,-10.29915 -1.077817,-7.18544 3.832241,-17.12532 3.113693,-20.23901 2.514907,-5.02982 8.742294,-5.50884 v -2.03587 l -3.35321,-9.580601 -1.556846,-5.6286 -0.718545,-7.903993 z"
       id="path90" />
    <path
       style="opacity:0.99;fill:#483737;fill-opacity:0.99215686;stroke:#ffffff;stroke-width:0.1;stroke-dasharray:none;stroke-opacity:1"
       d="m 49.68287,87.018518 0.440971,6.17361 4.409723,16.168982 0.734954,1.46991 3.233796,-2.35185 3.233795,-4.70371 6.908565,-1.32292 -6.3206,-1.91087 -4.850696,-3.380792 -2.792822,-3.527777 -3.52778,-6.908564 z"
       id="path91" />
    <path
       style="opacity:0.99;fill:#483737;fill-opacity:0.992157;stroke:#ffffff;stroke-width:0.1;stroke-dasharray:none;stroke-opacity:1"
       d="m 84.813658,101.42361 3.674766,1.17593 0.587965,2.64583 2.20486,4.26273 1.910879,-7.05556 1.76389,-9.11342 -4.262732,5.144674 z"
       id="path92" />
    <path
       style="opacity:0.99;fill:#483737;fill-opacity:0.992157;stroke:#ffffff;stroke-width:0.1;stroke-dasharray:none;stroke-opacity:1"
       d="m 104.06944,81.579859 8.67246,40.275461 3.52777,36.15972 -1.91088,40.42246 -3.52777,27.78125 -5.58565,2.93981 -3.2338,-1.17592 2.79283,-15.58102 c 0,0 1.76389,-12.20023 2.35185,-12.49421 0.58796,-0.29399 1.02893,-23.51852 1.02893,-23.51852 l 6.76158,-5.43866 0.58796,-9.40741 -8.08449,-36.4537 -2.79282,-7.64352 -7.055559,-4.55671 -4.115742,-2.79283 -0.44097,-0.58796 3.821758,-6.90856 0.734954,-7.643522 1.76389,-10.14236 z"
       id="path93" />
    <path
       style="opacity:0.99;fill:none;fill-opacity:0.992157;stroke:#ffffff;stroke-width:0.5;stroke-dasharray:none;stroke-opacity:1"
       d="m 100.67152,183.52507 -9.799881,-15.14527 4.899941,-6.68174 5.34539,-5.79084 -4.454493,-30.29054"
       id="path94" />
    <path
       style="opacity:0.99;fill:#c87137;fill-opacity:0.992157;stroke:#954343;stroke-width:0;stroke-dasharray:none;stroke-opacity:1"
       d="m 47.138378,72.821746 -2.035876,-0.783029 -1.252847,2.975512 2.192483,3.915148 1.252847,2.975512"
       id="path95" />
    <path
       style="opacity:0.99;fill:#c87137;fill-opacity:0.992157;stroke:#954343;stroke-width:0;stroke-dasharray:none;stroke-opacity:1"
       d="m 99.101329,74.365137 0.861071,-2.035257 1.56558,1.174187 0.86107,3.679118 c 0,0 -1.95698,4.070512 -1.95698,4.383628 0,0.313118 -1.565577,2.818048 -1.565577,2.818048 z"
       id="path96" />
    <path
       style="opacity:0.99;fill:#3c2e2e;fill-opacity:1;stroke:#954343;stroke-width:0;stroke-dasharray:none;stroke-opacity:1"
       d="m 73.243174,44.179849 -7.018387,10.617563 -2.069526,7.648241 1.169731,-8.278098 c 0,0 8.098141,-10.077683 7.918182,-9.987706 z"
       id="path97" />
    <path
       style="opacity:0.99;fill:#3d2e2e;fill-opacity:1;stroke:#954343;stroke-width:0;stroke-dasharray:none;stroke-opacity:1"
       d="m 71.533567,45.439562 -8.727996,4.948862 -6.388531,9.357849 -7.918183,14.936571 -1.079751,5.128821 0.899795,-7.828201 5.128821,-9.627788 4.498967,-6.928411 4.319008,-4.948861 z"
       id="path98" />
    <path
       style="opacity:0.99;fill:#3d2e2e;fill-opacity:1;stroke:#954343;stroke-width:0;stroke-dasharray:none;stroke-opacity:1"
       d="m 74.502885,45.529542 1.25971,10.257641 4.408988,8.458057 9.537808,5.758678 c 0,0 5.2188,4.139049 5.488739,4.498967 0.269938,0.359918 -3.599172,-4.04907 -3.599172,-4.04907 0,0 -5.128824,-3.419215 -5.938636,-4.139049 -0.809813,-0.719836 -5.218801,-2.879338 -5.218801,-2.879338 0,0 -2.69938,-4.768906 -2.69938,-5.218803 0,-0.449895 -1.349689,-6.388532 -1.349689,-6.388532 z"
       id="path99" />
    <path
       style="opacity:0.99;fill:#3d2e2e;fill-opacity:1;stroke:#954343;stroke-width:0;stroke-dasharray:none;stroke-opacity:1"
       d="M 78.461975,47.149167 93.93842,66.404746 c 0,0 1.439669,6.838428 1.619628,7.468282 0.179959,0.629857 1.979544,19.07562 1.979544,19.07562 L 97.177676,79.631706 96.187902,70.003918 95.648027,66.94462 92.49875,62.265697 88.719619,58.666522 Z"
       id="path100" />
    <path
       style="opacity:0.99;fill:#3d2e2e;fill-opacity:1;stroke:#954343;stroke-width:0;stroke-dasharray:none;stroke-opacity:1"
       d="m 76.122513,38.061257 -7.468285,-0.719836 c 0,0 -5.2188,1.079754 -5.488739,1.619628 -0.269938,0.539877 -6.118595,3.689154 -6.118595,3.689154 l -5.038842,5.578718 c 0,0 -2.879338,2.69938 -2.879338,3.149275 0,0.449897 -3.779131,8.638016 -3.779131,8.638016 l 0.359915,9.177893 0.539877,-7.558265 c 0,0 0.629857,-3.059297 0.719836,-3.509192 0.08998,-0.449898 2.6094,-4.768906 2.6094,-4.768906 l 2.6094,-3.86911 1.709608,-2.249485 2.969316,-1.799585 c 0,0 0.539877,-1.34969 1.34969,-1.889567 0.809815,-0.539877 3.779133,-2.6094 3.779133,-2.6094 l 4.948862,-0.719836 2.249485,-1.529649 4.588944,0.809816 1.34969,1.079751 c 0,0 -8.098139,0.719836 -8.458057,0.719836 -0.359916,0 -6.028614,1.709605 -6.028614,1.709605 l -3.239256,2.969319 -2.249482,4.588946 -0.989775,1.889567 2.429444,-3.959093 c 0,0 2.159503,-3.419213 2.69938,-3.599172 0.539874,-0.179959 3.599172,-1.25971 3.599172,-1.25971 l 3.86911,-0.449898 c 0,0 3.869113,-1.25971 4.229029,-1.16973 0.359918,0.08998 4.139049,0 4.139049,0 0,0 -5.39876,1.889566 -5.758675,1.979546 -0.359918,0.08998 -5.398762,2.519421 -5.398762,2.519421 L 67.0346,45.889457 c 0,0 5.938636,-1.34969 6.298554,-1.439669 0.359915,-0.08998 1.619628,-1.079752 1.619628,-1.079752 l 6.928409,3.239257 6.748449,3.239254 9.627788,9.807747 0.989771,9.71777 -0.08998,-7.468285 -0.179959,-3.599175 -8.458057,-8.098139 -14.57665,-7.738221 12.237188,3.95909 c 0,0 6.748449,5.30878 7.91818,6.65847 1.169734,1.34969 3.599175,3.599174 3.599175,3.599174 L 95.018171,49.938527 89.97933,45.259603 76.572408,41.39049 l 2.789359,-0.809813 9.267873,3.689152 5.848657,2.879338 -2.609403,-2.969318 -11.607332,-4.948862 z"
       id="path101" />
    <path
       style="opacity:0.99;fill:#3d2e2e;fill-opacity:1;stroke:#954343;stroke-width:0;stroke-dasharray:none;stroke-opacity:1"
       d="m 60.826027,68.564248 c 1.43967,-0.719833 5.668698,-5.488738 5.668698,-5.488738 l 3.599172,-8.727996 -3.779131,10.797521 z"
       id="path102" />
    <path
       style="opacity:0.99;fill:#3d2e2e;fill-opacity:1;stroke:#954343;stroke-width:0;stroke-dasharray:none;stroke-opacity:1"
       d="m 76.547603,38.054258 6.366772,-2.195438 10.904008,5.854501 5.70814,8.342665 -5.269053,-6.805859 -7.684032,-4.756782 -5.12269,-1.390444 z"
       id="path103" />
    <path
       style="opacity:0.99;fill:#3d2e2e;fill-opacity:1;stroke:#954343;stroke-width:0;stroke-dasharray:none;stroke-opacity:1"
       d="m 76.767147,37.322445 -4.976326,-2.26862 -10.684465,2.707709 -6.732675,4.09815 8.781751,-3.805426 7.464489,-2.049076 5.854501,1.536809 z"
       id="path104" />
    <path
       style="opacity:0.99;fill:#3d2e2e;fill-opacity:1;stroke:#954343;stroke-width:0;stroke-dasharray:none;stroke-opacity:1"
       d="m 51.446429,87.37843 c 0,0.365909 2.561344,14.92898 2.561344,14.92898 l 1.390447,8.1963 -1.024539,-9.14766 -1.463627,-11.269911 -1.902711,-3.000433 z"
       id="path105" />
    <path
       style="opacity:0.99;fill:#3d2e2e;fill-opacity:1;stroke:#954343;stroke-width:0;stroke-dasharray:none;stroke-opacity:1"
       d="M 57.959563,97.623809 V 108.23509 L 59.56955,99.014252 57.666836,97.331084 V 97.184722 Z"
       id="path106" />
    <path
       style="opacity:0.99;fill:#3d2e2e;fill-opacity:1;stroke:#954343;stroke-width:0;stroke-dasharray:none;stroke-opacity:1"
       d="m 91.037494,98.721528 0.146364,10.245372 1.609987,-12.660354 -2.122257,1.902712 z"
       id="path107" />
    <path
       style="opacity:0.99;fill:#3d2e2e;fill-opacity:1;stroke:#954343;stroke-width:0;stroke-dasharray:none;stroke-opacity:1"
       d="m 102.32504,82.44475 2.63122,18.71087 5.99333,24.26565 -0.29236,9.79397 -1.90033,-13.30226 -3.94682,-19.29558 -4.093,-18.272328 2.92357,32.305478 c 0,0 -1.16943,-0.43853 -1.16943,-1.02325 0,-0.58471 -3.508284,-30.112798 -3.508284,-30.112798 l -0.730893,27.335408 -1.169429,-1.02325 1.315606,-19.880299 0.730896,-6.724216 z"
       id="path108" />
    <path
       style="opacity:0.99;fill:#3d2e2e;fill-opacity:1;stroke:#954343;stroke-width:0;stroke-dasharray:none;stroke-opacity:1"
       d="m 47.654236,85.953038 -6.285683,27.043042 -10.671039,33.76727 -0.292357,23.82712 5.11625,34.05962 -2.631215,-30.25898 0.14618,-17.1029 5.26243,37.12938 c 0,0 3.946824,17.83379 4.093001,18.71086 0.14618,0.87707 3.215931,7.16275 3.215931,7.16275 0,0 -1.754142,-9.94014 -1.754142,-10.52486 0,-0.58471 -3.215931,-13.59461 -3.215931,-14.17933 0,-0.58471 -0.730893,-20.17265 -0.730893,-20.17265 l 3.800644,17.39526 7.016575,29.38191 -2.923574,-12.57137 0.292359,-10.2325 -1.461788,-10.81722 1.754145,-2.7774 -5.700967,-4.67771 0.146177,-3.21593 -3.362108,-4.23918 -4.385357,-8.77072 -1.023252,-10.37868 1.461785,-19.1494 5.116254,-19.29558 6.431859,-15.20258 2.046502,-5.262432 -1.754145,-8.332184"
       id="path109" />
    <path
       style="opacity:0.99;fill:#3d2e2e;fill-opacity:1;stroke:#954343;stroke-width:0;stroke-dasharray:none;stroke-opacity:1"
       d="m 113.5808,174.39111 -3.80064,36.2523 -4.53154,16.95672 3.80064,-20.31883 1.75415,-29.23572 0.43853,-4.23918 3.06975,-1.90032 v 2.33885 z"
       id="path110" />
    <path
       style="opacity:0.99;fill:#007272;fill-opacity:0.99215698;stroke:#954343;stroke-width:0;stroke-dasharray:none;stroke-opacity:1"
       d="m 57.302026,159.91943 -10.817219,-3.21593 -1.754146,-3.06976 12.717542,5.40861 z"
       id="path111" />
    <path
       style="opacity:0.99;fill:#007272;fill-opacity:0.992157;stroke:#954343;stroke-width:0;stroke-dasharray:none;stroke-opacity:1"
       d="m 43.415055,119.28177 3.215929,11.54811 5.847146,10.2325 -2.192679,8.33218 1.023249,-9.20925 -4.970073,-7.16275 -1.900322,-4.093 -1.315606,-5.40861 -0.584716,-3.21593 0.292356,-1.46179 z"
       id="path112" />
    <path
       style="opacity:0.99;fill:#007272;fill-opacity:0.992157;stroke:#954343;stroke-width:0;stroke-dasharray:none;stroke-opacity:1"
       d="m 41.66091,174.82965 c 2.192682,1.31561 10.232506,0.43853 10.232506,0.43853 l -5.700966,1.75415 -4.093004,0.43853 z"
       id="path113" />
    <path
       style="opacity:0.99;fill:#007272;fill-opacity:0.992157;stroke:#954343;stroke-width:0;stroke-dasharray:none;stroke-opacity:1"
       d="m 35.37523,158.45764 c 1.607966,1.31561 11.986647,8.186 11.986647,8.186 l -8.770718,-3.94682 -2.338859,1.31561 z"
       id="path114" />
    <path
       style="opacity:0.99;fill:#007272;fill-opacity:0.992157;stroke:#954343;stroke-width:0;stroke-dasharray:none;stroke-opacity:1"
       d="m 63.14917,115.18877 -0.146177,20.61118 4.970073,-16.51818 -3.800644,-3.80065 z"
       id="path115" />
    <path
       style="opacity:0.99;fill:#007272;fill-opacity:0.992157;stroke:#954343;stroke-width:0;stroke-dasharray:none;stroke-opacity:1"
       d="m 61.687384,143.54742 -3.654465,12.42518 -0.438536,3.21593 5.554787,4.23918 -4.093001,-5.11625 0.877072,-6.57804 z"
       id="path116" />
    <path
       style="opacity:0.99;fill:#007272;fill-opacity:0.992157;stroke:#954343;stroke-width:0;stroke-dasharray:none;stroke-opacity:1"
       d="m 51.162524,112.70373 3.654464,6.57804 -1.315609,4.38535 2.485038,-6.87039 -2.631215,-5.55479 -2.923574,1.31561"
       id="path117" />
    <path
       style="opacity:0.99;fill:#007272;fill-opacity:0.992157;stroke:#954343;stroke-width:0;stroke-dasharray:none;stroke-opacity:1"
       d="m 66.072744,102.90976 -3.215931,4.82389 6.724219,6.8704 4.239178,4.97007 -6.578037,-5.55478 -4.38536,-5.11626 -1.607966,-2.63121 1.315609,-2.63122 z"
       id="path118" />
    <path
       style="opacity:0.99;fill:#007272;fill-opacity:0.992157;stroke:#954343;stroke-width:0;stroke-dasharray:none;stroke-opacity:1"
       d="m 88.438073,104.6639 -7.747465,8.18601 -3.508288,4.82389 -0.438536,3.94683 3.800644,-6.72422 5.993323,-5.84715 3.800645,-0.14618 z"
       id="path119" />
    <path
       style="opacity:0.99;fill:#007272;fill-opacity:0.992157;stroke:#954343;stroke-width:0;stroke-dasharray:none;stroke-opacity:1"
       d="m 75.720534,109.78016 -2.777394,5.55478 1.754142,0.87708 c 0,0 10.81722,-11.98665 9.64779,-11.40194 -1.169429,0.58472 -8.624538,4.97008 -8.624538,4.97008 z"
       id="path120" />
    <path
       style="opacity:0.99;fill:#007272;fill-opacity:0.992157;stroke:#954343;stroke-width:0;stroke-dasharray:none;stroke-opacity:1"
       d="m 68.703959,104.07919 -1.169429,4.38536 4.385357,4.38536 -0.146177,-2.0465 -3.069751,-2.63122 z"
       id="path121" />
    <path
       style="opacity:0.99;fill:#007272;fill-opacity:0.992157;stroke:#954343;stroke-width:0;stroke-dasharray:none;stroke-opacity:1"
       d="m 97.354971,125.56745 9.501609,29.23572 -8.916893,-19.1494 z"
       id="path122" />
    <path
       style="opacity:0.99;fill:#007272;fill-opacity:0.992157;stroke:#954343;stroke-width:0;stroke-dasharray:none;stroke-opacity:1"
       d="m 113.28844,156.84968 c 0,0 -1.75414,7.60128 -2.33885,8.47836 -0.58472,0.87707 -4.97008,6.57804 -4.97008,6.57804 l 4.8239,-3.21594 2.92357,-2.48503 -2.92357,4.093 -1.02325,2.63122 c 0,0 5.40861,-1.31561 5.40861,-2.19268 0,-0.87708 0.14617,-9.50161 0.14617,-9.50161 z"
       id="path123" />
    <path
       style="opacity:0.99;fill:#007272;fill-opacity:0.992157;stroke:#954343;stroke-width:0;stroke-dasharray:none;stroke-opacity:1"
       d="m 91.361648,168.10543 16.518182,-6.87039 -13.156074,2.92357 z"
       id="path124" />
    <path
       style="opacity:0.99;fill:#007272;fill-opacity:0.992157;stroke:#954343;stroke-width:0;stroke-dasharray:none;stroke-opacity:1"
       d="m 63.880063,183.45419 c 4.38536,-0.14618 15.933472,-6.28568 15.933472,-6.28568 l 6.139503,-4.67772 7.162752,-5.84715 -13.594611,7.74747 -14.764044,9.06308 -1.900322,0.29236"
       id="path125" />
    <path
       style="opacity:0.99;fill:#007272;fill-opacity:0.992157;stroke:#954343;stroke-width:0;stroke-dasharray:none;stroke-opacity:1"
       d="m 92.531077,178.48412 -13.156078,3.50828 14.179328,-1.31561 -0.292357,-1.60796 z"
       id="path126" />
    <path
       style="opacity:0.99;fill:#007272;fill-opacity:0.992157;stroke:#954343;stroke-width:0;stroke-dasharray:none;stroke-opacity:1"
       d="m 55.109345,183.30801 10.524863,-3.50829 1.461786,-13.74079 -4.093001,10.2325 z"
       id="path127" />
    <path
       style="opacity:0.99;fill:#007272;fill-opacity:0.992157;stroke:#954343;stroke-width:0;stroke-dasharray:none;stroke-opacity:1"
       d="m 91.654004,168.10543 -2.192678,0.73089 10.671044,14.91023 z"
       id="path128" />
    <path
       style="opacity:0.99;fill:#007272;fill-opacity:0.992157;stroke:#954343;stroke-width:0;stroke-dasharray:none;stroke-opacity:1"
       d="m 95.600828,126.29834 1.02325,21.1959 3.946822,8.62454 z"
       id="path129" />
    <path
       style="opacity:0.99;fill:#323232;fill-opacity:0.99215698;stroke:#954343;stroke-width:0;stroke-dasharray:none;stroke-opacity:1"
       d="m 95.016112,253.1814 2.192679,0.58471 5.408609,-31.72076 z"
       id="path130" />
    <path
       style="opacity:0.99;fill:#323232;fill-opacity:0.992157;stroke:#954343;stroke-width:0;stroke-dasharray:none;stroke-opacity:1"
       d="m 78.05939,229.06192 4.093004,-16.81054 0.87707,-25.72744 -6.578037,38.44498 z"
       id="path131" />
    <path
       style="opacity:0.99;fill:#323232;fill-opacity:0.992157;stroke:#954343;stroke-width:0;stroke-dasharray:none;stroke-opacity:1"
       d="m 55.952683,187.34018 16.832561,0.31171 26.963269,-0.62343 8.260427,-4.83157 0.31171,-5.76671 -7.79285,8.41628 -23.066844,1.55857 -22.287558,0.31172 z"
       id="path136" />
    <path
       style="opacity:0.99;fill:#000000;fill-opacity:0;stroke:#000000;stroke-width:0;stroke-dasharray:none;stroke-opacity:1"
       d="m 49.718399,185.78161 4.208142,37.87326 -0.935143,-24.78127 2.182,-12.93614 z"
       id="path137" />
    <path
       id="path139"
       style="opacity:0.99;fill:#999999;stroke:#000000;stroke-width:0"
       d="m 90.240676,140.31644 c -3e-6,6.33784 -8.537059,14.92351 -15.909484,11.58001 -5.120123,-2.32205 -14.492547,-7.61265 -11.945153,-11.68434 3.334957,-5.33052 8.613845,-13.18421 13.822994,-12.41461 8.008234,1.18314 14.03164,6.18109 14.031643,12.51894 z"
       sodipodi:nodetypes="sssss" />
    <path
       style="opacity:0.99;fill:#000000;fill-opacity:1;stroke:none;stroke-width:0;stroke-dasharray:none;stroke-opacity:1"
       d="m 72.817926,138.78933 c -0.763501,-0.14979 -2.302564,-0.77596 -2.830926,-0.9975 -0.258002,-0.64865 -0.393179,-0.80963 -0.475941,0.39962 0.824006,1.56247 1.000487,2.24552 0.176508,1.17989 -0.413985,-0.42057 -0.428623,-0.38567 0.02737,0.25377 2.107744,1.85206 3.830577,2.50111 4.995328,0.58659 0.606981,-0.55577 0.886123,-0.69865 0.618272,-0.30283 -0.09699,0.34496 -0.164105,0.58163 -0.153634,0.68455 0.286475,-0.64011 0.48468,-0.96992 0.490476,-0.9249 0.0022,0.017 -0.02266,0.0855 -0.07665,0.20154 0.274964,-0.86848 -1.375189,-1.60753 -2.702345,-2.05951 l 0,0 c -0.529702,0.10517 -0.525632,0.30491 -0.318571,0.58243 l 0,0 c 0.603752,-0.13562 -0.310032,0.93692 -0.807655,1.56031 l 0,0 c 0,0 -3e-6,0 -3e-6,0 -0.613189,1.65732 -0.552077,1.86816 -0.150364,1.4453 l 0,0 c -0.854523,0.25569 0.416509,-0.66797 2.065786,-1.65827 l 0,0 c -0.06053,0.076 -0.101401,0.22128 -0.124921,0.27427 -0.02959,0.0667 -0.05071,0.16576 -0.0723,0.24877 0,0 0,0 0,0 0,0 0,0 0,0 -0.01756,0.0675 -0.03331,0.12249 -0.04809,0.20374 -0.01195,0.0657 -0.01392,0.12972 -0.0069,0.19811 0.01907,0.1851 0.02931,0.34072 0.02931,0.52711 0,0.17233 -0.0095,0.35724 -0.02834,0.5234 -0.0075,0.0664 -0.0064,0.12387 0.0019,0.19146 0.0087,0.0712 0.02049,0.16156 0.02003,0.24316 0,0 0,0 0,0 0,0 0,0 0,0 -7.5e-4,0.13298 -0.02893,0.26708 -0.09152,0.40111 -0.05801,0.12424 -0.15185,0.17397 -0.291516,0.25143 l 0,0 c 1.625087,-1.03807 2.807391,-1.77535 2.051021,-1.45403 l 0,0 c 0.366174,-0.33706 0.450568,-0.0269 -0.241044,1.71736 0,0 -3e-6,0 -3e-6,0 l 0,0 c -0.758773,0.88468 -2.260466,2.06399 -2.256039,1.86514 l 0,0 c -0.233008,0.27615 -0.73052,0.49088 -1.772019,0.459 l 0,0 c -2.90378,-0.87355 -5.711398,-3.47733 -5.150769,-6.68431 -0.02677,-0.1151 -0.02439,-0.28178 0.01246,-0.50085 0.09867,-0.58653 0.43807,-1.51066 1.036136,-2.67093 0.359734,-0.47879 0.673809,-0.77705 0.934551,-0.94773 -0.06017,0.0968 0.384816,-0.33897 1.253049,-1.11899 1.572198,-2.27053 4.017165,-1.6785 6.446244,0.49599 0.568479,0.75308 0.617145,0.9178 0.299422,0.61651 -0.646431,-0.84262 -0.271819,-0.091 0.62992,1.72399 0.02213,1.61307 -0.222298,1.79513 -0.475941,1.4878 -0.868913,0.98038 -1.919354,1.21192 -3.012286,0.9975 z"
       id="path140"
       inkscape:original-d="m 72.817926,138.78933 c 0.06529,-0.3328 0.09068,-0.65941 0.09068,-0.9975 0,-0.18137 0.04854,-0.36935 0,-0.54409 -0.03159,-0.11374 -0.152966,-0.17987 -0.226706,-0.27205 -0.04721,-0.059 -0.08259,-0.12793 -0.136025,-0.18137 -0.116789,-0.11679 -0.608629,-0.0548 -0.725458,0.0453 -0.130836,0.11215 -0.21898,0.26661 -0.317389,0.40808 -0.186714,0.2684 -0.375872,0.53577 -0.544092,0.81614 -0.224012,0.37335 -0.268054,0.80485 -0.317389,1.22421 -0.127478,1.08356 0.02726,1.99014 1.224212,2.3124 0.22757,0.0613 1.226722,0.13351 1.450916,-0.0907 0.0338,-0.0338 0.02759,-0.0916 0.04534,-0.13603 -0.0821,-0.18969 0.07156,-0.0524 0.09068,-0.0907 0.06448,-0.12895 -0.100502,-0.0907 0,-0.0907"
       inkscape:path-effect="#path-effect140" />
    <path
       style="opacity:0.99;fill:#000000;fill-opacity:1;stroke:#000000;stroke-width:0;stroke-dasharray:none;stroke-opacity:1"
       d="m 71.982229,145.42356 3.404565,-1.65365 0.778187,-2.33456 2.918198,-1.4591 4.76639,0.29182 2.334559,3.11275 c 0,0 -0.389091,3.89093 -0.778185,4.28002 -0.389093,0.3891 -3.50184,3.3073 -3.50184,3.3073 l -5.252757,0.68091 4.085479,-1.65365 2.04274,-1.84819 0.972732,-2.23728 -1.653645,-2.62638 -1.653646,0.0973 -3.112746,1.55637 -3.307292,1.55637 z"
       id="path145" />
    <path
       style="opacity:0.99;fill:none;fill-opacity:1;stroke:#000000;stroke-width:0;stroke-dasharray:none;stroke-opacity:1"
       d="m 80.598244,133.37899 c -0.02212,-0.0974 -0.08822,-1.08613 -0.453054,-1.26855 -0.06888,-0.0344 -0.155029,0.0167 -0.226528,0.0453 -0.232098,0.0928 -0.462092,0.19389 -0.679579,0.31714 -0.236866,0.13422 -0.456544,0.29692 -0.67958,0.45305 -0.07922,0.0555 -0.162285,0.10895 -0.226528,0.18122 -0.0585,0.0658 -0.08542,0.15439 -0.135914,0.22653 -0.122169,0.17452 -0.266147,0.27739 -0.317138,0.49836 -0.0038,0.0163 0.0032,0.5469 0,0.58897 -0.0231,0.30036 -0.139996,0.62816 0.0453,0.9061 0.04739,0.0711 0.120814,0.12082 0.181221,0.18122 0.0453,0.0453 0.07513,0.11566 0.135916,0.13592 0.129734,0.0433 0.271167,0.0385 0.407747,0.0453 0.543055,0.0272 0.381815,0.0277 0.815499,-0.0906 0.112191,-0.0306 0.180729,-0.0299 0.27183,-0.0906 0.06283,-0.0419 0.119777,-0.092 0.181221,-0.13591 0.109892,-0.0785 0.145712,-0.0802 0.226528,-0.18122 0.114586,-0.14323 0.229003,-0.49836 0.407747,-0.49836"
       id="path146" />
    <path
       d="m 107.69617,83.879718 -0.66878,4.337669 -0.25626,-1.775069 c -0.60419,0.716695 -1.27088,1.262549 -2.00008,1.637564 -0.72503,0.375015 -1.48339,0.562522 -2.27509,0.562522 -0.52085,0 -1.02712,-0.106254 -1.51881,-0.318763 -0.49168,-0.216675 -0.93545,-0.529188 -1.331297,-0.937537 -0.470852,-0.475018 -0.520704,-0.601059 -0.774881,-1.188582 -1.186512,-0.477036 -1.44233,-1.690486 -1.44233,-2.307178 0,-0.8542 0.09306,-1.620456 0.455573,-2.32465 0.362514,-0.70836 1.71997,-1.20903 2.386665,-1.654881 0.44585,-0.295845 0.92503,-0.516687 1.43755,-0.662526 0.51669,-0.145839 1.07504,-0.218759 1.67507,-0.218759 0.54585,0 1.05421,0.08542 1.52506,0.25626 0.47085,0.17084 0.91254,0.431267 1.32505,0.781281 l 0.36251,-1.037541 0.63753,3.418884 c -0.27501,-0.400016 -0.60003,-0.702111 -0.97504,-0.906286 -0.37501,-0.208341 -0.7792,-0.312512 -1.21255,-0.312512 -0.50002,0 -0.90212,0.147922 -1.20629,0.443767 -0.30418,0.291678 -0.45627,0.67711 -0.45627,1.156296 0,0.508353 0.18959,0.935453 0.56877,1.2813 0.37918,0.34168 0.8542,0.51252 1.42506,0.51252 0.35001,0 0.71461,-0.06042 1.09379,-0.181257 0.37918,-0.125005 0.78753,-0.312513 1.22505,-0.562522 z m 12.99425,-2.087582 -1.02504,0.575022 -1.63756,5.493965 1.01254,0.687527 -4.81269,-0.187507 0.83128,-0.51252 -1.75631,-1.806321 -0.88129,1.381304 0.93129,0.843783 -4.26267,0.281261 1.01254,-0.712528 -1.58756,-5.225204 -1.02504,-0.431267 5.68772,-0.387515 -1.2063,0.575022 0.0625,3.30638 2.28134,-3.256378 1.3438,3.187625 0.79378,-3.06887 -0.97504,-0.600023 z m 5.78773,6.556506 -6.47525,0.200008 1.3938,-0.562522 0.43752,-5.325208 -1.70632,-0.675026 6.23775,-0.231259 -2.00008,0.706277 0.78128,5.475214 z m -0.69378,-8.037814 c 0,0.283345 -0.21876,0.518771 -0.65627,0.706278 -0.43752,0.183341 -1.00838,0.275011 -1.71257,0.275011 -0.70419,0 -1.27713,-0.09167 -1.71882,-0.275011 -0.43751,-0.187507 -0.65627,-0.422933 -0.65627,-0.706278 0,-0.283344 0.22084,-0.51877 0.66252,-0.706277 0.44169,-0.187507 1.01254,-0.281261 1.71257,-0.281261 0.70419,0 1.27505,0.09375 1.71257,0.281261 0.43751,0.187507 0.65627,0.422933 0.65627,0.706277 z m 8.05657,8.000313 -3.49389,0.225008 c 0.23335,-0.26251 0.40835,-0.53127 0.52502,-0.806281 0.11667,-0.279177 0.17501,-0.560438 0.17501,-0.843783 0,-0.379181 -0.0896,-0.691694 -0.26876,-0.937537 -0.17917,-0.245843 -0.40418,-0.368764 -0.67503,-0.368764 -0.31251,0 -0.57294,0.129172 -0.78128,0.387515 -0.20417,0.254177 -0.30626,0.577106 -0.30626,0.968788 0,0.266677 0.0417,0.508353 0.12501,0.725028 0.0833,0.212509 0.20834,0.397933 0.37501,0.556272 l -3.43138,0.400016 0.78128,-0.818782 0.26876,-5.137701 -1.02504,-0.51252 3.26262,-0.356264 -0.75628,1.52506 c 0.52503,-0.50002 1.03546,-0.877118 1.53131,-1.131295 0.49585,-0.254176 0.96671,-0.381264 1.41256,-0.381264 0.69169,0 1.2438,0.229175 1.65631,0.687526 0.41669,0.454185 0.62503,1.062542 0.62503,1.825072 0,0.600023 -0.10625,1.200047 -0.31876,1.80007 -0.21251,0.595857 -0.52503,1.177129 -0.93754,1.743818 z m 13.74893,-6.40451 -2.14336,0.561526 -4.49279,2.267844 2.5251,3.07512 2.63675,0.743422 -7.34944,0.07536 0.84379,-0.668776 -1.18755,-2.125083 -0.83128,2.087581 0.63752,0.575023 -4.48142,-0.24376 1.06254,-0.356263 2.15008,-2.968866 -2.05633,-2.225087 -1.08754,-0.337514 5.48771,-0.550021 -0.78128,0.731279 0.64378,1.487558 1.15004,-1.53756 -0.71878,-0.475019 z"
       id="text147"
       style="font-size:12.8005px;font-family:'Snap ITC';-inkscape-font-specification:'Snap ITC';opacity:0.99;stroke:#000000;stroke-width:0.1;fill:url(#radialGradient163);stroke-dasharray:none"
       transform="scale(0.63882003,1.5653861)"
       aria-label="Cwinx"
       sodipodi:nodetypes="ccccscccscccssccccscscsccccccccccccccccccccccccccccccccscscssssscccssscsccccccccsscscccccccccccccccccccccccc" />
    <path
       style="opacity:0.99;fill:#f2f227;fill-opacity:1;stroke:#000000;stroke-width:0;stroke-dasharray:none;stroke-opacity:1"
       d="m 73.226545,134.7871 -0.837557,-0.77773 -0.717907,0.77773 z"
       id="path147" />
    <path
       style="opacity:0.99;fill:#898908;fill-opacity:0.47668394;stroke:#000000;stroke-width:0;stroke-dasharray:none;stroke-opacity:1"
       d="m 71.491604,141.12861 -2.153722,1.91442 1.615292,-2.51267 z"
       id="path148" />
    <path
       style="opacity:0.99;fill:#898908;fill-opacity:0.476684;stroke:#000000;stroke-width:0;stroke-dasharray:none;stroke-opacity:1"
       d="m 69.995964,139.75262 -2.213549,2.93146 0.717908,-2.03407 1.076862,-1.25634 0.119649,0.41878 z"
       id="path149" />
    <path
       style="opacity:0.99;fill:#898908;fill-opacity:0.476684;stroke:#000000;stroke-width:0;stroke-dasharray:none;stroke-opacity:1"
       d="m 69.696834,138.79541 -2.452848,1.79477 1.734941,-1.97424 0.658083,-0.65808 z"
       id="path150" />
    <path
       style="opacity:0.99;fill:#898908;fill-opacity:0.476684;stroke:#000000;stroke-width:0;stroke-dasharray:none;stroke-opacity:1"
       d="m 69.696834,137.29977 -1.854591,-0.0598 -0.83756,1.55546 1.076862,-1.07686 z"
       id="path151" />
    <path
       style="opacity:0.99;fill:#898908;fill-opacity:0.476684;stroke:#000000;stroke-width:0;stroke-dasharray:none;stroke-opacity:1"
       d="m 77.055386,140.88931 0.777732,1.31617 -0.478604,1.55546 0.897384,-1.61529 -0.239302,-1.49564 -0.658082,0.29913 -0.658083,0.29913 z"
       id="path152" />
    <path
       style="opacity:0.99;fill:#898908;fill-opacity:0.476684;stroke:#000000;stroke-width:0;stroke-dasharray:none;stroke-opacity:1"
       d="m 72.987243,141.48757 -1.615289,1.79476 0.53843,0.83756 0.358952,-1.55546 z"
       id="path153" />
    <path
       style="opacity:0.99;fill:#898908;fill-opacity:0.476684;stroke:#000000;stroke-width:0;stroke-dasharray:none;stroke-opacity:1"
       d="m 74.243583,142.2653 -1.435815,1.91442 1.555464,-1.31616 0.538433,-1.13669 z"
       id="path154" />
    <path
       style="opacity:0.99;fill:#898908;fill-opacity:0.476684;stroke:#000000;stroke-width:0;stroke-dasharray:none;stroke-opacity:1"
       d="m 79.388585,139.99193 0.478605,2.21355 -0.538432,1.19651 1.615292,-1.43582 -0.897385,-1.79477 z"
       id="path155" />
    <path
       style="opacity:0.99;fill:#898908;fill-opacity:0.476684;stroke:#000000;stroke-width:0;stroke-dasharray:none;stroke-opacity:1"
       d="m 81.661957,140.35088 0.777735,1.73494 -0.598258,0.59826 0.897385,-0.89738 0.239302,-0.89739 v -0.83756 z"
       id="path156" />
    <path
       style="opacity:0.99;fill:#898908;fill-opacity:0.476684;stroke:#000000;stroke-width:0;stroke-dasharray:none;stroke-opacity:1"
       d="m 84.533588,141.30809 -0.717907,2.03407 1.316162,-1.37599 z"
       id="path157" />
    <path
       style="opacity:0.99;fill:#898908;fill-opacity:0.476684;stroke:#000000;stroke-width:0;stroke-dasharray:none;stroke-opacity:1"
       d="m 83.396901,144.8378 h 1.196512 l 0.95721,0.11965 -1.49564,0.83756 z"
       id="path158" />
    <path
       style="opacity:0.99;fill:#898908;fill-opacity:0.476684;stroke:#000000;stroke-width:0;stroke-dasharray:none;stroke-opacity:1"
       d="m 83.576379,146.51292 -0.478608,0.77773 c 0,0 2.333199,0.0598 1.974247,0 -0.358955,-0.0598 -1.495639,-0.77773 -1.495639,-0.77773 z"
       id="path159" />
    <path
       style="opacity:0.99;fill:#898908;fill-opacity:0.476684;stroke:#000000;stroke-width:0;stroke-dasharray:none;stroke-opacity:1"
       d="m 82.738819,148.30769 1.495639,0.29913 -2.213546,0.0598 z"
       id="path160" />
    <path
       style="opacity:0.99;fill:#898908;fill-opacity:0.476684;stroke:#000000;stroke-width:0;stroke-dasharray:none;stroke-opacity:1"
       d="m 69.278057,136.22291 -0.837559,-1.13668 -1.675117,1.49564 1.615292,-1.07686 z"
       id="path161" />
    <path
       style="opacity:0.99;fill:#898908;fill-opacity:0.476684;stroke:#000000;stroke-width:0;stroke-dasharray:none;stroke-opacity:1"
       d="m 74.064105,136.82117 2.333199,1.49564 -0.478605,1.37599 0.299128,-1.31616 z"
       id="path162" />
    <path
       style="opacity:0.99;fill:#999999;fill-opacity:0;stroke:#000000;stroke-width:0;stroke-dasharray:none;stroke-opacity:1"
       d="m 72.636313,134.89601 c -0.07591,-1.50036 -1.141452,-2.44553 -2.327466,-3.20026 -0.159022,-0.1012 -0.304731,-0.2355 -0.484888,-0.29094 -1.085514,-0.334 -3.654523,0.0977 -4.557953,0.48489 -0.428514,0.18365 -0.802905,0.4806 -1.163733,0.77582 -0.515247,0.42157 -0.495229,0.52737 -0.8728,1.06676 -0.163332,0.23333 -0.587017,0.74531 -0.678844,0.96978 -0.263795,0.64483 -0.641392,2.07299 -0.775822,2.81235 -0.125566,0.69062 -0.298069,2.68671 0.09698,3.29724 0.223517,0.34544 0.55834,0.60747 0.8728,0.8728 1.545407,1.30394 2.288055,2.23049 4.170042,2.23049 1.177181,0 1.114568,0.13931 1.745599,-0.58187 0.10731,-0.12264 0.969777,-1.00604 0.969777,-1.06675"
       id="path138" />
  </g>
</svg>
